<svg xmlns="http://www.w3.org/2000/svg" width="282.642" height="249.938" viewBox="0 0 282.642 249.938">
  <g id="Group_1773" data-name="Group 1773" transform="translate(-94.595 -287.054)">
    <g id="Group_4" data-name="Group 4" transform="translate(94.595 262.08)">
      <g id="undraw_city_life_gnpr">
        <path id="Path_382" data-name="Path 382" d="M158.31,608.433a5.933,5.933,0,1,1,11.866,0" transform="translate(-147.15 -446.766)" fill="#1f1f2f"/>
        <path id="Path_383" data-name="Path 383" d="M175.172,613.138a.16.16,0,0,1-.16-.16v-3.127a.16.16,0,1,1,.321,0v3.127a.16.16,0,0,1-.16.16Z" transform="translate(-158.079 -451.471)" fill="#3f3d56"/>
        <path id="Path_384" data-name="Path 384" d="M171.529,612.823a.16.16,0,0,1-.1-.039l-1.924-1.651a.16.16,0,1,1,.209-.243l1.924,1.652a.16.16,0,0,1-.1.282Z" transform="translate(-154.436 -452.23)" fill="#3f3d56"/>
        <path id="Path_385" data-name="Path 385" d="M167.639,271.877c2.719-8.492,9.36-15.078,17.235-18.995,9.344-4.648,20.081-5.174,30.226-3.365,10.952,1.953,21.188,6.454,31.1,11.366,9.718,4.818,19.28,9.906,29.387,13.888a190.233,190.233,0,0,0,63.234,13.1c19.5.651,40.36-1.486,57.06-12.449,15.3-10.045,25.04-26.616,30.111-43.89q.974-3.317,1.732-6.691c.147-.65-.852-.927-1-.276C422.63,242.6,413.906,260.429,399,271.927c-16.121,12.436-37.279,15.311-57.078,14.982a189.314,189.314,0,0,1-64.059-12.362c-10.367-3.947-20.15-9.072-30.057-14.019-9.69-4.839-19.652-9.369-30.307-11.6-9.73-2.038-20.147-2.162-29.528,1.464-7.724,2.986-14.767,8.308-18.889,15.589a29.9,29.9,0,0,0-2.444,5.619C166.435,272.238,167.436,272.511,167.639,271.877Z" transform="translate(-152.582 -199.217)" fill="#1f1f2f"/>
        <path id="Path_386" data-name="Path 386" d="M544.229,586.635a.346.346,0,0,0,0-.691h-3.284v-1.383h3.284a.346.346,0,0,0,0-.691h-28a.346.346,0,0,0,0,.691h3.284v1.383h-3.284a.346.346,0,0,0,0,.691h3.284v1.383h-3.284a.346.346,0,0,0,0,.691h3.284v1.383h-2.938a.691.691,0,0,0,0,1.383h2.8a.512.512,0,0,0-.032.173v4.839a.518.518,0,1,0,1.037,0v-4.839a.515.515,0,0,0-.032-.173h19.765a.515.515,0,0,0-.032.173v4.839a.518.518,0,1,0,1.037,0v-4.839a.518.518,0,0,0-.032-.173h2.8a.691.691,0,0,0,0-1.383h-2.938v-1.383h3.284a.346.346,0,0,0,0-.691h-3.284v-1.383Zm-24.022-2.074h20.047v1.383H520.206Zm20.047,5.53H520.206v-1.383h20.047Zm0-2.074H520.206v-1.383h20.047Z" transform="translate(-381.132 -434.575)" fill="#3f3d56"/>
        <path id="Path_387" data-name="Path 387" d="M251.019,510.918c0-6.1-4.952-20.59-11.061-20.59S228.9,504.814,228.9,510.918a11.061,11.061,0,0,0,22.121,0Z" transform="translate(-193.339 -373.365)" fill="#2c2c3e"/>
        <path id="Path_388" data-name="Path 388" d="M243.019,510.918c0-6.1-4.952-20.59-11.061-20.59S220.9,504.814,220.9,510.918a11.061,11.061,0,1,0,22.121,0Z" transform="translate(-188.104 -373.365)" fill="#1f1f2f"/>
        <path id="Path_389" data-name="Path 389" d="M253.243,561.81a.346.346,0,0,1-.346-.346V530.654a.346.346,0,1,1,.691,0v30.811A.346.346,0,0,1,253.243,561.81Z" transform="translate(-209.044 -399.527)" fill="#3f3d56"/>
        <path id="Path_390" data-name="Path 390" d="M253.243,536.055a.346.346,0,0,1-.244-.59l4.52-4.52a.346.346,0,0,1,.489.489l-4.52,4.52A.344.344,0,0,1,253.243,536.055Z" transform="translate(-209.044 -399.877)" fill="#3f3d56"/>
        <path id="Path_392" data-name="Path 392" d="M687.019,510.918c0-6.1-4.952-20.59-11.061-20.59S664.9,504.814,664.9,510.918a11.061,11.061,0,0,0,22.121,0Z" transform="translate(-478.639 -373.365)" fill="#2c2c3e"/>
        <path id="Path_393" data-name="Path 393" d="M679.019,510.918c0-6.1-4.952-20.59-11.061-20.59S656.9,504.814,656.9,510.918a11.061,11.061,0,1,0,22.121,0Z" transform="translate(-473.404 -373.365)" fill="#1f1f2f"/>
        <path id="Path_394" data-name="Path 394" d="M689.243,561.81a.346.346,0,0,1-.346-.346V530.654a.346.346,0,0,1,.691,0v30.811A.346.346,0,0,1,689.243,561.81Z" transform="translate(-494.343 -399.527)" fill="#3f3d56"/>
        <path id="Path_395" data-name="Path 395" d="M689.244,536.055a.346.346,0,0,1-.244-.59l4.52-4.52a.346.346,0,0,1,.489.489l-4.52,4.52a.344.344,0,0,1-.245.1Z" transform="translate(-494.344 -399.877)" fill="#3f3d56"/>
        <path id="Path_397" data-name="Path 397" d="M360.044,393.284h-25.05a2.786,2.786,0,0,1-2.6-2.938V275.938a2.786,2.786,0,0,1,2.6-2.938h25.05a2.786,2.786,0,0,1,2.6,2.938V390.346A2.786,2.786,0,0,1,360.044,393.284Z" transform="translate(-261.065 -231.155)" fill="#2c2c3e"/>
        <path id="Path_398" data-name="Path 398" d="M314.678,393.284H286.336a2.941,2.941,0,0,1-2.938-2.938V275.938A2.941,2.941,0,0,1,286.336,273h28.343a2.941,2.941,0,0,1,2.938,2.938V390.346A2.941,2.941,0,0,1,314.678,393.284Z" transform="translate(-229.002 -231.155)" fill="#1f1f2f"/>
        <path id="Path_400" data-name="Path 400" d="M309.829,325.752h-6.567a.865.865,0,0,1-.864-.864V314.864a.865.865,0,0,1,.864-.864h6.567a.865.865,0,0,1,.864.864v10.024a.865.865,0,0,1-.864.864Z" transform="translate(-241.435 -257.984)" fill="#ffe200"/>
        <path id="Path_401" data-name="Path 401" d="M346.829,325.752h-6.567a.865.865,0,0,1-.864-.864V314.864a.865.865,0,0,1,.864-.864h6.567a.865.865,0,0,1,.864.864v10.024a.865.865,0,0,1-.864.864Z" transform="translate(-265.646 -257.984)" fill="#17181f"/>
        <path id="Path_402" data-name="Path 402" d="M309.829,378.752h-6.567a.865.865,0,0,1-.864-.864V367.864a.865.865,0,0,1,.864-.864h6.567a.865.865,0,0,1,.864.864v10.024A.865.865,0,0,1,309.829,378.752Z" transform="translate(-241.435 -292.665)" fill="#ffe200"/>
        <path id="Path_403" data-name="Path 403" d="M346.829,378.752h-6.567a.865.865,0,0,1-.864-.864V367.864a.865.865,0,0,1,.864-.864h6.567a.865.865,0,0,1,.864.864v10.024A.865.865,0,0,1,346.829,378.752Z" transform="translate(-265.646 -292.665)" fill="#17181f"/>
        <path id="Path_404" data-name="Path 404" d="M309.829,431.752h-6.567a.865.865,0,0,1-.864-.864V420.864a.865.865,0,0,1,.864-.864h6.567a.865.865,0,0,1,.864.864v10.024A.865.865,0,0,1,309.829,431.752Z" transform="translate(-241.435 -327.346)" fill="#17181f"/>
        <path id="Path_405" data-name="Path 405" d="M346.829,431.752h-6.567a.865.865,0,0,1-.864-.864V420.864a.865.865,0,0,1,.864-.864h6.567a.865.865,0,0,1,.864.864v10.024A.865.865,0,0,1,346.829,431.752Z" transform="translate(-265.646 -327.346)" fill="#ffe200"/>
        <path id="Path_406" data-name="Path 406" d="M309.829,484.752h-6.567a.865.865,0,0,1-.864-.864V473.864a.865.865,0,0,1,.864-.864h6.567a.865.865,0,0,1,.864.864v10.024A.865.865,0,0,1,309.829,484.752Z" transform="translate(-241.435 -362.026)" fill="#ffe200"/>
        <path id="Path_407" data-name="Path 407" d="M346.829,484.752h-6.567a.865.865,0,0,1-.864-.864V473.864a.865.865,0,0,1,.864-.864h6.567a.865.865,0,0,1,.864.864v10.024A.865.865,0,0,1,346.829,484.752Z" transform="translate(-265.646 -362.026)" fill="#17181f"/>
        <path id="Path_409" data-name="Path 409" d="M359.214,543.941H341.7c-1.272,0-2.3-.591-2.3-1.319v-15.3c0-.728,1.032-1.318,2.3-1.319h17.512c1.272,0,2.3.591,2.3,1.319v15.3C361.517,543.35,360.486,543.94,359.214,543.941Z" transform="translate(-279.126 -389.822)" fill="#ffe200"/>
        <path id="Path_410" data-name="Path 410" d="M759.483,431.369h-5.53a1.557,1.557,0,0,1-1.555-1.555v-7.259A1.557,1.557,0,0,1,753.953,421h5.53a1.557,1.557,0,0,1,1.555,1.555v7.259A1.557,1.557,0,0,1,759.483,431.369Z" transform="translate(-535.895 -328)" fill="#2c2c3e"/>
        <path id="Path_411" data-name="Path 411" d="M845.29,506.833H820.017a2.8,2.8,0,0,1-2.62-2.938V448.938a2.8,2.8,0,0,1,2.62-2.938H845.29a2.8,2.8,0,0,1,2.62,2.938V503.9A2.8,2.8,0,0,1,845.29,506.833Z" transform="translate(-578.428 -344.359)" fill="#2c2c3e"/>
        <path id="Path_412" data-name="Path 412" d="M760.417,506.833H711.336A2.941,2.941,0,0,1,708.4,503.9V448.938A2.941,2.941,0,0,1,711.336,446h49.081a2.941,2.941,0,0,1,2.938,2.938V503.9A2.941,2.941,0,0,1,760.417,506.833Z" transform="translate(-507.103 -344.359)" fill="#1f1f2f"/>
        <path id="Path_413" data-name="Path 413" d="M744.483,431.369h-5.53a1.557,1.557,0,0,1-1.555-1.555v-7.259A1.557,1.557,0,0,1,738.953,421h5.53a1.557,1.557,0,0,1,1.555,1.555v7.259A1.557,1.557,0,0,1,744.483,431.369Z" transform="translate(-526.08 -328)" fill="#1f1f2f"/>
        <path id="Path_414" data-name="Path 414" d="M764.829,502.252h-6.567a.865.865,0,0,1-.864-.864V491.364a.865.865,0,0,1,.864-.864h6.567a.865.865,0,0,1,.864.864v10.024a.865.865,0,0,1-.864.864Z" transform="translate(-538.659 -377.077)" fill="#ffe200"/>
        <path id="Path_578" data-name="Path 578" d="M764.829,502.252h-6.567a.865.865,0,0,1-.864-.864V491.364a.865.865,0,0,1,.864-.864h6.567a.865.865,0,0,1,.864.864v10.024a.865.865,0,0,1-.864.864Z" transform="translate(-550.725 -377.077)" fill="#17181f"/>
        <path id="Path_415" data-name="Path 415" d="M801.829,502.252h-6.567a.865.865,0,0,1-.864-.864V491.364a.865.865,0,0,1,.864-.864h6.567a.865.865,0,0,1,.864.864v10.024a.865.865,0,0,1-.864.864Z" transform="translate(-563.378 -377.077)" fill="#17181f"/>
        <path id="Path_579" data-name="Path 579" d="M801.829,502.252h-6.567a.865.865,0,0,1-.864-.864V491.364a.865.865,0,0,1,.864-.864h6.567a.865.865,0,0,1,.864.864v10.024a.865.865,0,0,1-.864.864Z" transform="translate(-550.589 -377.077)" fill="#17181f"/>
        <path id="Path_416" data-name="Path 416" d="M776.131,562.278H759.576c-1.2,0-2.177-.618-2.178-1.381V544.881c0-.762.976-1.38,2.178-1.381h16.555c1.2,0,2.177.619,2.178,1.381V560.9C778.308,561.659,777.333,562.277,776.131,562.278Z" transform="translate(-551.783 -408.159)" fill="#ffe200"/>
        <path id="Path_417" data-name="Path 417" d="M813.568,562.278H796.627c-1.231,0-2.228-.619-2.229-1.381V544.881c0-.762,1-1.38,2.229-1.381h16.941c1.231,0,2.228.619,2.229,1.381V560.9c0,.762-1,1.38-2.229,1.381Z" transform="translate(-563.378 -408.159)" fill="#ffe200"/>
        <path id="Path_418" data-name="Path 418" d="M358.475,621.191H76.372a.356.356,0,0,1,0-.691h282.1a.356.356,0,0,1,0,.691Z" transform="translate(-76.102 -458.544)" fill="#1f1f2f"/>
        <path id="Path_422" data-name="Path 422" d="M450.019,510.918c0-6.1-4.952-20.59-11.061-20.59S427.9,504.814,427.9,510.918a11.061,11.061,0,0,0,22.121,0Z" transform="translate(-323.556 -373.365)" fill="#2c2c3e"/>
        <path id="Path_423" data-name="Path 423" d="M442.019,510.918c0-6.1-4.952-20.59-11.061-20.59S419.9,504.814,419.9,510.918a11.061,11.061,0,0,0,22.121,0Z" transform="translate(-318.321 -373.365)" fill="#1f1f2f"/>
        <path id="Path_424" data-name="Path 424" d="M452.243,561.81a.346.346,0,0,1-.346-.346V530.654a.346.346,0,1,1,.691,0v30.811A.346.346,0,0,1,452.243,561.81Z" transform="translate(-339.261 -399.527)" fill="#3f3d56"/>
        <path id="Path_425" data-name="Path 425" d="M452.243,536.055a.346.346,0,0,1-.244-.59l4.52-4.52a.346.346,0,0,1,.489.489l-4.52,4.52A.344.344,0,0,1,452.243,536.055Z" transform="translate(-339.261 -399.877)" fill="#3f3d56"/>
        <path id="Path_431" data-name="Path 431" d="M845.054,571.675a.588.588,0,0,1,.384.815l1.5,1.449-1.059.237-1.265-1.413a.591.591,0,0,1,.437-1.089Z" transform="translate(-596.038 -426.582)" fill="#ffb8b8"/>
        <path id="Path_432" data-name="Path 432" d="M848.911,574.9l-1.854-1.739a.263.263,0,0,1-.007-.377l.379-.383a.263.263,0,0,1,.347-.024l1.554,1.187.969-2.351a.734.734,0,0,1,1-.379h0a.729.729,0,0,1,.4.778,8.6,8.6,0,0,1-1.861,3.23.637.637,0,0,1-.929.058Z" transform="translate(-597.782 -425.999)" fill="#5d5dff"/>
        <path id="Path_433" data-name="Path 433" d="M846.945,573.7l-1.365-1.98a.117.117,0,0,1,.03-.163l.055-.038a.117.117,0,0,1,.162.03l1.365,1.98a.117.117,0,0,1-.03.163l-.055.038a.117.117,0,0,1-.163-.03Z" transform="translate(-596.856 -426.478)" fill="#fff"/>
        <path id="Path_434" data-name="Path 434" d="M846.212,573.8l-1.133-1.643a.322.322,0,0,1,.082-.447l.115-.08,1.5,2.172-.115.08h0a.322.322,0,0,1-.447-.082Z" transform="translate(-596.505 -426.564)" fill="#3f3d56"/>
        <path id="Path_435" data-name="Path 435" d="M771.411,389.344l-.712-.082.094-2.77.934.108Z" transform="translate(-521.567 -227.929)" fill="#ffb8b8"/>
        <path id="Path_436" data-name="Path 436" d="M844.811,618.928l-2.294-.265,0-.029a.9.9,0,0,1,1-.79h0l1.4.162Z" transform="translate(-594.865 -456.803)" fill="#2f2e41"/>
        <path id="Path_437" data-name="Path 437" d="M793.241,388.225l-.684.212-1.141-2.539,1.01-.312Z" transform="translate(-535.123 -227.336)" fill="#ffb8b8"/>
        <path id="Path_438" data-name="Path 438" d="M869.627,617.5l-2.207.682-.009-.028a.9.9,0,0,1,.594-1.124h0l1.348-.416Z" transform="translate(-611.129 -455.999)" fill="#2f2e41"/>
        <path id="Path_439" data-name="Path 439" d="M846.173,597.7a.291.291,0,0,1-.195-.355l.429-4.938a1.491,1.491,0,0,1,.207-.637l2.6-4.309,2.323.417.015.006c1.129.692,2.132,4.045,3.1,7.288.151.5.307,1.026.459,1.524a.293.293,0,0,1-.158.378l-.7.3a.291.291,0,0,1-.37-.129l-3.617-6.621a.058.058,0,0,0-.045-.03.056.056,0,0,0-.05.019l-2.1,2.375-.771,4.526,0,.01a.292.292,0,0,1-.345.166l-.757.014h0Z" transform="translate(-597.123 -436.928)" fill="#2f2e41"/>
        <path id="Path_440" data-name="Path 440" d="M853.975,574.8l-.015,0,0-.015c-.011-.036-1.073-3.63-.116-5.921v0c.028-.055.7-1.337,1.471-1.466l.021,0,.252.471a4.156,4.156,0,0,1,.825,3.932c.056.2.809,2.942.4,3.351a.752.752,0,0,1-.511.128A10.32,10.32,0,0,1,853.975,574.8Z" transform="translate(-602.013 -423.791)" fill="#5d5dff"/>
        <circle id="Ellipse_84" data-name="Ellipse 84" cx="1.811" cy="1.811" r="1.811" transform="translate(251.328 139.53)" fill="#2f2e41"/>
        <circle id="Ellipse_85" data-name="Ellipse 85" cx="1.435" cy="1.435" r="1.435" transform="translate(250.984 140.274)" fill="#ffb8b8"/>
        <path id="Path_441" data-name="Path 441" d="M853.859,559.322c-.131.046-.292.087-.395-.009a.349.349,0,0,1-.023-.393,1.777,1.777,0,0,0,.179-.377.581.581,0,0,0-.213-.532,1.577,1.577,0,0,0-.52-.262l-1-.357a1.161,1.161,0,0,1-.656-.425.786.786,0,0,1,.313-1.014,1.275,1.275,0,0,1,1.1-.022,5.7,5.7,0,0,0,.588.235c.4.106.86.011,1.213.238a1.12,1.12,0,0,1,.44.977,3.021,3.021,0,0,1-.3,1.081,2.013,2.013,0,0,1-.328.576.678.678,0,0,1-.574.247Z" transform="translate(-600.516 -416.219)" fill="#2f2e41"/>
        <circle id="Ellipse_86" data-name="Ellipse 86" cx="1.169" cy="1.169" r="1.169" transform="translate(253.49 139.297)" fill="#2f2e41"/>
        <path id="Path_442" data-name="Path 442" d="M857.21,563a.117.117,0,1,1,.161.108v.257a.044.044,0,1,1-.088,0v-.257a.116.116,0,0,1-.073-.108Z" transform="translate(-604.48 -420.845)" fill="#fff"/>
        <path id="Path_443" data-name="Path 443" d="M845.654,575.257a.587.587,0,0,1,.644.63l1.914.835-.91.591-1.678-.883a.591.591,0,0,1,.03-1.173Z" transform="translate(-596.567 -428.937)" fill="#ffb8b8"/>
        <path id="Path_444" data-name="Path 444" d="M851.5,574.672l-2.344-.984a.263.263,0,0,1-.138-.35l.221-.491a.263.263,0,0,1,.317-.144l1.87.571.089-2.541a.734.734,0,0,1,.806-.7h0a.729.729,0,0,1,.647.589,8.6,8.6,0,0,1-.618,3.677.637.637,0,0,1-.85.378Z" transform="translate(-599.106 -425.516)" fill="#5d5dff"/>
        <path id="Path_509" data-name="Path 509" d="M650.235,577.087a.644.644,0,0,1-.446-.881l-2.374-5.363,1.358-.342,1.906,5.38a.647.647,0,0,1-.444,1.207Z" transform="translate(-467.199 -425.827)" fill="#a0616a"/>
        <path id="Path_510" data-name="Path 510" d="M647.458,571.216a.289.289,0,0,1-.159-.181l-.415-1.389a.8.8,0,0,1,1.451-.684l.8,1.212a.289.289,0,0,1-.118.421l-1.321.618A.288.288,0,0,1,647.458,571.216Z" transform="translate(-466.801 -424.519)" fill="#5d5dff"/>
        <path id="Path_511" data-name="Path 511" d="M658.842,573.481l-1.456,1.031a.109.109,0,0,1-.128,0l-.394-.3a.108.108,0,0,1-.007-.169l1.12-1a.111.111,0,0,1,.109-.021l.729.261a.11.11,0,0,1,.026.193Z" transform="translate(-473.353 -427.476)" fill="#3f3d56"/>
        <path id="Path_512" data-name="Path 512" d="M659.031,573.524a.039.039,0,0,0-.023-.05l-.657-.235a.039.039,0,0,0-.039.007l-1.011.9-.006.006a.038.038,0,0,0,.009.053l.354.266a.038.038,0,0,0,.046,0l1.312-.929A.039.039,0,0,0,659.031,573.524Z" transform="translate(-473.66 -427.617)" fill="#fff"/>
        <path id="Path_513" data-name="Path 513" d="M571.214,389.262h.735l.35-2.835h-1.085Z" transform="translate(-391.032 -227.887)" fill="#a0616a"/>
        <path id="Path_514" data-name="Path 514" d="M646.774,618.125h1.447a.922.922,0,0,1,.922.922v.03h-2.37Z" transform="translate(-466.78 -456.99)" fill="#2f2e41"/>
        <path id="Path_515" data-name="Path 515" d="M564.1,389.262h.735l.349-2.835H564.1Z" transform="translate(-386.379 -227.887)" fill="#a0616a"/>
        <path id="Path_516" data-name="Path 516" d="M639.663,618.125h1.447a.922.922,0,0,1,.922.922v.03h-2.37Z" transform="translate(-462.127 -456.99)" fill="#2f2e41"/>
        <path id="Path_517" data-name="Path 517" d="M639.537,591.973a.323.323,0,0,1-.08-.208c-.175-1.8.3-11.277,1.4-12.086l.007-.007,3.224-.557h0l.06.06c0,.084.591,8.388-1.028,12.627a.27.27,0,0,1-.251.171h-.644a.27.27,0,0,1-.269-.291l.521-7.936a.09.09,0,0,0-.177-.026l-1.467,8.055a.271.271,0,0,1-.244.212l-.845.063h-.02a.269.269,0,0,1-.19-.078Z" transform="translate(-461.969 -431.464)" fill="#2f2e41"/>
        <circle id="Ellipse_90" data-name="Ellipse 90" cx="1.472" cy="1.472" r="1.472" transform="translate(180.338 139.849)" fill="#a0616a"/>
        <path id="Path_518" data-name="Path 518" d="M641.578,571.48a.349.349,0,0,1-.1-.237l.6-2.815c-.48-2.038.159-2.42.879-2.806l0,0,.3-.814a.254.254,0,0,1,.356-.165l1.535.815a.3.3,0,0,1,.142.179.38.38,0,0,1-.005.247l-.113.307c.293.391.746,1.939.267,2.539l.362,2a.315.315,0,0,1-.225.336l-3.781.485a.228.228,0,0,1-.045,0A.244.244,0,0,1,641.578,571.48Z" transform="translate(-463.314 -421.976)" fill="#5d5dff"/>
        <path id="Path_519" data-name="Path 519" d="M649.378,573.66a.625.625,0,0,0-.067.073l-2.966-.2-.318-.648-1.041.352.452,1.2a.479.479,0,0,0,.485.31l3.372-.256a.629.629,0,1,0,.083-.829Z" transform="translate(-465.61 -427.384)" fill="#a0616a"/>
        <path id="Path_520" data-name="Path 520" d="M644.97,570.809l-1.293.43a.27.27,0,0,1-.351-.209l-.236-1.338a.749.749,0,0,1,1.423-.469l.612,1.208a.27.27,0,0,1-.156.378Z" transform="translate(-464.345 -424.654)" fill="#5d5dff"/>
        <circle id="Ellipse_91" data-name="Ellipse 91" cx="1.199" cy="1.199" r="1.199" transform="translate(179.784 137.761)" fill="#2f2e41"/>
        <path id="Path_521" data-name="Path 521" d="M649.736,557.316a.627.627,0,0,0,.347-.029.412.412,0,0,0,.206-.311c.223-1.484-1.039-1.362-1.188-1.426a1.635,1.635,0,0,1-.264-.193,1.234,1.234,0,0,0-.69-.152,1.989,1.989,0,0,0-.838.1,1.255,1.255,0,0,0-.557.513,2.594,2.594,0,0,0-.276.715,1.786,1.786,0,0,0-.047.877,1.084,1.084,0,0,0,.984.789.811.811,0,0,1,.428-.889,1.237,1.237,0,0,1,.816-.1,3.6,3.6,0,0,0,.541.067C649.379,557.29,649.593,557.3,649.736,557.316Z" transform="translate(-466.532 -415.812)" fill="#2f2e41"/>
      </g>
      <g id="undraw_through_the_park_lxnl" transform="translate(9.203 34.389)">
        <path id="Path_378" data-name="Path 378" d="M0,118.129Z" transform="translate(180.163 -44.536)" fill="#6c63ff"/>
        <circle id="Ellipse_64" data-name="Ellipse 64" cx="8.251" cy="8.251" r="8.251" transform="translate(84.605 102.223)" fill="#6c63ff"/>
        <path id="Path_347" data-name="Path 347" d="M521.756,446.57a8.251,8.251,0,0,1-13.748,8.732,8.251,8.251,0,1,0,13.748-8.732Z" transform="translate(-422.823 -341.607)" opacity="0.2"/>
        <path id="Path_348" data-name="Path 348" d="M369.322,321.7h.022l.408,23.391h-.861Z" transform="translate(-276.729 -211.231)" fill="#3f3d56"/>
        <rect id="Rectangle_53" data-name="Rectangle 53" width="0.408" height="1.541" transform="translate(93.812 122.854) rotate(62.234)" fill="#3f3d56"/>
        <circle id="Ellipse_65" data-name="Ellipse 65" cx="21.122" cy="21.122" r="21.122" transform="translate(135.685 62.759)" fill="#6c63ff"/>
        <path id="Path_349" data-name="Path 349" d="M703.59,358.887a21.124,21.124,0,0,1-35.2,22.355,21.124,21.124,0,1,0,35.2-22.355Z" transform="translate(-531.152 -289.114)" opacity="0.2"/>
        <path id="Path_350" data-name="Path 350" d="M558.378,255.443h.058l1.045,59.885h-2.205Z" transform="translate(-400.496 -171.562)" fill="#3f3d56"/>
        <rect id="Rectangle_54" data-name="Rectangle 54" width="1.045" height="3.946" transform="translate(160.932 115.577) rotate(62.234)" fill="#3f3d56"/>
        <path id="Path_353" data-name="Path 353" d="M552.67,585.52s.217-4.552,4.67-4.023" transform="translate(-451.56 -422.36)" fill="#3f3d56"/>
        <path id="Path_354" data-name="Path 354" d="M769.78,549.993s.217-4.552,4.67-4.023" transform="translate(-629.581 -400.586)" fill="#3f3d56"/>
        <path id="Path_355" data-name="Path 355" d="M568.889,613.911s-.3-3.191-6.35-2.82" transform="translate(-467.779 -451.358)" fill="#3f3d56"/>
        <path id="Path_724" data-name="Path 724" d="M568.889,613.911s-.3-3.191-6.35-2.82" transform="translate(-428.472 -464.078)" fill="#3f3d56"/>
        <path id="Path_357" data-name="Path 357" d="M803.333,568.743s.217-4.552,4.67-4.023" transform="translate(-649.791 -406.044)" fill="#3f3d56"/>
        <path id="Path_358" data-name="Path 358" d="M483.59,593.415s.217-4.552,4.67-4.023" transform="translate(-406.166 -427.086)" fill="#3f3d56"/>
        <circle id="Ellipse_73" data-name="Ellipse 73" cx="2.229" cy="2.229" r="2.229" transform="translate(74.454 157.54)" fill="#6c63ff"/>
        <rect id="Rectangle_62" data-name="Rectangle 62" width="0.629" height="4.404" transform="translate(76.224 163.522)" fill="#3f3d56"/>
        <path id="Path_359" data-name="Path 359" d="M740.174,536.222s.167-3.5,3.589-3.091" transform="translate(-621.415 -395.604)" fill="#3f3d56"/>
        <ellipse id="Ellipse_74" data-name="Ellipse 74" cx="1.713" cy="1.713" rx="1.713" ry="1.713" transform="translate(116.485 133.865)" fill="#6c63ff"/>
        <rect id="Rectangle_63" data-name="Rectangle 63" width="0.483" height="3.384" transform="translate(118.001 138.462)" fill="#3f3d56"/>
        <path id="Path_360" data-name="Path 360" d="M268.731,729.961s.273-5.731,5.88-5.065" transform="translate(-264.341 -508.203)" fill="#3f3d56"/>
        <circle id="Ellipse_75" data-name="Ellipse 75" cx="2.806" cy="2.806" r="2.806" transform="translate(0 210.692)" fill="#6c63ff"/>
        <rect id="Rectangle_64" data-name="Rectangle 64" width="0.792" height="5.545" transform="translate(2.35 218.224)" fill="#3f3d56"/>
        <path id="Path_361" data-name="Path 361" d="M948.678,726.013s.274-5.731,5.88-5.065" transform="translate(-757.425 -510.161)" fill="#3f3d56"/>
        <circle id="Ellipse_76" data-name="Ellipse 76" cx="2.806" cy="2.806" r="2.806" transform="translate(186.863 204.786)" fill="#6c63ff"/>
        <rect id="Rectangle_65" data-name="Rectangle 65" width="0.792" height="5.545" transform="translate(189.212 212.318)" fill="#3f3d56"/>
        <path id="Path_362" data-name="Path 362" d="M891.441,692.46s.273-5.731,5.88-5.065" transform="translate(-723.158 -490.073)" fill="#3f3d56"/>
        <circle id="Ellipse_77" data-name="Ellipse 77" cx="2.806" cy="2.806" r="2.806" transform="translate(163.892 191.321)" fill="#6c63ff"/>
        <rect id="Rectangle_66" data-name="Rectangle 66" width="0.792" height="5.545" transform="translate(166.241 198.852)" fill="#3f3d56"/>
        <path id="Path_363" data-name="Path 363" d="M883.546,742.79s.274-5.731,5.88-5.065" transform="translate(-729.996 -519.063)" fill="#3f3d56"/>
        <circle id="Ellipse_78" data-name="Ellipse 78" cx="2.806" cy="2.806" r="2.806" transform="translate(149.159 212.661)" fill="#6c63ff"/>
        <rect id="Rectangle_67" data-name="Rectangle 67" width="0.792" height="5.545" transform="translate(151.508 220.192)" fill="#3f3d56"/>
        <path id="Path_364" data-name="Path 364" d="M311.6,606.62c14.04-19.126,83.759-32.872,82.773-66.536-1.807-9.307-14.29-11.684-14.29-11.684s-24.255-5.385-8.158-16.87,54.806-8.081,54.806-8.081-15.939.158-22.291,1.358c-14.968,2.829-27.656,8.816-13.449,12.185,12.864,3.711,38.192,14.441,41.462,36.682s-24.268,51.17-39.375,52.946c-14.528,1.226-29.08,2.95-29.08,2.95S297.561,625.746,311.6,606.62Z" transform="translate(-282.929 -375.436)" fill="#1f1f2f"/>
        <path id="Path_368" data-name="Path 368" d="M677.067,301.306l3.646-2.916c-2.832-.312-4,1.232-4.472,2.455a6.21,6.21,0,0,0-4.622.285l7.295,2.648a5.52,5.52,0,0,0-1.847-2.472Z" transform="translate(-476.816 -274.315)" fill="#3f3d56"/>
        <path id="Path_369" data-name="Path 369" d="M508.314,357.557l3.646-2.916c-2.832-.312-4,1.232-4.472,2.455a6.21,6.21,0,0,0-4.622.285l7.295,2.648A5.52,5.52,0,0,0,508.314,357.557Z" transform="translate(-380.518 -333.281)" fill="#3f3d56"/>
        <path id="Path_370" data-name="Path 370" d="M552.722,241.107l3.646-2.916c-2.832-.312-4,1.232-4.472,2.455a6.21,6.21,0,0,0-4.622.285l7.295,2.648A5.52,5.52,0,0,0,552.722,241.107Z" transform="translate(-393.61 -238.15)" fill="#3f3d56"/>
      </g>
      <g id="Group_3" data-name="Group 3" transform="translate(14.859 144.137)">
        <path id="Path_594" data-name="Path 594" d="M470.9,556.877a.791.791,0,0,0-.807-.906l-5.069-5.125-1,1.4,5.3,4.6a.8.8,0,0,0,1.58.034Z" transform="translate(-456.971 -542.911)" fill="#ffb8b8"/>
        <path id="Path_595" data-name="Path 595" d="M456.717,541.721l-.913.912a.333.333,0,0,1-.467,0l-3.535-3.476a1.3,1.3,0,0,1,1.837-1.831l3.081,3.927a.333.333,0,0,1,0,.466Z" transform="translate(-445.574 -530.334)" fill="#6c63ff"/>
        <circle id="Ellipse_98" data-name="Ellipse 98" cx="1.81" cy="1.81" r="1.81" transform="translate(5.176 0.663)" fill="#ffb8b8"/>
        <path id="Path_596" data-name="Path 596" d="M181.031,572.728l.458.778,3.22-1.4-.676-1.149Z" transform="translate(-180.16 -548.191)" fill="#ffb8b8"/>
        <path id="Path_597" data-name="Path 597" d="M390.929,721.765l.9,1.533h0a1.134,1.134,0,0,1-.4,1.552l-.032.019-1.477-2.51Z" transform="translate(-389.92 -697.576)" fill="#2f2e41"/>
        <path id="Path_598" data-name="Path 598" d="M236.851,585.88h.9l.43-3.484h-1.333Z" transform="translate(-230.671 -558.539)" fill="#ffb8b8"/>
        <path id="Path_599" data-name="Path 599" d="M452.482,751.81h1.779a1.134,1.134,0,0,1,1.134,1.134v.037h-2.912Z" transform="translate(-446.532 -724.764)" fill="#2f2e41"/>
        <path id="Path_600" data-name="Path 600" d="M405.278,632.53a.331.331,0,0,1-.267-.135l-.871-1.183a.331.331,0,0,1,.083-.472l3.876-2.589L405.76,622l5,.413.168,5.285a2.656,2.656,0,0,1-1.329,2.389l-4.157,2.4A.33.33,0,0,1,405.278,632.53Z" transform="translate(-402.729 -607.299)" fill="#2f2e41"/>
        <path id="Path_601" data-name="Path 601" d="M450.3,694.307a.332.332,0,0,1-.331-.32l-.183-5.149,2.27-.12-.181,5.186a.331.331,0,0,1-.309.319l-1.243.082Z" transform="translate(-444.093 -667.672)" fill="#2f2e41"/>
        <path id="Path_602" data-name="Path 602" d="M423.448,532.6a13.451,13.451,0,0,1-2.534-.881,1.981,1.981,0,0,1-1.352.435,1.575,1.575,0,0,1-1.085-.7c-.674-.915.685-4.3,1.5-7.425.344-1.316,1.128-2.663,2.459-2.374h0a2.547,2.547,0,0,1,1.922,1.87,4.8,4.8,0,0,1-.075,1.9,2.583,2.583,0,0,0-.069.551,64.071,64.071,0,0,1-.619,6.582C423.579,532.589,423.527,532.6,423.448,532.6Z" transform="translate(-415.597 -516.465)" fill="#6c63ff"/>
        <path id="Path_603" data-name="Path 603" d="M443.1,557.084a.792.792,0,0,0,.069-1.212l.036-7.209-1.7.283.5,7a.8.8,0,0,0,1.094,1.141Z" transform="translate(-436.603 -540.937)" fill="#ffb8b8"/>
        <path id="Path_604" data-name="Path 604" d="M441.4,534.718h-1.829a.333.333,0,0,1-.332-.328l-.045-4.958a1.3,1.3,0,1,1,2.594,0l-.057,4.955A.333.333,0,0,1,441.4,534.718Z" transform="translate(-434.512 -522.362)" fill="#6c63ff"/>
        <path id="Path_605" data-name="Path 605" d="M441.59,471.692a1.836,1.836,0,0,1-1.754-1.469,2.112,2.112,0,0,1,.068-.959,2.575,2.575,0,0,1,3.532-1.617,1.031,1.031,0,0,1,.541.465.48.48,0,0,1-.184.63c-.145.065-.327.033-.456.126-.185.134-.137.419-.055.632s.176.471.038.652a.537.537,0,0,1-.59.1,1.584,1.584,0,0,0-.615-.149.719.719,0,0,0-.572.646,2.1,2.1,0,0,0,.151.91Z" transform="translate(-435.066 -467.418)" fill="#2f2e41"/>
        <path id="Path_606" data-name="Path 606" d="M528.778,611.279a2.136,2.136,0,0,1,2.548,1.888,1.2,1.2,0,0,1-.357.948.879.879,0,0,1-.834.2c-.549-.183-.578-.948-.284-1.356a1.961,1.961,0,0,1,1.815-.582,4.3,4.3,0,0,1,2.1.877,9.424,9.424,0,0,1,2.632,3.7,18.649,18.649,0,0,1,1.4,4.389q.053.286.1.573a.111.111,0,0,0,.137.075.114.114,0,0,0,.075-.137,18.9,18.9,0,0,0-1.417-4.793,9.812,9.812,0,0,0-2.816-4,4.488,4.488,0,0,0-2.263-.907,2.125,2.125,0,0,0-1.948.689,1.153,1.153,0,0,0,.221,1.6,1.006,1.006,0,0,0,.959.019,1.228,1.228,0,0,0,.647-.8,2.039,2.039,0,0,0-.584-1.917,2.455,2.455,0,0,0-1.728-.727,2.175,2.175,0,0,0-.464.055C528.578,611.1,528.64,611.311,528.778,611.279Z" transform="translate(-515.446 -597.356)" fill="#ccc"/>
        <path id="Path_607" data-name="Path 607" d="M582.766,739.685l-.731-1.247.9-.528.731,1.247h0a.522.522,0,1,1-.9.527Z" transform="translate(-563.765 -712.186)" fill="#6c63ff"/>
        <circle id="Ellipse_99" data-name="Ellipse 99" cx="0.642" cy="0.642" r="0.642" transform="translate(15.943 23.622)" fill="#6c63ff"/>
        <path id="Path_608" data-name="Path 608" d="M612.484,739.685l-.73-1.247.9-.528.73,1.247a.522.522,0,0,1-.9.527Z" transform="translate(-590.657 -712.186)" fill="#6c63ff"/>
        <path id="Path_609" data-name="Path 609" d="M565.6,723.178a1.367,1.367,0,0,1,1.365-1.365h4.321a.578.578,0,0,1,.577.577v.492a1.663,1.663,0,0,1-1.661,1.661h-3.237A1.367,1.367,0,0,1,565.6,723.178Z" transform="translate(-548.895 -697.619)" fill="#3f3d56"/>
        <path id="Path_610" data-name="Path 610" d="M576.081,744.51v-1.445h1.044v1.445a.522.522,0,0,1-1.044,0Z" transform="translate(-558.377 -716.85)" fill="#3f3d56"/>
        <path id="Path_611" data-name="Path 611" d="M607.931,744.51v-1.445h1.044v1.445a.522.522,0,0,1-1.044,0Z" transform="translate(-587.197 -716.85)" fill="#3f3d56"/>
        <path id="Path_612" data-name="Path 612" d="M642.541,695.85a.642.642,0,1,1,1,.8l-1.056,1.315-1-.8Z" transform="translate(-617.56 -673.908)" fill="#6c63ff"/>
        <path id="Path_613" data-name="Path 613" d="M624.874,710.95l.846-1.053a1.239,1.239,0,0,1,1.739-.19l.264.212a1.477,1.477,0,0,1,.226,2.074l-.7.868a.464.464,0,0,1-.651.071l-1.657-1.331A.464.464,0,0,1,624.874,710.95Z" transform="translate(-602.437 -686.418)" fill="#3f3d56"/>
        <path id="Path_614" data-name="Path 614" d="M642.666,694.918a.442.442,0,0,1,.689.553l-1.182,1.471-.689-.553Z" transform="translate(-617.56 -673.133)" fill="#3f3d56"/>
        <path id="Path_615" data-name="Path 615" d="M628.456,722.347l1.816,1.458a.642.642,0,1,1-.8,1l-1.816-1.458Z" transform="translate(-605.042 -698.103)" fill="#3f3d56"/>
        <ellipse id="Ellipse_100" data-name="Ellipse 100" cx="0.271" cy="0.151" rx="0.271" ry="0.151" transform="translate(25.001 26.676) rotate(-51.23)" fill="#6c63ff"/>
        <path id="Path_630" data-name="Path 630" d="M451.927,518.261H450.88a.38.38,0,0,1,0-.761h1.046a.38.38,0,0,1,0,.761Z" transform="translate(-444.739 -512.737)" fill="#6c63ff"/>
      </g>
    </g>
    <g id="undraw_gone_shopping_vwmc" transform="translate(161.443 428.96)">
      <path id="Path_667" data-name="Path 667" d="M655.334,406.335l-1.186,2.767-7.275,9.647s-4.982,5.377-2.214,5.693,4.586-4.982,4.586-4.982l8.54-8.461.949-3.874Z" transform="translate(-643.823 -373.797)" fill="#9f616a"/>
      <path id="Path_668" data-name="Path 668" d="M704.475,340.168l-1.146.321s-5.147,13.672-4.672,15.333,2.609,3.716,3.558,3.558S704.475,340.168,704.475,340.168Z" transform="translate(-689.326 -318.858)" fill="#6c63ff"/>
      <path id="Path_669" data-name="Path 669" d="M827.08,747.131s-.5,2.522,1.009,1.513a7.319,7.319,0,0,0,2.3-2.962Z" transform="translate(-795.916 -655.56)" fill="#2f2e41"/>
      <path id="Path_670" data-name="Path 670" d="M665.251,418.916s-16.051,56.615-10.358,58.275,14.075-.158,14-1.265-1.5-23.01-1.5-23.01,8.3,29.1,18.582,22.3,7.986-8.065,7.037-8.54-15.261-23.01-15.182-27.2-.158-17.317-1.9-19.293Z" transform="translate(-652 -384.244)" fill="#2f2e41"/>
      <path id="Path_672" data-name="Path 672" d="M774.824,278.39a3.321,3.321,0,0,1-.412-4.477c-.067.063-.132.128-.195.2a3.321,3.321,0,1,0,4.927,4.455c.063-.069.121-.141.176-.214A3.321,3.321,0,0,1,774.824,278.39Z" transform="translate(-751.378 -263.846)" fill="#2f2e41"/>
      <circle id="Ellipse_115" data-name="Ellipse 115" cx="6.84" cy="6.84" r="6.84" transform="translate(16.295 1.66)" fill="#2f2e41"/>
      <path id="Path_673" data-name="Path 673" d="M667.633,760.936s-1.819,1.819,0,1.819a7.32,7.32,0,0,0,3.558-1.186Z" transform="translate(-662.921 -668.225)" fill="#2f2e41"/>
      <path id="Path_674" data-name="Path 674" d="M742.536,282.648s1.186,4.9.316,5.851a8.784,8.784,0,0,1-2.768,1.66l.316,8.856s3.637-1.265,3.8-1.423,3.4-5.3,3.4-5.3l3.163-3s-4.823-2.293-3.4-6.247S742.536,282.648,742.536,282.648Z" transform="translate(-723.75 -269.878)" fill="#9f616a"/>
      <circle id="Ellipse_116" data-name="Ellipse 116" cx="4.112" cy="4.112" r="4.112" transform="translate(16.994 13.876) rotate(-80.783)" fill="#9f616a"/>
      <path id="Path_675" data-name="Path 675" d="M730.2,343.963s1.819-6.009,2.688-6.8,3-8.223,3-8.223-1.344-1.819-2.451-1.819a4.765,4.765,0,0,0-3.4,1.581,12.648,12.648,0,0,1-2.666,1.667,2.949,2.949,0,0,1-3.992-1.332,1.158,1.158,0,0,1-.064-1.125s-2.926.791-3.084,1.9,0,3.4-.237,3.875-.949,1.186-.633,4.191a30,30,0,0,1-.33,6.8C721.989,347.5,726.081,345.757,730.2,343.963Z" transform="translate(-706.272 -308.025)" fill="#6c63ff"/>
      <ellipse id="Ellipse_117" data-name="Ellipse 117" cx="3.479" cy="2.372" rx="3.479" ry="2.372" transform="translate(18.193 4.428)" fill="#2f2e41"/>
      <circle id="Ellipse_118" data-name="Ellipse 118" cx="3.321" cy="3.321" r="3.321" transform="translate(24.282 0)" fill="#2f2e41"/>
      <path id="Path_676" data-name="Path 676" d="M804.215,233.244a3.32,3.32,0,0,1-3.309-3.044c-.008.091-.012.183-.012.276a3.321,3.321,0,0,0,6.642,0v0c0-.093,0-.185-.012-.277A3.321,3.321,0,0,1,804.215,233.244Z" transform="translate(-774.24 -227.551)" fill="#2f2e41"/>
      <path id="Path_677" data-name="Path 677" d="M489.32,420.53h-1.1l-2.208,19.257,7.282-.244Z" transform="translate(-467.135 -364.046)" fill="#6c63ff"/>
      <path id="Path_678" data-name="Path 678" d="M489.32,420.53h-1.1l-2.208,19.257,7.282-.244Z" transform="translate(-467.135 -364.046)" opacity="0.2" style="isolation: isolate"/>
      <path id="Path_679" data-name="Path 679" d="M496.757,419.08l-1.349,19.381,16.526,1.227,1.349-18.89Z" transform="translate(-474.94 -362.842)" fill="#6c63ff"/>
      <circle id="Ellipse_119" data-name="Ellipse 119" cx="0.246" cy="0.246" r="0.246" transform="translate(27.136 57.71)" opacity="0.2" style="isolation: isolate"/>
      <circle id="Ellipse_120" data-name="Ellipse 120" cx="0.246" cy="0.246" r="0.246" transform="translate(32.287 58.322)" opacity="0.2" style="isolation: isolate"/>
      <path id="Path_680" data-name="Path 680" d="M809.585,531.088h-.122c0-.053.087-5.227-2.885-5.7a1.563,1.563,0,0,0-1.422.394c-1.227,1.217-.719,4.653-.714,4.687l-.12.019c-.022-.144-.521-3.533.75-4.792a1.675,1.675,0,0,1,1.527-.429C809.673,525.755,809.587,531.035,809.585,531.088Z" transform="translate(-776.991 -472.518)" fill="#3f3d56"/>
      <path id="Path_681" data-name="Path 681" d="M802.355,402.142l-.4,4.428.791,13.284s1.819,6.721-.949,6.563-1.74-7.037-1.74-7.037L798.8,403.96Z" transform="translate(-772.499 -370.315)" fill="#9f616a"/>
      <path id="Path_682" data-name="Path 682" d="M794.258,331.315l2.056,1.107s2.767,18.81,1.186,20.629-4.823,2.53-4.981,1.819-.712-15.173-.712-15.173Z" transform="translate(-766.695 -311.507)" fill="#6c63ff"/>
    </g>
  </g>
</svg>
