<svg xmlns="http://www.w3.org/2000/svg" width="285.365" height="252.345" viewBox="0 0 285.365 252.345">
  <g id="Group_1774" data-name="Group 1774" transform="translate(-94.595 -286.509)">
    <g id="Group_4" data-name="Group 4" transform="translate(94.595 260.08)">
      <g id="undraw_city_life_gnpr" transform="translate(0 0)">
        <path id="Path_382" data-name="Path 382" d="M158.31,608.49a5.99,5.99,0,1,1,11.98,0" transform="translate(-147.042 -444.052)" fill="#f2f2f2"/>
        <path id="Path_383" data-name="Path 383" d="M175.173,613.172a.162.162,0,0,1-.162-.162v-3.157a.162.162,0,1,1,.324,0v3.157a.162.162,0,0,1-.162.162Z" transform="translate(-157.915 -448.733)" fill="#ccc"/>
        <path id="Path_384" data-name="Path 384" d="M171.549,612.842a.161.161,0,0,1-.105-.039l-1.943-1.667a.162.162,0,1,1,.211-.246l1.943,1.667a.162.162,0,0,1-.106.285Z" transform="translate(-154.291 -449.488)" fill="#ccc"/>
        <ellipse id="Ellipse_83" data-name="Ellipse 83" cx="10.469" cy="2.443" rx="10.469" ry="2.443" transform="translate(10.077 172.407)" fill="#f2f2f2"/>
        <path id="Path_385" data-name="Path 385" d="M167.649,272.336c2.746-8.574,9.45-15.223,17.4-19.178,9.434-4.692,20.274-5.224,30.517-3.4,11.058,1.971,21.392,6.516,31.4,11.476,9.812,4.865,19.466,10,29.67,14.022a192.065,192.065,0,0,0,63.843,13.224c19.693.657,40.748-1.5,57.61-12.569,15.45-10.142,25.281-26.873,30.4-44.313q.983-3.349,1.748-6.756c.149-.656-.86-.936-1.01-.278-4.13,18.212-12.938,36.212-27.987,47.821-16.276,12.556-37.638,15.459-57.628,15.127a191.137,191.137,0,0,1-64.676-12.481c-10.467-3.985-20.344-9.159-30.346-14.154-9.783-4.886-19.841-9.459-30.6-11.712-9.823-2.058-20.341-2.183-29.812,1.478-7.8,3.015-14.91,8.388-19.071,15.739a30.186,30.186,0,0,0-2.468,5.673C166.433,272.7,167.444,272.976,167.649,272.336Z" transform="translate(-152.447 -197.762)" fill="#f2f2f2"/>
        <path id="Path_386" data-name="Path 386" d="M544.5,586.662a.349.349,0,0,0,0-.7h-3.315v-1.4H544.5a.349.349,0,0,0,0-.7H516.235a.349.349,0,0,0,0,.7h3.315v1.4h-3.315a.349.349,0,0,0,0,.7h3.315v1.4h-3.315a.349.349,0,0,0,0,.7h3.315v1.4h-2.966a.7.7,0,1,0,0,1.4h2.824a.518.518,0,0,0-.032.175v4.886a.523.523,0,1,0,1.047,0v-4.886a.521.521,0,0,0-.032-.175h19.955a.521.521,0,0,0-.032.175v4.886a.523.523,0,1,0,1.047,0v-4.886a.521.521,0,0,0-.032-.175h2.824a.7.7,0,0,0,0-1.4h-2.966v-1.4H544.5a.349.349,0,0,0,0-.7h-3.315v-1.4Zm-24.254-2.094h20.24v1.4h-20.24Zm20.24,5.584h-20.24v-1.4h20.24Zm0-2.094h-20.24v-1.4h20.24Z" transform="translate(-379.834 -431.923)" fill="#3f3d56"/>
        <path id="Path_387" data-name="Path 387" d="M251.232,511.116c0-6.163-5-20.788-11.167-20.788S228.9,504.953,228.9,511.116a11.167,11.167,0,0,0,22.334,0Z" transform="translate(-192.997 -371.025)" fill="#e6e6e6"/>
        <path id="Path_388" data-name="Path 388" d="M243.232,511.116c0-6.163-5-20.788-11.167-20.788S220.9,504.953,220.9,511.116a11.167,11.167,0,0,0,22.334,0Z" transform="translate(-187.789 -371.025)" fill="#f2f2f2"/>
        <path id="Path_389" data-name="Path 389" d="M253.247,562.114a.349.349,0,0,1-.349-.349V530.657a.349.349,0,0,1,.7,0v31.108A.349.349,0,0,1,253.247,562.114Z" transform="translate(-208.621 -397.053)" fill="#ccc"/>
        <path id="Path_390" data-name="Path 390" d="M253.247,536.105a.349.349,0,0,1-.247-.6l4.564-4.564a.349.349,0,0,1,.493.493L253.493,536A.348.348,0,0,1,253.247,536.105Z" transform="translate(-208.622 -397.402)" fill="#ccc"/>
        <path id="Path_392" data-name="Path 392" d="M687.232,511.116c0-6.163-5-20.788-11.167-20.788S664.9,504.953,664.9,511.116a11.167,11.167,0,0,0,22.334,0Z" transform="translate(-476.845 -371.025)" fill="#e6e6e6"/>
        <path id="Path_393" data-name="Path 393" d="M679.232,511.116c0-6.163-5-20.788-11.167-20.788S656.9,504.953,656.9,511.116a11.167,11.167,0,0,0,22.334,0Z" transform="translate(-471.637 -371.025)" fill="#f2f2f2"/>
        <path id="Path_394" data-name="Path 394" d="M689.247,562.114a.349.349,0,0,1-.349-.349V530.657a.349.349,0,0,1,.7,0v31.108A.349.349,0,0,1,689.247,562.114Z" transform="translate(-492.47 -397.053)" fill="#ccc"/>
        <path id="Path_395" data-name="Path 395" d="M689.247,536.105a.349.349,0,0,1-.247-.6l4.564-4.564a.349.349,0,0,1,.493.493L689.494,536a.347.347,0,0,1-.247.1Z" transform="translate(-492.47 -397.402)" fill="#ccc"/>
        <path id="Path_396" data-name="Path 396" d="M346.552,246.053h-5.584a1.572,1.572,0,0,1-1.57-1.57V231.57a1.572,1.572,0,0,1,1.57-1.57h5.584a1.572,1.572,0,0,1,1.57,1.57v12.912A1.572,1.572,0,0,1,346.552,246.053Z" transform="translate(-264.935 -201.544)" fill="#e6e6e6"/>
        <path id="Path_397" data-name="Path 397" d="M360.311,394.442H335.019a2.813,2.813,0,0,1-2.622-2.966V275.966A2.813,2.813,0,0,1,335.019,273h25.291a2.813,2.813,0,0,1,2.622,2.966v115.51A2.813,2.813,0,0,1,360.311,394.442Z" transform="translate(-260.378 -229.538)" fill="#e6e6e6"/>
        <path id="Path_398" data-name="Path 398" d="M314.98,394.442H286.364a2.97,2.97,0,0,1-2.966-2.966V275.966A2.97,2.97,0,0,1,286.364,273H314.98a2.97,2.97,0,0,1,2.966,2.966v115.51A2.97,2.97,0,0,1,314.98,394.442Z" transform="translate(-228.478 -229.538)" fill="#f2f2f2"/>
        <path id="Path_399" data-name="Path 399" d="M331.552,246.053h-5.584a1.572,1.572,0,0,1-1.57-1.57V231.57a1.572,1.572,0,0,1,1.57-1.57h5.584a1.572,1.572,0,0,1,1.57,1.57v12.912A1.572,1.572,0,0,1,331.552,246.053Z" transform="translate(-255.17 -201.544)" fill="#f2f2f2"/>
        <path id="Path_400" data-name="Path 400" d="M309.9,325.865h-6.63a.873.873,0,0,1-.872-.872v-10.12a.873.873,0,0,1,.872-.872h6.63a.873.873,0,0,1,.872.872v10.12A.873.873,0,0,1,309.9,325.865Z" transform="translate(-240.847 -256.23)" fill="#fff"/>
        <path id="Path_401" data-name="Path 401" d="M346.9,325.865H340.27a.873.873,0,0,1-.872-.872v-10.12a.873.873,0,0,1,.872-.872H346.9a.873.873,0,0,1,.872.872v10.12A.873.873,0,0,1,346.9,325.865Z" transform="translate(-264.935 -256.23)" fill="#fff"/>
        <path id="Path_402" data-name="Path 402" d="M309.9,378.865h-6.63a.873.873,0,0,1-.872-.872v-10.12a.873.873,0,0,1,.872-.872h6.63a.873.873,0,0,1,.872.872v10.12A.873.873,0,0,1,309.9,378.865Z" transform="translate(-240.847 -290.735)" fill="#fff"/>
        <path id="Path_403" data-name="Path 403" d="M346.9,378.865H340.27a.873.873,0,0,1-.872-.872v-10.12a.873.873,0,0,1,.872-.872H346.9a.873.873,0,0,1,.872.872v10.12A.873.873,0,0,1,346.9,378.865Z" transform="translate(-264.935 -290.735)" fill="#fff"/>
        <path id="Path_404" data-name="Path 404" d="M309.9,431.865h-6.63a.873.873,0,0,1-.872-.872v-10.12a.873.873,0,0,1,.872-.872h6.63a.873.873,0,0,1,.872.872v10.12A.873.873,0,0,1,309.9,431.865Z" transform="translate(-240.847 -325.239)" fill="#fff"/>
        <path id="Path_405" data-name="Path 405" d="M346.9,431.865H340.27a.873.873,0,0,1-.872-.872v-10.12a.873.873,0,0,1,.872-.872H346.9a.873.873,0,0,1,.872.872v10.12A.873.873,0,0,1,346.9,431.865Z" transform="translate(-264.935 -325.239)" fill="#fff"/>
        <path id="Path_406" data-name="Path 406" d="M309.9,484.865h-6.63a.873.873,0,0,1-.872-.872v-10.12a.873.873,0,0,1,.872-.872h6.63a.873.873,0,0,1,.872.872v10.12A.873.873,0,0,1,309.9,484.865Z" transform="translate(-240.847 -359.744)" fill="#fff"/>
        <path id="Path_407" data-name="Path 407" d="M346.9,484.865H340.27a.873.873,0,0,1-.872-.872v-10.12a.873.873,0,0,1,.872-.872H346.9a.873.873,0,0,1,.872.872v10.12A.873.873,0,0,1,346.9,484.865Z" transform="translate(-264.935 -359.744)" fill="#fff"/>
        <path id="Path_409" data-name="Path 409" d="M359.405,544.113H341.724c-1.284,0-2.325-.6-2.327-1.332v-15.45c0-.735,1.042-1.331,2.326-1.332h17.681c1.284,0,2.325.6,2.326,1.332v15.45C361.73,543.517,360.689,544.113,359.405,544.113Z" transform="translate(-278.546 -387.296)" fill="#fff"/>
        <path id="Path_410" data-name="Path 410" d="M759.552,431.469h-5.584a1.572,1.572,0,0,1-1.57-1.57V422.57a1.572,1.572,0,0,1,1.57-1.57h5.584a1.572,1.572,0,0,1,1.57,1.57V429.9A1.572,1.572,0,0,1,759.552,431.469Z" transform="translate(-533.81 -325.89)" fill="#e6e6e6"/>
        <path id="Path_411" data-name="Path 411" d="M845.558,507.419H820.043a2.823,2.823,0,0,1-2.645-2.966V448.966A2.823,2.823,0,0,1,820.043,446h25.516a2.822,2.822,0,0,1,2.645,2.966v55.487A2.823,2.823,0,0,1,845.558,507.419Z" transform="translate(-576.127 -342.166)" fill="#e6e6e6"/>
        <path id="Path_412" data-name="Path 412" d="M760.918,507.419H711.364a2.97,2.97,0,0,1-2.966-2.966V448.966A2.97,2.97,0,0,1,711.364,446h49.554a2.97,2.97,0,0,1,2.966,2.966v55.487A2.97,2.97,0,0,1,760.918,507.419Z" transform="translate(-505.165 -342.166)" fill="#f2f2f2"/>
        <path id="Path_413" data-name="Path 413" d="M744.552,431.469h-5.584a1.572,1.572,0,0,1-1.57-1.57V422.57a1.572,1.572,0,0,1,1.57-1.57h5.583a1.572,1.572,0,0,1,1.57,1.57V429.9A1.572,1.572,0,0,1,744.552,431.469Z" transform="translate(-524.044 -325.89)" fill="#f2f2f2"/>
        <path id="Path_414" data-name="Path 414" d="M764.9,502.365h-6.63a.873.873,0,0,1-.872-.872v-10.12a.873.873,0,0,1,.872-.872h6.63a.873.873,0,0,1,.872.872v10.12a.874.874,0,0,1-.872.872Z" transform="translate(-536.553 -374.77)" fill="#fff"/>
        <path id="Path_578" data-name="Path 578" d="M764.9,502.365h-6.63a.873.873,0,0,1-.872-.872v-10.12a.873.873,0,0,1,.872-.872h6.63a.873.873,0,0,1,.872.872v10.12a.874.874,0,0,1-.872.872Z" transform="translate(-548.734 -374.77)" fill="#fff"/>
        <path id="Path_415" data-name="Path 415" d="M801.9,502.365h-6.63a.874.874,0,0,1-.872-.872v-10.12a.874.874,0,0,1,.872-.872h6.63a.873.873,0,0,1,.872.872v10.12a.873.873,0,0,1-.872.872Z" transform="translate(-561.153 -374.77)" fill="#fff"/>
        <path id="Path_579" data-name="Path 579" d="M801.9,502.365h-6.63a.874.874,0,0,1-.872-.872v-10.12a.874.874,0,0,1,.872-.872h6.63a.873.873,0,0,1,.872.872v10.12a.873.873,0,0,1-.872.872Z" transform="translate(-548.241 -374.77)" fill="#fff"/>
        <path id="Path_416" data-name="Path 416" d="M776.311,562.458H759.6c-1.214,0-2.2-.624-2.2-1.394v-16.17c0-.77.985-1.393,2.2-1.394h16.714c1.214,0,2.2.625,2.2,1.394v16.17C778.509,561.834,777.525,562.458,776.311,562.458Z" transform="translate(-549.803 -405.641)" fill="#fff"/>
        <path id="Path_417" data-name="Path 417" d="M813.753,562.458h-17.1c-1.242,0-2.249-.624-2.251-1.394v-16.17c0-.77,1.008-1.393,2.251-1.394h17.1c1.242,0,2.249.624,2.251,1.394v16.17c0,.77-1.008,1.393-2.25,1.394Z" transform="translate(-561.153 -405.641)" fill="#fff"/>
        <path id="Path_418" data-name="Path 418" d="M361.195,621.2H76.375a.36.36,0,0,1,0-.7h284.82a.36.36,0,0,1,0,.7Z" transform="translate(-76.102 -455.77)" fill="#e6e6e6"/>
        <path id="Path_422" data-name="Path 422" d="M450.232,511.116c0-6.163-5-20.788-11.167-20.788S427.9,504.953,427.9,511.116a11.167,11.167,0,0,0,22.334,0Z" transform="translate(-322.551 -371.025)" fill="#e6e6e6"/>
        <path id="Path_423" data-name="Path 423" d="M442.232,511.116c0-6.163-5-20.788-11.167-20.788S419.9,504.953,419.9,511.116a11.167,11.167,0,0,0,22.334,0Z" transform="translate(-317.343 -371.025)" fill="#f2f2f2"/>
        <path id="Path_424" data-name="Path 424" d="M452.247,562.114a.349.349,0,0,1-.349-.349V530.657a.349.349,0,0,1,.7,0v31.108A.349.349,0,0,1,452.247,562.114Z" transform="translate(-338.176 -397.053)" fill="#ccc"/>
        <path id="Path_425" data-name="Path 425" d="M452.247,536.105a.349.349,0,0,1-.247-.6l4.564-4.564a.349.349,0,0,1,.494.493L452.493,536A.348.348,0,0,1,452.247,536.105Z" transform="translate(-338.176 -397.402)" fill="#ccc"/>
        <path id="Path_431" data-name="Path 431" d="M845.061,571.675a.593.593,0,0,1,.388.823l1.517,1.463-1.069.24-1.277-1.426a.6.6,0,0,1,.441-1.1Z" transform="translate(-593.647 -423.97)" fill="#ffb8b8"/>
        <path id="Path_432" data-name="Path 432" d="M848.929,574.945l-1.872-1.756a.266.266,0,0,1-.007-.38l.382-.387a.266.266,0,0,1,.35-.024l1.569,1.2.979-2.373a.741.741,0,0,1,1.011-.383h0a.736.736,0,0,1,.405.785,8.682,8.682,0,0,1-1.879,3.261.643.643,0,0,1-.938.059Z" transform="translate(-595.382 -423.391)" fill="#5d5dff"/>
        <path id="Path_433" data-name="Path 433" d="M846.958,573.717l-1.378-2a.118.118,0,0,1,.03-.164l.055-.038a.118.118,0,0,1,.164.03l1.378,2a.118.118,0,0,1-.03.164l-.055.038a.118.118,0,0,1-.164-.03Z" transform="translate(-594.461 -423.867)" fill="#fff"/>
        <path id="Path_434" data-name="Path 434" d="M846.223,573.818l-1.144-1.659a.325.325,0,0,1,.083-.451l.117-.08,1.512,2.193-.117.08h0A.325.325,0,0,1,846.223,573.818Z" transform="translate(-594.111 -423.953)" fill="#3f3d56"/>
        <path id="Path_435" data-name="Path 435" d="M771.417,389.372l-.719-.083.1-2.8.943.109Z" transform="translate(-519.167 -225.188)" fill="#ffb8b8"/>
        <path id="Path_436" data-name="Path 436" d="M844.833,618.939l-2.316-.267,0-.029a.908.908,0,0,1,1.006-.8h0l1.415.163Z" transform="translate(-592.48 -454.038)" fill="#2f2e41"/>
        <path id="Path_437" data-name="Path 437" d="M793.259,388.25l-.691.214-1.152-2.564,1.02-.315Z" transform="translate(-532.654 -224.598)" fill="#ffb8b8"/>
        <path id="Path_438" data-name="Path 438" d="M869.649,617.506l-2.228.688-.009-.028a.908.908,0,0,1,.6-1.135h0l1.361-.42Z" transform="translate(-608.661 -453.238)" fill="#2f2e41"/>
        <path id="Path_439" data-name="Path 439" d="M846.175,597.8a.294.294,0,0,1-.2-.359l.433-4.985a1.505,1.505,0,0,1,.209-.643l2.621-4.35,2.346.421.015.006c1.14.7,2.152,4.084,3.131,7.358.152.509.31,1.036.463,1.539a.3.3,0,0,1-.159.382l-.71.3a.294.294,0,0,1-.373-.13l-3.652-6.685a.059.059,0,0,0-.045-.03.057.057,0,0,0-.051.02l-2.119,2.4-.779,4.57,0,.01a.3.3,0,0,1-.349.168l-.764.014h0Z" transform="translate(-594.727 -434.264)" fill="#2f2e41"/>
        <path id="Path_440" data-name="Path 440" d="M853.98,574.872l-.015,0,0-.015c-.011-.036-1.083-3.665-.117-5.978v0c.028-.055.7-1.35,1.485-1.48l.021,0,.255.476a4.2,4.2,0,0,1,.833,3.97c.056.2.817,2.97.4,3.384a.76.76,0,0,1-.516.13A10.424,10.424,0,0,1,853.98,574.872Z" transform="translate(-599.592 -421.194)" fill="#5d5dff"/>
        <circle id="Ellipse_84" data-name="Ellipse 84" cx="1.829" cy="1.829" r="1.829" transform="translate(253.748 142.088)" fill="#2f2e41"/>
        <circle id="Ellipse_85" data-name="Ellipse 85" cx="1.449" cy="1.449" r="1.449" transform="translate(253.402 142.839)" fill="#ffb8b8"/>
        <path id="Path_441" data-name="Path 441" d="M853.885,559.355c-.132.047-.294.088-.4-.009a.352.352,0,0,1-.023-.4,1.793,1.793,0,0,0,.181-.381.586.586,0,0,0-.215-.537,1.592,1.592,0,0,0-.525-.264l-1.014-.361a1.172,1.172,0,0,1-.662-.429.794.794,0,0,1,.316-1.024,1.288,1.288,0,0,1,1.114-.022,5.745,5.745,0,0,0,.594.238c.406.107.868.011,1.225.24a1.131,1.131,0,0,1,.444.987,3.05,3.05,0,0,1-.3,1.091,2.029,2.029,0,0,1-.331.581.684.684,0,0,1-.579.25Z" transform="translate(-598.102 -413.66)" fill="#2f2e41"/>
        <circle id="Ellipse_86" data-name="Ellipse 86" cx="1.18" cy="1.18" r="1.18" transform="translate(255.931 141.852)" fill="#2f2e41"/>
        <path id="Path_442" data-name="Path 442" d="M857.21,563.006a.118.118,0,1,1,.162.109v.259a.044.044,0,0,1-.089,0v-.259A.118.118,0,0,1,857.21,563.006Z" transform="translate(-602.045 -418.263)" fill="#fff"/>
        <path id="Path_443" data-name="Path 443" d="M845.659,575.257a.593.593,0,0,1,.65.636l1.932.843-.918.6-1.694-.892a.6.6,0,0,1,.03-1.184Z" transform="translate(-594.174 -426.314)" fill="#ffb8b8"/>
        <path id="Path_444" data-name="Path 444" d="M851.526,574.717l-2.367-.993a.265.265,0,0,1-.139-.354l.223-.5a.266.266,0,0,1,.32-.145l1.888.577.09-2.566a.741.741,0,0,1,.814-.711h0a.736.736,0,0,1,.654.594,8.685,8.685,0,0,1-.624,3.712.643.643,0,0,1-.858.382Z" transform="translate(-596.699 -422.91)" fill="#5d5dff"/>
        <path id="Path_509" data-name="Path 509" d="M650.262,577.15a.65.65,0,0,1-.451-.889l-2.4-5.415,1.371-.345,1.925,5.431a.654.654,0,0,1-.449,1.218Z" transform="translate(-465.463 -423.22)" fill="#a0616a"/>
        <path id="Path_510" data-name="Path 510" d="M647.464,571.242a.291.291,0,0,1-.16-.182l-.419-1.4a.81.81,0,0,1,1.465-.691l.81,1.224a.292.292,0,0,1-.12.425l-1.333.624A.291.291,0,0,1,647.464,571.242Z" transform="translate(-465.068 -421.918)" fill="#5d5dff"/>
        <path id="Path_511" data-name="Path 511" d="M658.862,573.485l-1.47,1.041a.11.11,0,0,1-.13,0l-.4-.3a.109.109,0,0,1-.007-.17l1.131-1.009a.112.112,0,0,1,.11-.021l.736.263a.111.111,0,0,1,.026.194Z" transform="translate(-471.586 -424.86)" fill="#3f3d56"/>
        <path id="Path_512" data-name="Path 512" d="M659.047,573.527a.04.04,0,0,0-.023-.051l-.663-.237a.04.04,0,0,0-.039.007l-1.02.91-.006.006a.038.038,0,0,0,.009.053l.357.268a.039.039,0,0,0,.046,0l1.325-.938A.04.04,0,0,0,659.047,573.527Z" transform="translate(-471.892 -425.001)" fill="#fff"/>
        <path id="Path_513" data-name="Path 513" d="M571.214,389.289h.742l.353-2.862h-1.1Z" transform="translate(-389.297 -225.146)" fill="#a0616a"/>
        <path id="Path_514" data-name="Path 514" d="M646.774,618.125h1.461a.931.931,0,0,1,.931.931v.03h-2.392Z" transform="translate(-465.046 -454.224)" fill="#2f2e41"/>
        <path id="Path_515" data-name="Path 515" d="M564.1,389.289h.742l.353-2.862H564.1Z" transform="translate(-384.667 -225.146)" fill="#a0616a"/>
        <path id="Path_516" data-name="Path 516" d="M639.663,618.125h1.461a.931.931,0,0,1,.931.931v.03h-2.392Z" transform="translate(-460.417 -454.224)" fill="#2f2e41"/>
        <path id="Path_517" data-name="Path 517" d="M639.538,592.1a.326.326,0,0,1-.08-.21c-.177-1.82.3-11.385,1.416-12.2l.007-.007,3.255-.562h0l.06.06c0,.084.6,8.469-1.038,12.748a.272.272,0,0,1-.254.173h-.65a.272.272,0,0,1-.272-.294l.526-8.013a.091.091,0,0,0-.179-.027l-1.482,8.133a.274.274,0,0,1-.246.214l-.853.063h-.02a.272.272,0,0,1-.191-.078Z" transform="translate(-460.26 -428.828)" fill="#2f2e41"/>
        <circle id="Ellipse_90" data-name="Ellipse 90" cx="1.486" cy="1.486" r="1.486" transform="translate(182.075 142.41)" fill="#a0616a"/>
        <path id="Path_518" data-name="Path 518" d="M641.579,571.546a.353.353,0,0,1-.1-.239l.607-2.842c-.484-2.058.16-2.444.888-2.833l0,0,.3-.822a.257.257,0,0,1,.359-.166l1.549.823a.307.307,0,0,1,.144.181.384.384,0,0,1-.005.25l-.114.31c.3.4.753,1.958.269,2.563l.365,2.017a.318.318,0,0,1-.227.339l-3.818.49a.227.227,0,0,1-.045,0A.246.246,0,0,1,641.579,571.546Z" transform="translate(-461.598 -419.388)" fill="#5d5dff"/>
        <path id="Path_519" data-name="Path 519" d="M649.421,573.668a.632.632,0,0,0-.067.074l-2.994-.207-.321-.655-1.051.356.456,1.214a.484.484,0,0,0,.49.313l3.4-.258a.635.635,0,1,0,.083-.837Z" transform="translate(-463.882 -424.769)" fill="#a0616a"/>
        <path id="Path_520" data-name="Path 520" d="M644.988,570.83l-1.305.435a.272.272,0,0,1-.354-.211l-.238-1.351a.756.756,0,0,1,1.437-.474l.617,1.22a.272.272,0,0,1-.157.381Z" transform="translate(-462.624 -422.053)" fill="#5d5dff"/>
        <circle id="Ellipse_91" data-name="Ellipse 91" cx="1.21" cy="1.21" r="1.21" transform="translate(181.516 140.302)" fill="#2f2e41"/>
        <path id="Path_521" data-name="Path 521" d="M649.768,557.336a.633.633,0,0,0,.35-.029.416.416,0,0,0,.208-.314c.226-1.5-1.049-1.375-1.2-1.44a1.654,1.654,0,0,1-.266-.194,1.246,1.246,0,0,0-.7-.153,2.008,2.008,0,0,0-.846.1,1.267,1.267,0,0,0-.562.518,2.62,2.62,0,0,0-.279.722,1.8,1.8,0,0,0-.047.885,1.1,1.1,0,0,0,.994.8.819.819,0,0,1,.432-.9,1.248,1.248,0,0,1,.824-.1,3.628,3.628,0,0,0,.547.068C649.407,557.31,649.624,557.321,649.768,557.336Z" transform="translate(-464.8 -413.256)" fill="#2f2e41"/>
      </g>
      <g id="undraw_through_the_park_lxnl" transform="translate(9.292 35.934)">
        <path id="Path_378" data-name="Path 378" d="M0,118.209Z" transform="translate(181.898 -43.908)" fill="#6c63ff"/>
        <circle id="Ellipse_64" data-name="Ellipse 64" cx="8.33" cy="8.33" r="8.33" transform="translate(85.42 103.207)" fill="#6c63ff"/>
        <path id="Path_347" data-name="Path 347" d="M521.889,446.57a8.331,8.331,0,0,1-13.88,8.816,8.331,8.331,0,1,0,13.88-8.816Z" transform="translate(-422.003 -340.597)" opacity="0.2"/>
        <path id="Path_348" data-name="Path 348" d="M369.326,321.7h.023l.412,23.617h-.869Z" transform="translate(-275.842 -210.167)" fill="#3f3d56"/>
        <rect id="Rectangle_53" data-name="Rectangle 53" width="0.412" height="1.556" transform="translate(94.715 124.037) rotate(62.234)" fill="#3f3d56"/>
        <circle id="Ellipse_65" data-name="Ellipse 65" cx="21.326" cy="21.326" r="21.326" transform="translate(136.992 63.364)" fill="#6c63ff"/>
        <path id="Path_349" data-name="Path 349" d="M703.929,358.887a21.327,21.327,0,0,1-35.535,22.57,21.327,21.327,0,1,0,35.535-22.57Z" transform="translate(-529.83 -288.442)" opacity="0.2"/>
        <path id="Path_350" data-name="Path 350" d="M558.388,255.443h.058L559.5,315.9h-2.226Z" transform="translate(-398.986 -170.754)" fill="#3f3d56"/>
        <rect id="Rectangle_54" data-name="Rectangle 54" width="1.055" height="3.984" transform="translate(162.482 116.69) rotate(62.234)" fill="#3f3d56"/>
        <path id="Path_352" data-name="Path 352" d="M403.931,694.483s.276-5.786,5.937-5.113" transform="translate(-353.377 -484.984)" fill="#3f3d56"/>
        <circle id="Ellipse_67" data-name="Ellipse 67" cx="2.833" cy="2.833" r="2.833" transform="translate(46.778 198.326)" fill="#6c63ff"/>
        <rect id="Rectangle_56" data-name="Rectangle 56" width="0.8" height="5.598" transform="translate(48.946 205.93)" fill="#3f3d56"/>
        <path id="Path_353" data-name="Path 353" d="M552.67,585.559s.219-4.6,4.715-4.061" transform="translate(-450.586 -420.827)" fill="#3f3d56"/>
        <circle id="Ellipse_68" data-name="Ellipse 68" cx="2.25" cy="2.25" r="2.25" transform="translate(99.089 155.858)" fill="#6c63ff"/>
        <rect id="Rectangle_57" data-name="Rectangle 57" width="0.635" height="4.446" transform="translate(100.931 161.898)" fill="#3f3d56"/>
        <path id="Path_354" data-name="Path 354" d="M769.779,550.032s.219-4.6,4.715-4.061" transform="translate(-628.23 -399.186)" fill="#3f3d56"/>
        <ellipse id="Ellipse_69" data-name="Ellipse 69" cx="2.25" cy="2.25" rx="2.25" ry="2.25" transform="translate(138.564 141.973)" fill="#6c63ff"/>
        <rect id="Rectangle_58" data-name="Rectangle 58" width="0.635" height="4.446" transform="translate(140.58 148.012)" fill="#3f3d56"/>
        <path id="Path_355" data-name="Path 355" d="M562.539,615.165s.219-4.6,4.715-4.061" transform="translate(-457.038 -438.437)" fill="#3f3d56"/>
        <circle id="Ellipse_70" data-name="Ellipse 70" cx="2.25" cy="2.25" r="2.25" transform="translate(102.506 167.854)" fill="#6c63ff"/>
        <rect id="Rectangle_59" data-name="Rectangle 59" width="0.635" height="4.446" transform="translate(104.356 173.894)" fill="#3f3d56"/>
        <path id="Path_357" data-name="Path 357" d="M803.333,568.783s.219-4.6,4.715-4.061" transform="translate(-648.312 -404.516)" fill="#3f3d56"/>
        <circle id="Ellipse_72" data-name="Ellipse 72" cx="2.25" cy="2.25" r="2.25" transform="translate(152.036 155.393)" fill="#6c63ff"/>
        <rect id="Rectangle_61" data-name="Rectangle 61" width="0.635" height="4.446" transform="translate(154.079 161.432)" fill="#3f3d56"/>
        <path id="Path_358" data-name="Path 358" d="M483.59,593.454s.219-4.6,4.715-4.061" transform="translate(-405.421 -425.523)" fill="#3f3d56"/>
        <circle id="Ellipse_73" data-name="Ellipse 73" cx="2.25" cy="2.25" r="2.25" transform="translate(75.171 159.057)" fill="#6c63ff"/>
        <rect id="Rectangle_62" data-name="Rectangle 62" width="0.635" height="4.446" transform="translate(76.958 165.096)" fill="#3f3d56"/>
        <path id="Path_359" data-name="Path 359" d="M740.173,536.252s.169-3.531,3.623-3.121" transform="translate(-620.271 -394.28)" fill="#3f3d56"/>
        <ellipse id="Ellipse_74" data-name="Ellipse 74" cx="1.729" cy="1.729" rx="1.729" ry="1.729" transform="translate(117.607 135.154)" fill="#6c63ff"/>
        <rect id="Rectangle_63" data-name="Rectangle 63" width="0.488" height="3.417" transform="translate(119.138 139.795)" fill="#3f3d56"/>
        <path id="Path_360" data-name="Path 360" d="M268.731,730.01s.276-5.786,5.937-5.113" transform="translate(-264.299 -506.116)" fill="#3f3d56"/>
        <circle id="Ellipse_75" data-name="Ellipse 75" cx="2.833" cy="2.833" r="2.833" transform="translate(0 212.722)" fill="#6c63ff"/>
        <rect id="Rectangle_64" data-name="Rectangle 64" width="0.8" height="5.598" transform="translate(2.372 220.326)" fill="#3f3d56"/>
        <path id="Path_361" data-name="Path 361" d="M948.678,726.063s.276-5.786,5.937-5.113" transform="translate(-755.583 -508.131)" fill="#3f3d56"/>
        <circle id="Ellipse_76" data-name="Ellipse 76" cx="2.833" cy="2.833" r="2.833" transform="translate(188.662 206.759)" fill="#6c63ff"/>
        <rect id="Rectangle_65" data-name="Rectangle 65" width="0.8" height="5.598" transform="translate(191.035 214.363)" fill="#3f3d56"/>
        <path id="Path_362" data-name="Path 362" d="M891.44,692.509s.276-5.786,5.937-5.113" transform="translate(-721.537 -488.174)" fill="#3f3d56"/>
        <circle id="Ellipse_77" data-name="Ellipse 77" cx="2.833" cy="2.833" r="2.833" transform="translate(165.47 193.163)" fill="#6c63ff"/>
        <rect id="Rectangle_66" data-name="Rectangle 66" width="0.8" height="5.598" transform="translate(167.842 200.767)" fill="#3f3d56"/>
        <path id="Path_363" data-name="Path 363" d="M883.546,742.839s.276-5.786,5.937-5.113" transform="translate(-728.517 -516.958)" fill="#3f3d56"/>
        <circle id="Ellipse_78" data-name="Ellipse 78" cx="2.833" cy="2.833" r="2.833" transform="translate(150.595 214.709)" fill="#6c63ff"/>
        <rect id="Rectangle_67" data-name="Rectangle 67" width="0.8" height="5.598" transform="translate(152.968 222.313)" fill="#3f3d56"/>
        <path id="Path_364" data-name="Path 364" d="M311.619,607.618c14.175-19.31,84.566-33.189,83.571-67.177-1.824-9.4-14.428-11.8-14.428-11.8s-24.489-5.437-8.237-17.033,55.334-8.159,55.334-8.159-16.093.159-22.505,1.371c-15.112,2.857-27.923,8.9-13.578,12.3,12.988,3.747,38.56,14.58,41.861,37.035s-24.5,51.663-39.755,53.456c-14.668,1.238-29.36,2.979-29.36,2.979S297.444,626.928,311.619,607.618Z" transform="translate(-282.672 -374.208)" fill="#f2f2f2"/>
        <path id="Path_368" data-name="Path 368" d="M677.119,301.334l3.681-2.944c-2.86-.315-4.035,1.244-4.515,2.479a6.27,6.27,0,0,0-4.666.288l7.365,2.674a5.574,5.574,0,0,0-1.865-2.5Z" transform="translate(-474.94 -274.084)" fill="#3f3d56"/>
        <path id="Path_369" data-name="Path 369" d="M508.366,357.585l3.681-2.944c-2.86-.316-4.035,1.244-4.515,2.478a6.27,6.27,0,0,0-4.666.288l7.365,2.674A5.573,5.573,0,0,0,508.366,357.585Z" transform="translate(-379.34 -333.076)" fill="#3f3d56"/>
        <path id="Path_370" data-name="Path 370" d="M552.775,241.136l3.681-2.944c-2.86-.315-4.035,1.244-4.516,2.478a6.27,6.27,0,0,0-4.666.288l7.365,2.674A5.573,5.573,0,0,0,552.775,241.136Z" transform="translate(-392.13 -238.15)" fill="#3f3d56"/>
      </g>
      <g id="Group_3" data-name="Group 3" transform="translate(15.002 146.739)">
        <path id="Path_594" data-name="Path 594" d="M470.961,556.935a.8.8,0,0,0-.815-.915l-5.118-5.175-1.011,1.413,5.349,4.642a.8.8,0,0,0,1.6.034Z" transform="translate(-456.903 -542.835)" fill="#ffb8b8"/>
        <path id="Path_595" data-name="Path 595" d="M456.768,541.767l-.922.921a.336.336,0,0,1-.471,0L451.8,539.18a1.309,1.309,0,1,1,1.855-1.848l3.111,3.964a.336.336,0,0,1,0,.471Z" transform="translate(-445.517 -530.271)" fill="#6c63ff"/>
        <circle id="Ellipse_98" data-name="Ellipse 98" cx="1.827" cy="1.827" r="1.827" transform="translate(5.226 0.669)" fill="#ffb8b8"/>
        <path id="Path_596" data-name="Path 596" d="M181.031,572.745l.463.786,3.251-1.41-.683-1.16Z" transform="translate(-180.151 -547.972)" fill="#ffb8b8"/>
        <path id="Path_597" data-name="Path 597" d="M390.939,721.765l.911,1.548h0a1.145,1.145,0,0,1-.406,1.567l-.032.019-1.492-2.534Z" transform="translate(-389.92 -697.343)" fill="#2f2e41"/>
        <path id="Path_598" data-name="Path 598" d="M236.851,585.914h.912l.434-3.518h-1.346Z" transform="translate(-230.611 -558.309)" fill="#ffb8b8"/>
        <path id="Path_599" data-name="Path 599" d="M452.482,751.81h1.8a1.144,1.144,0,0,1,1.144,1.145v.037h-2.94Z" transform="translate(-446.475 -724.503)" fill="#2f2e41"/>
        <path id="Path_600" data-name="Path 600" d="M405.289,632.631a.334.334,0,0,1-.27-.136l-.879-1.195a.335.335,0,0,1,.084-.477l3.914-2.614L405.776,622l5.05.417.17,5.336a2.681,2.681,0,0,1-1.342,2.412l-4.2,2.422A.334.334,0,0,1,405.289,632.631Z" transform="translate(-402.716 -607.158)" fill="#2f2e41"/>
        <path id="Path_601" data-name="Path 601" d="M450.305,694.36a.335.335,0,0,1-.334-.323l-.185-5.2,2.292-.121-.182,5.235a.334.334,0,0,1-.312.322l-1.255.083Z" transform="translate(-444.038 -667.47)" fill="#2f2e41"/>
        <path id="Path_602" data-name="Path 602" d="M423.5,532.707a13.579,13.579,0,0,1-2.558-.89,2,2,0,0,1-1.365.44,1.591,1.591,0,0,1-1.1-.7c-.68-.923.692-4.337,1.517-7.5.347-1.329,1.139-2.689,2.483-2.4h0a2.572,2.572,0,0,1,1.941,1.888,4.84,4.84,0,0,1-.076,1.919,2.61,2.61,0,0,0-.07.556,64.689,64.689,0,0,1-.625,6.645C423.63,532.695,423.577,532.707,423.5,532.707Z" transform="translate(-415.571 -516.415)" fill="#6c63ff"/>
        <path id="Path_603" data-name="Path 603" d="M443.117,557.165a.8.8,0,0,0,.07-1.223l.036-7.278-1.714.285.5,7.064a.8.8,0,0,0,1.1,1.152Z" transform="translate(-436.556 -540.862)" fill="#ffb8b8"/>
        <path id="Path_604" data-name="Path 604" d="M441.425,534.782h-1.846a.336.336,0,0,1-.335-.332l-.045-5.005a1.309,1.309,0,1,1,2.619,0l-.058,5A.336.336,0,0,1,441.425,534.782Z" transform="translate(-434.467 -522.307)" fill="#6c63ff"/>
        <path id="Path_605" data-name="Path 605" d="M441.608,471.734a1.854,1.854,0,0,1-1.771-1.483,2.132,2.132,0,0,1,.068-.968,2.6,2.6,0,0,1,3.566-1.633,1.041,1.041,0,0,1,.547.47.485.485,0,0,1-.186.636c-.146.066-.33.033-.46.128-.187.135-.139.423-.055.638s.178.475.038.658a.543.543,0,0,1-.6.1,1.6,1.6,0,0,0-.621-.15.726.726,0,0,0-.577.653,2.123,2.123,0,0,0,.152.919Z" transform="translate(-435.02 -467.418)" fill="#2f2e41"/>
        <path id="Path_606" data-name="Path 606" d="M528.779,611.282a2.156,2.156,0,0,1,2.573,1.906,1.208,1.208,0,0,1-.361.957.887.887,0,0,1-.842.2c-.554-.185-.583-.957-.286-1.369a1.979,1.979,0,0,1,1.832-.587,4.341,4.341,0,0,1,2.125.885,9.515,9.515,0,0,1,2.657,3.734,18.832,18.832,0,0,1,1.41,4.432q.054.288.1.578a.112.112,0,0,0,.138.076.115.115,0,0,0,.076-.138,19.076,19.076,0,0,0-1.431-4.84,9.906,9.906,0,0,0-2.843-4.038,4.533,4.533,0,0,0-2.285-.916,2.145,2.145,0,0,0-1.967.7,1.165,1.165,0,0,0,.223,1.615,1.015,1.015,0,0,0,.968.019,1.239,1.239,0,0,0,.654-.81,2.059,2.059,0,0,0-.59-1.936,2.478,2.478,0,0,0-1.744-.734,2.2,2.2,0,0,0-.469.056C528.577,611.1,528.64,611.314,528.779,611.282Z" transform="translate(-515.319 -597.224)" fill="#ccc"/>
        <path id="Path_607" data-name="Path 607" d="M582.773,739.7l-.738-1.259.909-.533.738,1.259h0a.527.527,0,0,1-.909.533Z" transform="translate(-563.589 -711.938)" fill="#6c63ff"/>
        <circle id="Ellipse_99" data-name="Ellipse 99" cx="0.649" cy="0.649" r="0.649" transform="translate(16.097 23.85)" fill="#6c63ff"/>
        <path id="Path_608" data-name="Path 608" d="M612.491,739.7l-.738-1.259.909-.533.737,1.259a.527.527,0,0,1-.909.533Z" transform="translate(-590.453 -711.938)" fill="#6c63ff"/>
        <path id="Path_609" data-name="Path 609" d="M565.6,723.191a1.38,1.38,0,0,1,1.378-1.378h4.363a.583.583,0,0,1,.582.583v.5a1.679,1.679,0,0,1-1.677,1.677h-3.268A1.38,1.38,0,0,1,565.6,723.191Z" transform="translate(-548.734 -697.386)" fill="#3f3d56"/>
        <path id="Path_610" data-name="Path 610" d="M576.081,744.524v-1.459h1.054v1.459a.527.527,0,0,1-1.054,0Z" transform="translate(-558.206 -716.598)" fill="#3f3d56"/>
        <path id="Path_611" data-name="Path 611" d="M607.93,744.524v-1.459h1.054v1.459a.527.527,0,0,1-1.054,0Z" transform="translate(-586.997 -716.598)" fill="#3f3d56"/>
        <path id="Path_612" data-name="Path 612" d="M642.551,695.852a.649.649,0,1,1,1.011.812l-1.066,1.327-1.011-.812Z" transform="translate(-617.33 -673.699)" fill="#6c63ff"/>
        <path id="Path_613" data-name="Path 613" d="M624.874,710.965l.854-1.063a1.25,1.25,0,0,1,1.756-.192l.267.214a1.491,1.491,0,0,1,.229,2.094l-.7.876a.468.468,0,0,1-.658.072l-1.673-1.343A.468.468,0,0,1,624.874,710.965Z" transform="translate(-602.222 -686.197)" fill="#3f3d56"/>
        <path id="Path_614" data-name="Path 614" d="M642.678,694.919a.446.446,0,0,1,.7.558l-1.193,1.486-.7-.558Z" transform="translate(-617.33 -672.924)" fill="#3f3d56"/>
        <path id="Path_615" data-name="Path 615" d="M628.463,722.347l1.833,1.472a.649.649,0,0,1-.812,1.011l-1.833-1.472Z" transform="translate(-604.825 -697.869)" fill="#3f3d56"/>
        <ellipse id="Ellipse_100" data-name="Ellipse 100" cx="0.274" cy="0.152" rx="0.274" ry="0.152" transform="translate(25.241 26.933) rotate(-51.23)" fill="#6c63ff"/>
        <path id="Path_630" data-name="Path 630" d="M451.94,518.268h-1.056a.384.384,0,0,1,0-.768h1.056a.384.384,0,0,1,0,.768Z" transform="translate(-444.683 -512.691)" fill="#6c63ff"/>
      </g>
    </g>
    <g id="undraw_gone_shopping_vwmc" transform="translate(162.087 429.782)">
      <path id="Path_667" data-name="Path 667" d="M655.445,406.335l-1.2,2.794-7.345,9.74s-5.029,5.429-2.235,5.748,4.63-5.029,4.63-5.029l8.622-8.542.958-3.912Z" transform="translate(-643.823 -373.484)" fill="#9f616a"/>
      <path id="Path_668" data-name="Path 668" d="M704.531,340.168l-1.157.324s-5.2,13.8-4.717,15.48,2.634,3.752,3.592,3.592S704.531,340.168,704.531,340.168Z" transform="translate(-689.236 -318.653)" fill="#6c63ff"/>
      <path id="Path_669" data-name="Path 669" d="M827.08,747.145s-.508,2.546,1.019,1.527a7.39,7.39,0,0,0,2.324-2.99Z" transform="translate(-795.616 -654.692)" fill="#2f2e41"/>
      <path id="Path_670" data-name="Path 670" d="M665.362,418.916s-16.206,57.16-10.458,58.837,14.21-.16,14.13-1.277-1.517-23.231-1.517-23.231,8.383,29.378,18.761,22.513,8.063-8.143,7.105-8.622-15.408-23.231-15.328-27.462-.16-17.483-1.916-19.479Z" transform="translate(-651.984 -383.91)" fill="#2f2e41"/>
      <path id="Path_672" data-name="Path 672" d="M774.839,278.433a3.353,3.353,0,0,1-.417-4.52c-.068.063-.133.129-.2.2a3.353,3.353,0,0,0,4.974,4.5c.063-.07.122-.142.178-.216A3.353,3.353,0,0,1,774.839,278.433Z" transform="translate(-751.166 -263.749)" fill="#2f2e41"/>
      <circle id="Ellipse_115" data-name="Ellipse 115" cx="6.906" cy="6.906" r="6.906" transform="translate(16.452 1.676)" fill="#2f2e41"/>
      <path id="Path_673" data-name="Path 673" d="M667.64,760.936s-1.836,1.836,0,1.836a7.39,7.39,0,0,0,3.592-1.2Z" transform="translate(-662.884 -667.332)" fill="#2f2e41"/>
      <path id="Path_674" data-name="Path 674" d="M742.56,282.663s1.2,4.95.319,5.908a8.869,8.869,0,0,1-2.794,1.676l.319,8.941s3.672-1.277,3.832-1.437,3.433-5.349,3.433-5.349l3.193-3.034s-4.87-2.315-3.433-6.307S742.56,282.663,742.56,282.663Z" transform="translate(-723.593 -269.77)" fill="#9f616a"/>
      <circle id="Ellipse_116" data-name="Ellipse 116" cx="4.151" cy="4.151" r="4.151" transform="translate(17.158 14.01) rotate(-80.783)" fill="#9f616a"/>
      <path id="Path_675" data-name="Path 675" d="M730.305,344.125s1.836-6.067,2.714-6.866,3.034-8.3,3.034-8.3-1.357-1.836-2.475-1.836a4.811,4.811,0,0,0-3.433,1.6,12.774,12.774,0,0,1-2.691,1.683,2.977,2.977,0,0,1-4.03-1.345,1.17,1.17,0,0,1-.064-1.136s-2.954.8-3.113,1.916,0,3.433-.24,3.912-.958,1.2-.639,4.231a30.286,30.286,0,0,1-.333,6.87C722.017,347.693,726.148,345.937,730.305,344.125Z" transform="translate(-706.149 -307.841)" fill="#6c63ff"/>
      <ellipse id="Ellipse_117" data-name="Ellipse 117" cx="3.513" cy="2.395" rx="3.513" ry="2.395" transform="translate(18.368 4.471)" fill="#2f2e41"/>
      <circle id="Ellipse_118" data-name="Ellipse 118" cx="3.353" cy="3.353" r="3.353" transform="translate(24.516 0)" fill="#2f2e41"/>
      <path id="Path_676" data-name="Path 676" d="M804.247,233.273a3.353,3.353,0,0,1-3.34-3.073c-.008.092-.013.185-.013.279a3.353,3.353,0,1,0,6.706,0v0c0-.094,0-.187-.012-.279A3.353,3.353,0,0,1,804.247,233.273Z" transform="translate(-773.983 -227.525)" fill="#2f2e41"/>
      <path id="Path_677" data-name="Path 677" d="M489.352,420.53h-1.115l-2.229,19.442,7.352-.247Z" transform="translate(-466.953 -363.502)" fill="#6c63ff"/>
      <path id="Path_678" data-name="Path 678" d="M489.352,420.53h-1.115l-2.229,19.442,7.352-.247Z" transform="translate(-466.953 -363.502)" opacity="0.2" style="isolation: isolate"/>
      <path id="Path_679" data-name="Path 679" d="M496.77,419.08l-1.362,19.567,16.686,1.239,1.362-19.072Z" transform="translate(-474.742 -362.3)" fill="#6c63ff"/>
      <circle id="Ellipse_119" data-name="Ellipse 119" cx="0.248" cy="0.248" r="0.248" transform="translate(27.397 58.265)" opacity="0.2" style="isolation: isolate"/>
      <circle id="Ellipse_120" data-name="Ellipse 120" cx="0.248" cy="0.248" r="0.248" transform="translate(32.598 58.884)" opacity="0.2" style="isolation: isolate"/>
      <path id="Path_680" data-name="Path 680" d="M809.637,531.144h-.123c0-.053.087-5.277-2.912-5.758a1.578,1.578,0,0,0-1.436.4c-1.239,1.228-.726,4.7-.721,4.732l-.122.019c-.022-.146-.526-3.567.757-4.838a1.691,1.691,0,0,1,1.542-.433C809.726,525.76,809.639,531.091,809.637,531.144Z" transform="translate(-776.728 -472.01)" fill="#3f3d56"/>
      <path id="Path_681" data-name="Path 681" d="M802.389,402.142l-.4,4.471.8,13.412s1.836,6.786-.958,6.626-1.756-7.105-1.756-7.105L798.8,403.978Z" transform="translate(-772.245 -370.009)" fill="#9f616a"/>
      <path id="Path_682" data-name="Path 682" d="M794.282,331.315l2.076,1.118s2.794,18.991,1.2,20.827-4.87,2.555-5.029,1.836-.719-15.319-.719-15.319Z" transform="translate(-766.453 -311.316)" fill="#6c63ff"/>
    </g>
  </g>
</svg>
