<svg xmlns="http://www.w3.org/2000/svg" width="16.742" height="16" viewBox="0 0 16.742 16">
  <g id="Group_1816" data-name="Group 1816" transform="translate(-27.808 -334)">
    <path id="breakfast" d="M18.223,16.262v-.053c-.084-1.044-3.062-1.309-4.644-1.309s-4.56.283-4.644,1.309v.035h0v.018a.657.657,0,0,0,.034.177l.538,2.352a1.724,1.724,0,0,0-1.918.5c-.017.018-.118.318-.118.318a2.28,2.28,0,0,0-1.447-.955H5.956a2.34,2.34,0,0,0-1.195.159,1.2,1.2,0,0,0-.808.92v.053l.017.283a2.878,2.878,0,0,0-1.43.531,1.512,1.512,0,0,0-.656,1.291,1.378,1.378,0,0,0,.454.955,2.789,2.789,0,0,0,1.868.672.977.977,0,0,0,.892.8l.067.018a.781.781,0,0,0,.2.018,1.714,1.714,0,0,0,.421-.053,1.3,1.3,0,0,0,.639,1.167l.067.035a1.385,1.385,0,0,0,.808.3.957.957,0,0,0,.387-.088,1.963,1.963,0,0,0,.2.584l.034.053a.977.977,0,0,0,.875.6,1.768,1.768,0,0,0,.3-.035,2.954,2.954,0,0,0,1.329,1.751,1.478,1.478,0,0,0,.639.159.867.867,0,0,0,.37-.071,1.5,1.5,0,0,0,.892-1.167,3.6,3.6,0,0,0-.084-1.733l.118-.035c.017,0,.034-.018.05-.018a1.083,1.083,0,0,0,.437-.584c.236.018.471.035.724.035,1.565,0,3.13-.442,3.2-1.309V22.505l1.4-6.033C18.193,16.419,18.223,16.244,18.223,16.262Zm-4.644-.849c2.692,0,4.106.566,4.139.831l-.017.071c-.168.265-1.565.778-4.123.778s-3.954-.513-4.123-.778l-.017-.071C9.473,15.979,10.887,15.413,13.579,15.413ZM9.608,17a11.352,11.352,0,0,0,3.971.6A11.352,11.352,0,0,0,17.55,17l-1.228,5.43h0v.053c0,.336-1.077.831-2.709.831a10.671,10.671,0,0,1-1.077-.071,2.245,2.245,0,0,0-1.195-.884l.185-.177.034-.035a1.368,1.368,0,0,0,.168-1.044,3.192,3.192,0,0,0-1.178-1.822c-.017,0-.017-.018-.034-.018s-.017-.018-.034-.018A3.344,3.344,0,0,0,10.062,19ZM2.692,22.47a.921.921,0,0,1-.3-.6,1.035,1.035,0,0,1,.454-.849A2.383,2.383,0,0,1,4,20.577l.118,2.229c0,.071.017.124.017.195A2.368,2.368,0,0,1,2.692,22.47Zm2.574,1.344L5.2,23.8c-.437-.071-.522-.212-.572-1.044l-.151-2.989c.05-.265.337-.424.5-.5a1.871,1.871,0,0,1,.925-.124h.067a1.711,1.711,0,0,1,1.111.743,1.3,1.3,0,0,1,.1.5l-1.06,2.688c-.067.212-.135.407-.185.584a.125.125,0,0,0-.067.035A.969.969,0,0,1,5.266,23.814ZM6.781,25.07l-.067-.035c-.538-.389-.522-.707-.168-1.716l1.464-3.732c.32-.442,1.111-.407,1.733-.141h.017a3.471,3.471,0,0,1,.437.23c.017,0,.017.018.034.018s.017.018.034.018a2.5,2.5,0,0,1,.959,1.486.89.89,0,0,1-.084.637L8.363,24.61C7.605,25.335,7.336,25.459,6.781,25.07Zm5.1,2.423a1.073,1.073,0,0,1-.572.8.861.861,0,0,1-.639-.071A2.488,2.488,0,0,1,9.608,26.8a.06.06,0,0,0,.05-.018l2.137-.743A2.888,2.888,0,0,1,11.879,27.493Zm.32-2.14-2.692.92c-.757.23-.925.212-1.144-.195l-.034-.053a1.094,1.094,0,0,1-.151-.584v-.018c.168-.124.337-.283.522-.442l2.036-2.034a.361.361,0,0,1,.081-.053A.523.523,0,0,1,11,22.859a1.522,1.522,0,0,1,1.178.831l.017.018c0,.018.017.018.017.035a1.812,1.812,0,0,1,.219.955,1.142,1.142,0,0,1-.017.23h0A.528.528,0,0,1,12.2,25.353Zm1.4-.6c-.219,0-.421-.018-.639-.035V24.7a2.637,2.637,0,0,0-.151-.884c.252.018.522.035.791.035a5.407,5.407,0,0,0,2.709-.6V23.9C16.3,24.238,15.228,24.751,13.6,24.751Z" transform="translate(26.127 320.366)" fill="red" stroke="red" stroke-width="0.4"/>
    <rect id="Rectangle_960" data-name="Rectangle 960" width="16" height="16" transform="translate(28 334)" fill="none"/>
  </g>
</svg>
