<?xml version="1.0" encoding="utf-8"?>
<!-- Generator: Adobe Illustrator 22.0.1, SVG Export Plug-In . SVG Version: 6.00 Build 0)  -->
<svg fill="#000000" width="52" height="52" version="1.1" id="lni_lni-pancake" xmlns="http://www.w3.org/2000/svg" xmlns:xlink="http://www.w3.org/1999/xlink" x="0px"
	 y="0px" viewBox="0 0 64 64" style="enable-background:new 0 0 64 64;" xml:space="preserve">
<path d="M59.9,49h-3.5c0.7-1.2,1.1-2.5,1.1-3.9c0-2.3-1-4.3-2.6-5.6c0.2-0.1,0.3-0.3,0.5-0.4c1.4-1.4,2.2-3.3,2.2-5.2
	c0-2.3-1-4.3-2.6-5.6c0.2-0.1,0.3-0.3,0.5-0.4c1.4-1.4,2.2-3.3,2.2-5.2c0-4.1-3.3-7.4-7.4-7.4H36.2c0.3-0.7,0.5-1.5,0.5-2.3
	c0-2.3-1.3-4.3-3.3-5.2c1-1.6,2.5-2.6,4.1-2.9c1-0.2,1.6-1.1,1.4-2c-0.2-1-1-1.6-2-1.4c-3,0.5-5.8,2.8-7.3,5.9
	C27,7.7,25,10.1,25,12.8c0,0.8,0.2,1.6,0.5,2.3H13.9c-2,0-3.8,0.8-5.2,2.2c-1.4,1.4-2.2,3.3-2.2,5.2c0,2.3,1,4.3,2.6,5.6
	c-0.2,0.1-0.3,0.3-0.5,0.4c-1.4,1.4-2.2,3.3-2.2,5.2c0,2.3,1,4.3,2.6,5.6c-0.2,0.1-0.3,0.3-0.5,0.4c-1.4,1.4-2.2,3.3-2.2,5.2
	c0,1.4,0.4,2.8,1.1,3.9H4.1c-1,0-1.8,0.8-1.8,1.8v2.3c0,5.3,4.3,9.7,9.7,9.7H52c5.3,0,9.7-4.3,9.7-9.7v-2.3
	C61.6,49.8,60.8,49,59.9,49z M54,33.8c0,1-0.4,2-1.1,2.8s-1.7,1.1-2.8,1.1h-3.8c0-0.2,0-0.4,0-0.5V30h3.7C52.2,30,54,31.7,54,33.8z
	 M28.5,12.8c0-1.3,1-2.3,2.3-2.3c0,0,0,0,0,0c0,0,0,0,0,0c1.3,0,2.3,1,2.3,2.3c0,1.3-1,2.3-2.3,2.3h-0.1
	C29.5,15.1,28.5,14.1,28.5,12.8z M10,22.6c0-1,0.4-2,1.1-2.8s1.7-1.1,2.8-1.1h16.8c0,0,0.1,0,0.1,0s0.1,0,0.1,0h19.1
	c2.1,0,3.9,1.7,3.9,3.9c0,1-0.4,2-1.1,2.8s-1.7,1.1-2.8,1.1h-5.5c-1,0-1.8,0.8-1.8,1.8v9c0,0.5-0.1,1-0.4,1.5
	c-0.1,0.3-0.3,0.5-0.5,0.7c-0.6,0.6-1.4,0.9-2.3,0.9c-1.2,0-2.3-0.6-2.8-1.7c-0.2-0.4-0.4-0.9-0.4-1.4v-9c0-1-0.8-1.8-1.8-1.8H13.9
	C11.8,26.5,10,24.7,10,22.6z M10,33.8c0-1,0.4-2,1.1-2.8s1.7-1.1,2.8-1.1H33v7.3c0,0.2,0,0.4,0,0.5H13.9C11.8,37.7,10,36,10,33.8z
	 M10,45.1c0-1,0.4-2,1.1-2.8c0.7-0.7,1.7-1.1,2.8-1.1h20.4c1.2,1.6,3.2,2.6,5.3,2.6c1.8,0,3.5-0.7,4.7-1.9c0.2-0.2,0.4-0.5,0.6-0.7
	h5.1c2.1,0,3.9,1.7,3.9,3.9c0,1-0.4,2-1.1,2.8c-0.7,0.7-1.7,1.1-2.7,1.1H13.9C11.8,49,10,47.3,10,45.1z M58.1,53.1
	c0,3.4-2.8,6.2-6.2,6.2H12c-3.4,0-6.2-2.8-6.2-6.2v-0.6h7.9c0,0,0.1,0,0.1,0h36.1c0,0,0.1,0,0.1,0h7.9V53.1z"/>
</svg>
