<?xml version="1.0" encoding="utf-8"?>
<!-- Generator: Adobe Illustrator 22.0.1, SVG Export Plug-In . SVG Version: 6.00 Build 0)  -->
<svg fill="#000000" width="52" height="52" version="1.1" id="lni_lni-cocktail" xmlns="http://www.w3.org/2000/svg" xmlns:xlink="http://www.w3.org/1999/xlink" x="0px"
	 y="0px" viewBox="0 0 64 64" style="enable-background:new 0 0 64 64;" xml:space="preserve">
<path d="M50.5,3.9c-5.3,0-9.7,4.3-9.7,9.7c0,0.3,0,0.6,0,0.9H22.9l-1.7-8.4c-0.6-2.8-3-4.8-5.9-4.8H5.6C4.7,1.3,3.9,2,3.9,3
	s0.8,1.8,1.8,1.8h9.7c1.2,0,2.2,0.8,2.4,2l1.5,7.7H14c-1.3,0-2.4,0.7-2.9,1.9c-0.5,1.1-0.3,2.4,0.5,3.4l16,18.3v21.3h-6
	c-1,0-1.8,0.8-1.8,1.8s0.8,1.8,1.8,1.8h15.4c1,0,1.8-0.8,1.8-1.8s-0.8-1.8-1.8-1.8h-6V37.9l14.2-16.2c1.5,1,3.3,1.5,5.1,1.5
	c5.3,0,9.7-4.3,9.7-9.7S55.8,3.9,50.5,3.9z M21.4,17.9C21.5,17.9,21.5,17.9,21.4,17.9C21.5,17.9,21.5,17.9,21.4,17.9H44L29.4,34.6
	L14.8,17.9H21.4z M50.5,19.7c-1,0-2-0.3-2.9-0.8c0.4-0.8,0.4-1.8,0-2.7c-0.5-1.1-1.6-1.9-2.9-1.9h-0.3c0-0.3-0.1-0.6-0.1-0.9
	c0-3.4,2.8-6.2,6.2-6.2c3.4,0,6.2,2.8,6.2,6.2S53.9,19.7,50.5,19.7z"/>
</svg>
