<svg xmlns="http://www.w3.org/2000/svg" width="18.195" height="24.894" viewBox="0 0 18.195 24.894">
  <g id="_009-user" data-name="009-user" transform="translate(-73.02 -4.757)">
    <g id="Сгруппировать_1883" data-name="Сгруппировать 1883" transform="translate(73.02 4.757)">
      <path id="Контур_400" data-name="Контур 400" d="M83.5,16.485a3.133,3.133,0,0,1-3.146-2.829A6.236,6.236,0,0,0,82.6,10.45c.018.134.033.269.041.4a.562.562,0,0,0,1.005.312,6.961,6.961,0,0,0,1.4-4.5,7,7,0,0,0-1.626-4.345A5.026,5.026,0,0,0,79.646.469c-.072,0-.281,0-.322.007A5.11,5.11,0,0,0,77,0a5.565,5.565,0,0,0-4.248,2.3,8.028,8.028,0,0,0-1.572,5.148,8.086,8.086,0,0,0,.078.91,8.306,8.306,0,0,0,.67,2.328.563.563,0,0,0,.992.059c.069-.112.16-.259.263-.4.037-.05.075-.1.114-.147a6.887,6.887,0,0,0,1.444,2.673,5.146,5.146,0,0,0,.873.776,3.132,3.132,0,0,1-3.146,2.825,3.713,3.713,0,0,0-3.581,3.706v4.14a.562.562,0,0,0,.563.563h17.07a.562.562,0,0,0,.563-.563v-4.14A3.713,3.713,0,0,0,83.5,16.485ZM73.292,8.643c-.018.013-.512.45-.687.647a7.431,7.431,0,0,1-.23-1.081,6.978,6.978,0,0,1-.067-.789,6.9,6.9,0,0,1,1.34-4.427,4.461,4.461,0,0,1,3.391-1.865,4.128,4.128,0,0,1,1.929.426.577.577,0,0,0,.272.058l.387-.017a3.917,3.917,0,0,1,2.935,1.457A5.872,5.872,0,0,1,83.917,6.7a6.144,6.144,0,0,1-.441,2.525,6.52,6.52,0,0,0-.34-.869,6.1,6.1,0,0,0-3.13-3.065.562.562,0,0,0-.746.323,5.316,5.316,0,0,1-.344.748,2.223,2.223,0,0,1-2.049,1.086c-.12,0-.242,0-.362,0a5.385,5.385,0,0,0-1.712.335A5.443,5.443,0,0,0,73.292,8.643Zm.948.693a4.167,4.167,0,0,1,2.3-.766c.1,0,.373,0,.416,0A3.33,3.33,0,0,0,79.9,6.909q.092-.164.174-.334a4.987,4.987,0,0,1,1.795,1.788.56.56,0,0,0-.017.1,6.369,6.369,0,0,1-1.319,3.5,3.331,3.331,0,0,1-2.547,1.346C76.25,13.31,74.713,11.658,74.241,9.336Zm2.432,4.872a3.9,3.9,0,0,0,2.629,0,4.237,4.237,0,0,0,2.144,2.9,3.56,3.56,0,0,1-6.916,0A4.237,4.237,0,0,0,76.672,14.208Zm-6.658,9.561V20.192A2.587,2.587,0,0,1,72.6,17.607a4.288,4.288,0,0,0,.871-.107,4.686,4.686,0,0,0,9.035,0,4.82,4.82,0,0,0,.871.107,2.587,2.587,0,0,1,2.584,2.584v3.578Z" transform="translate(-68.889 0)" fill="#1c3354"/>
    </g>
  </g>
</svg>
