<svg xmlns="http://www.w3.org/2000/svg" width="893.917" height="637.46" viewBox="0 0 893.917 637.46">
  <g id="undraw_drone_delivery_re_in95" transform="translate(0)">
    <path id="Path_1026" data-name="Path 1026" d="M699.72,189.53a21.346,21.346,0,0,0-2.78-2.04v-.01a2.535,2.535,0,0,0-.28-.16,21.244,21.244,0,0,0-3.52-1.72,21.68,21.68,0,0,0-7.79-1.43h-242a22.026,22.026,0,0,0-22,22v475a21.781,21.781,0,0,0,1.01,6.59c.07.23.15.46.23.68.06.18.12.35.19.52a19.122,19.122,0,0,0,1.17,2.56c.21.39.43.77.66,1.15.21.35.43.68.67,1.01q.165.255.36.51a.209.209,0,0,0,.06.08c.21.29.43.58.67.86.37.45.76.89,1.16,1.3.27.29.55.56.83.82a21.934,21.934,0,0,0,14.99,5.92h242a22.011,22.011,0,0,0,22-22v-475a21.94,21.94,0,0,0-7.63-16.64Z" transform="translate(-154.933 -184.17)" fill="#e6e6e6"/>
    <path id="Path_1027" data-name="Path 1027" d="M693.85,435.67h-.03c-.68-.02-1.36,0-2.04,0H656.5a52.212,52.212,0,0,0-5.87,0,7.388,7.388,0,0,0-3.49,1.16,6.545,6.545,0,0,0-2.82,5.34,6.629,6.629,0,0,0,6.65,6.5c1,.02,2.01,0,3.01,0h35.57c3.78,0,8.12.48,10.11-3.65a6.573,6.573,0,0,0-5.81-9.35Z" transform="translate(-154.933 -184.17)" fill="#ccc"/>
    <circle id="Ellipse_201" data-name="Ellipse 201" cx="10" cy="10" r="10" transform="translate(507.381 286.503)" fill="#ccc"/>
    <circle id="Ellipse_202" data-name="Ellipse 202" cx="4" cy="4" r="4" transform="translate(513.381 292.503)" fill="#f2f2f2"/>
    <circle id="Ellipse_203" data-name="Ellipse 203" cx="15" cy="15" r="15" transform="translate(566.067 195.83)" fill="#fff"/>
    <path id="Path_1030" data-name="Path 1030" d="M348.07,657.67c-1.87,13.8-13.06,25.94-26.12,31.83a65.029,65.029,0,0,1-8.65,3.17c-12.97,3.79-26.99,3.95-40.63,4.03q-20.67.135-41.34.26c-10.87.07-22.09.07-32.13-4.1-.15-.06-.3-.12-.44-.19-9.85-4.26-18.26-13.61-18.02-24.32a22,22,0,0,1,3.1-10.68,31.394,31.394,0,0,1,4.58-6c5.47-5.67,13.05-10.11,20.15-13.68,12.92-6.49,27.7-15.11,29.1-29.5.81-8.3-3.23-15.95-8.38-22.78-.51-.69-1.04-1.37-1.58-2.04-1.16-1.45-2.35-2.87-3.54-4.24-.5-.58-1.01-1.17-1.52-1.76-6.75-7.82-13.58-16.41-13.84-26.63-.27-10.69,11.67-21.45,20.71-16.4q6.645-.66,13.3-1.33,8.16-.81,16.3-1.63c1.21-.11,2.41-.23,3.61-.36q16.935-1.68,33.85-3.38c5.02-.5,10.91-.68,14.17,3.17,3.55,4.21,1.71,10.85-1.8,15.09s-8.38,7.23-11.69,11.62c-4.26,5.66-5.26,12.82-4.03,19.85a36.084,36.084,0,0,0,1.58,6,40.19,40.19,0,0,0,5.08,9.78c7.4,10.38,18.36,17.53,28.1,25.75s18.86,18.68,20.2,31.35c.04.37.07.75.09,1.12a29.275,29.275,0,0,1-.21,6Z" transform="translate(-154.933 -184.17)" fill="#e6e6e6"/>
    <path id="Path_1031" data-name="Path 1031" d="M268.887,542.371a143.158,143.158,0,0,1-24.846-32.886,146.017,146.017,0,0,1-14.551-38.37,140.26,140.26,0,0,1-3.009-41.511,145.35,145.35,0,0,1,30.109-77.831q1.6-2.048,3.269-4.033c1.243-1.48,3.356.652,2.121,2.121a140.442,140.442,0,0,0,9.027,190.39c1.377,1.358-.745,3.479-2.121,2.121Z" transform="translate(-154.933 -184.17)" fill="#e6e6e6"/>
    <path id="Path_1032" data-name="Path 1032" d="M255.381,354.319a36.355,36.355,0,0,0,3.563-1.554c.059.09.116.182.174.272Z" transform="translate(-154.933 -184.17)" fill="#e6e6e6"/>
    <path id="Path_1033" data-name="Path 1033" d="M254.059,315.732c4.194-5.255,12.211-7.611,18.011-4.211,3.889,2.28,6.217,6.711,6.658,11.2a24.518,24.518,0,0,1-2.812,13.05,37.9,37.9,0,0,1-16.972,17c-3.6-5.554-6.979-11.4-8.417-17.853C249.067,328.349,249.866,320.986,254.059,315.732Z" transform="translate(-154.933 -184.17)" fill="#e6e6e6"/>
    <path id="Path_1034" data-name="Path 1034" d="M202.29,353.231a61.394,61.394,0,0,1,9.53-50.514c1.06,17.593,19.5,28.8,26.245,45.078a36.638,36.638,0,0,1-2,31.694l-1.014,13.351a61.394,61.394,0,0,1-32.766-39.609Z" transform="translate(-154.933 -184.17)" fill="#e6e6e6"/>
    <path id="Path_1035" data-name="Path 1035" d="M169.635,403.157c9.22,15.022,30.759,16.224,44.38,27.409a36.638,36.638,0,0,1,13.164,28.9l5.392,12.255a60.5,60.5,0,0,1-62.937-68.564Z" transform="translate(-154.933 -184.17)" fill="#e6e6e6"/>
    <path id="Path_1036" data-name="Path 1036" d="M254.542,436.009a60.5,60.5,0,0,1,1.66,93.055l-4.54-12.6a36.638,36.638,0,0,1-10.382-30.012C243.44,468.965,258.216,453.248,254.542,436.009Z" transform="translate(-154.933 -184.17)" fill="#e6e6e6"/>
    <path id="Path_1037" data-name="Path 1037" d="M513.619,242.806a24.2,24.2,0,0,1-.314,3.9q-.132.815-.319,1.611c-.046.195-.093.39-.144.583-.161.622-.349,1.236-.558,1.836a24.144,24.144,0,0,1-11.389,13.336c-.344.188-.695.366-1.048.534q-.673.322-1.368.6-.409.165-.826.314a24.24,24.24,0,0,1-15.357.329c-.246-.076-.488-.156-.729-.241q-.746-.256-1.465-.561c-.322-.137-.639-.278-.951-.429a24.2,24.2,0,0,1-12.464-13.882c-.207-.6-.395-1.214-.556-1.836-.051-.193-.1-.388-.144-.583q-.186-.8-.319-1.611a24.212,24.212,0,0,1,2.4-15.03l.044-.083a23.88,23.88,0,0,1,1.307-2.194l.1-.139a24.2,24.2,0,0,1,9.636-8.268c.314-.149.631-.293.951-.427.466-.2.936-.378,1.416-.544.256-.09.517-.176.778-.258a24.24,24.24,0,0,1,15.357.329c.295.1.587.217.878.334q.669.271,1.316.58.53.252,1.048.531a24.138,24.138,0,0,1,8.563,7.722l.1.139a23.871,23.871,0,0,1,1.307,2.194l.044.083A24.009,24.009,0,0,1,513.619,242.806Z" transform="translate(-80.068 -123.578)" fill="#fff"/>
    <path id="Path_1038" data-name="Path 1038" d="M968.63,771.32c-16.08,7.03-35.19,9.85-53.84,12.53C811.9,798.68,708.68,813.54,603.9,819.23q-37.335,2.04-74.92,2.37c-1.67.01-3.34.02-5.01.02q-8.07.03-16.15-.03c-73.25-.57-146.27-6.93-216.03-21.98-29.69-6.4-59.07-14.5-83.89-27.41-19.63-10.21-36.29-23.74-45.39-39.34a55.949,55.949,0,0,1-5.55-12.79,51.434,51.434,0,0,1-1.93-11.3c-.09-1.38-.12-2.76-.08-4.13a59.37,59.37,0,0,1,1.47-11.97H950.35q6.675,5.8,13.96,11.26c.31.23.63.47.94.71,1.84,1.36,3.72,2.74,5.59,4.13,9.83,7.3,19.57,15,23.44,24.09a21.044,21.044,0,0,1,1.63,6.05C997.36,751.99,984.71,764.28,968.63,771.32Z" transform="translate(-154.933 -184.17)" fill="#f2f2f2"/>
    <path id="Path_1039" data-name="Path 1039" d="M708.35,724.61c0-1.62.09-3.26-.01-4.88a8.071,8.071,0,0,0-7.96-7.56c-1.02-.02-2.04,0-3.06,0H428.89a8.175,8.175,0,0,0-8.54,8.21c-.05,5.83,0,11.66,0,17.49v10.16c0,1.64-.11,3.34.05,4.98a8.044,8.044,0,0,0,7.94,7.16c.32.01.65,0,.97,0h271.1a8.076,8.076,0,0,0,7.94-8.15c.02-2.08,0-4.17,0-6.26Z" transform="translate(-154.933 -184.17)" fill="#fff"/>
    <circle id="Ellipse_204" data-name="Ellipse 204" cx="10" cy="10" r="10" transform="translate(528.921 251.503)" fill="#ccc"/>
    <path id="Path_1040" data-name="Path 1040" d="M942.04,240.308v90.276a5.985,5.985,0,0,0,5.25,6.013c.194.013.388.026.582.026a5.779,5.779,0,0,0,3.905-1.513,5.865,5.865,0,0,0,1.9-4.306V239.636Z" transform="translate(-154.933 -184.17)" fill="#6c63ff"/>
    <path id="Path_1041" data-name="Path 1041" d="M828.04,240.308v90.276a5.985,5.985,0,0,0,5.25,6.013c.194.013.388.026.582.026a5.779,5.779,0,0,0,3.905-1.513,5.866,5.866,0,0,0,1.9-4.306V239.636Z" transform="translate(-154.933 -184.17)" fill="#6c63ff"/>
    <path id="Path_1042" data-name="Path 1042" d="M993.08,332.37a8.65,8.65,0,0,0-7.27-8.49l-6.76-1.11-11.64-1.91-13.73-2.25-11.64-1.92-80.27-13.18a8.764,8.764,0,0,0-3.57.16l-18.52,4.8-7.48,1.93-3.05.79h-.01l-.01.01-1.09.28-11.03,2.85-3.49.9-1.07.27-10.56,2.73-20.23,5.24a8.6,8.6,0,0,0-3.63,1.96v.02a8.567,8.567,0,0,0-2.86,6.41V433.53a8.057,8.057,0,0,0,.28,2.14,8.73,8.73,0,0,0,6.59,6.33l114.91,24.45,11.43,2.43a7.288,7.288,0,0,0,1.47.17,1.941,1.941,0,0,0,.34.02,8.892,8.892,0,0,0,1.15-.08l.01-.01a7.38,7.38,0,0,0,1.45-.32l40.88-12.91,34.18-10.79a8.623,8.623,0,0,0,6.06-8.33Z" transform="translate(-154.933 -184.17)" fill="#fff"/>
    <path id="Path_1043" data-name="Path 1043" d="M985.49,332.42a1.064,1.064,0,0,0-.91-1.05l-.85-.14-4.68-.77-.46-.08h-.01l-.02-.01-11.15-1.82-13.73-2.26-11.64-1.91-81.5-13.39c-.06,0-.11-.01-.18-.01a.746.746,0,0,0-.26.04l-6.74,1.74-7.11,1.84-6.57,1.7-11.64,3.01-1.07.28h-.01l-13.44,3.48-11.63,3-7.67,1.99-4.99,1.29-.02.01-5.65,1.45a1.064,1.064,0,0,0-.8,1.05V433.53a1.078,1.078,0,0,0,.85,1.05l5.12,1.09,110.34,23.48,10.34,2.2h.01l.54.11a1.025,1.025,0,0,0,.55-.02l1.07-.34,30.21-9.54h.01l11.61-3.66,32.17-10.17a1.074,1.074,0,0,0,.76-1.03Z" transform="translate(-154.933 -184.17)" fill="#3f3d56"/>
    <path id="Path_1044" data-name="Path 1044" d="M993.08,332.37a8.65,8.65,0,0,0-7.27-8.49l-6.76-1.11-11.64-1.91-13.73-2.25-11.64-1.92-80.27-13.18a8.764,8.764,0,0,0-3.57.16l-18.52,4.8-7.48,1.93-3.05.79h-.01l-.01.01-1.09.28-11.03,2.85-3.49.9-1.07.27-10.56,2.73-20.23,5.24a8.6,8.6,0,0,0-3.63,1.96v.02a8.567,8.567,0,0,0-2.86,6.41V433.53a8.057,8.057,0,0,0,.28,2.14,8.73,8.73,0,0,0,6.59,6.33l114.91,24.45,11.43,2.43a7.288,7.288,0,0,0,1.47.17,1.941,1.941,0,0,0,.34.02,8.892,8.892,0,0,0,1.15-.08l.01-.01a7.38,7.38,0,0,0,1.45-.32l40.88-12.91,34.18-10.79a8.623,8.623,0,0,0,6.06-8.33ZM987.21,442.9l-33.79,10.67-11.39,3.6-29.89,9.44c-.17.05-.34.09-.5.13a7.2,7.2,0,0,1-2.17.13h-.01c-.2-.03-.41-.07-.62-.11l-11.3-2.4L782.48,439.88a6.543,6.543,0,0,1-4.78-4.21,6.672,6.672,0,0,1-.36-2.14V331.86a6.5,6.5,0,0,1,1.67-4.36h.01v-.01a6.464,6.464,0,0,1,2.58-1.73,4.224,4.224,0,0,1,.6-.2l19.69-5.08,11.63-3.01,1.22-.33h.03l13.27-3.42,5.99-1.55,4.86-1.26.79-.2,19.05-4.93a6.57,6.57,0,0,1,1.63-.21,7.57,7.57,0,0,1,1.06.08l80.62,13.24,11.64,1.91,13.73,2.25,11.64,1.92,6.41,1.05a6.4,6.4,0,0,1,3.31,1.6h.02a6.553,6.553,0,0,1,2.12,4.76l.84,104.27a6.466,6.466,0,0,1-4.54,6.25Z" transform="translate(-154.933 -184.17)" fill="#3f3d56"/>
    <path id="Path_1045" data-name="Path 1045" d="M990.187,329.438a.94.94,0,0,1-.274.123l-36.487,9.864-11.358,3.069-32.306,8.73a1.252,1.252,0,0,1-.282.036,1.766,1.766,0,0,1-.195-.014L779.021,327.5l-.433-.079a1.086,1.086,0,1,1,.39-2.137l2.621.477,127.838,23.309,27.844-7.524,15.575-4.21,35.924-9.712.57-.152a1.088,1.088,0,0,1,1.264.592.842.842,0,0,1,.065.173A1.086,1.086,0,0,1,990.187,329.438Z" transform="translate(-154.933 -184.17)" fill="#3f3d56"/>
    <path id="Path_1046" data-name="Path 1046" d="M910.563,469.32a1.083,1.083,0,0,1-1.083-1.073L908.4,350.186a1.083,1.083,0,0,1,1.073-1.093h.01a1.083,1.083,0,0,1,1.083,1.073l1.083,118.061a1.083,1.083,0,0,1-1.073,1.093Z" transform="translate(-154.933 -184.17)" fill="#3f3d56"/>
    <path id="Path_1047" data-name="Path 1047" d="M953.425,454.957l-11.358,3.069L937.28,341.54,815.125,317.235a2.806,2.806,0,0,1-.354-.087,4.307,4.307,0,0,1-2.325-1.639l16.68-4.318,4.9.975,115.909,23.056a4.309,4.309,0,0,1,2.917,2.108C953.216,337.958,953.418,454.207,953.425,454.957Z" transform="translate(-154.933 -184.17)" fill="#6c63ff"/>
    <path id="Path_1048" data-name="Path 1048" d="M1014.78,216.99c-1.99-.53-4-1.04-5.99-1.54v-9.08a12.784,12.784,0,0,0-3.45-8.8,12.034,12.034,0,0,0-3.42-2.59,8.05,8.05,0,0,0-.89-.41,11.493,11.493,0,0,0-3.71-.86,12.149,12.149,0,0,0-4.05.4,12.689,12.689,0,0,0-2.29.87,12.541,12.541,0,0,0-2.88,2.03c-.19.18-.37.36-.56.56a12.3,12.3,0,0,0-3.32,8.4v3.93a476.478,476.478,0,0,0-187.51,0v-3.53a12.784,12.784,0,0,0-3.45-8.8,11.987,11.987,0,0,0-3.41-2.59,9.165,9.165,0,0,0-.9-.41,11.492,11.492,0,0,0-3.71-.86,12.176,12.176,0,0,0-4.05.4,12.6,12.6,0,0,0-2.28.87,12.383,12.383,0,0,0-2.89,2.03c-.19.18-.37.36-.55.56a12.307,12.307,0,0,0-3.33,8.4v9.48c-1.99.5-3.99,1.01-5.98,1.54l-.48.13v.49a27.721,27.721,0,0,0,2.63,11.82l1.32,2.44a27.786,27.786,0,0,0,23.85,13.54h8.41v90.95a5.977,5.977,0,0,0,5.25,6.01,5.786,5.786,0,0,0,4.48-1.48,5.846,5.846,0,0,0,1.9-4.31V246.09a18.916,18.916,0,0,1,11.95,9.78,34.171,34.171,0,0,0,2.57,4.3,32.374,32.374,0,0,0,26.53,13.69h71.8a33.124,33.124,0,0,0,15.67-3.92,30.854,30.854,0,0,0,11.64-10.78,29.281,29.281,0,0,0,1.63-2.96,18.759,18.759,0,0,1,12.1-10.11v90.27a5.977,5.977,0,0,0,5.25,6.01,5.638,5.638,0,0,0,.58.03,5.806,5.806,0,0,0,3.91-1.51,5.883,5.883,0,0,0,1.9-4.31V245.41h8.4a27.774,27.774,0,0,0,23.85-13.541,27.264,27.264,0,0,0,1.32-2.439,27.726,27.726,0,0,0,2.64-11.82v-.49Z" transform="translate(-154.933 -184.17)" fill="#6c63ff"/>
    <circle id="Ellipse_205" data-name="Ellipse 205" cx="31.036" cy="31.036" r="31.036" transform="translate(701.912 39.906)" fill="#3f3d56"/>
    <circle id="Ellipse_206" data-name="Ellipse 206" cx="16.552" cy="16.552" r="16.552" transform="translate(716.396 54.389)" fill="#6c63ff"/>
    <path id="Path_1049" data-name="Path 1049" d="M1041.77,188.51h-40.74v6.47h47.82A7.127,7.127,0,0,0,1041.77,188.51Z" transform="translate(-154.933 -184.17)" fill="#6c63ff"/>
    <path id="Path_1050" data-name="Path 1050" d="M952.54,188.51a7.144,7.144,0,0,0-7.09,6.47h47.82v-6.47Z" transform="translate(-154.933 -184.17)" fill="#6c63ff"/>
    <path id="Path_1051" data-name="Path 1051" d="M1007.33,194.98a11.11,11.11,0,0,0-3.74-6.47,10.972,10.972,0,0,0-17.89,6.47,10.3,10.3,0,0,0-.19,1.94v.65h21.99v-.65a12.4,12.4,0,0,0-.17-1.94Z" transform="translate(-154.933 -184.17)" fill="#3f3d56"/>
    <path id="Path_1052" data-name="Path 1052" d="M829.69,188.51H788.95v6.47h47.82a7.127,7.127,0,0,0-7.08-6.47Z" transform="translate(-154.933 -184.17)" fill="#6c63ff"/>
    <path id="Path_1053" data-name="Path 1053" d="M740.46,188.51a7.144,7.144,0,0,0-7.09,6.47h47.82v-6.47Z" transform="translate(-154.933 -184.17)" fill="#6c63ff"/>
    <path id="Path_1054" data-name="Path 1054" d="M795.25,194.98a10.983,10.983,0,0,0-21.63,0,10.3,10.3,0,0,0-.18,1.94v.65h21.98v-.65a12.4,12.4,0,0,0-.17-1.94Z" transform="translate(-154.933 -184.17)" fill="#3f3d56"/>
    <path id="Path_1055" data-name="Path 1055" d="M768.315,229.43a965.42,965.42,0,0,1,244.3,0,27.7,27.7,0,0,1-1.319,2.444,960.582,960.582,0,0,0-120.031-7.617h-.026c-2.289,0-4.591,0-6.88.026h-.039a958.673,958.673,0,0,0-114.691,7.591Z" transform="translate(-154.933 -184.17)" fill="#3f3d56"/>
    <path id="Path_1056" data-name="Path 1056" d="M845.651,425.353a1.958,1.958,0,0,1-.428-.048l-40.088-9.052a1.94,1.94,0,0,1,.854-3.785l40.088,9.052a1.94,1.94,0,0,1-.426,3.833Z" transform="translate(-154.933 -184.17)" fill="#6c63ff"/>
    <path id="Path_1057" data-name="Path 1057" d="M835.305,400.783a1.954,1.954,0,0,1-.428-.048l-40.088-9.052a1.94,1.94,0,0,1,.854-3.785l40.088,9.052a1.94,1.94,0,0,1-.426,3.833Z" transform="translate(-154.933 -184.17)" fill="#6c63ff"/>
  </g>
</svg>
