<svg id="undraw_through_the_park_lxnl" xmlns="http://www.w3.org/2000/svg" width="885.87" height="622.805" viewBox="0 0 885.87 622.805">
  <path id="Path_1230" data-name="Path 1230" d="M461.6,348.37H400.416v1.974h9.542v18.75h1.974v-18.75H449.1v18.75h1.974v-18.75H461.6Z" fill="#3f3d56"/>
  <path id="Path_1231" data-name="Path 1231" d="M484.3,300.014h-15.79V315.8h7.32v53.2H477.8V315.8h6.5Z" fill="#3f3d56"/>
  <rect id="Rectangle_126" data-name="Rectangle 126" width="61.185" height="1.974" transform="translate(400.536 342.465)" fill="#3f3d56"/>
  <rect id="Rectangle_127" data-name="Rectangle 127" width="61.185" height="1.974" transform="translate(400.536 337.531)" fill="#3f3d56"/>
  <rect id="Rectangle_128" data-name="Rectangle 128" width="61.185" height="1.974" transform="translate(400.536 332.596)" fill="#3f3d56"/>
  <path id="Path_1232" data-name="Path 1232" d="M775.577,513.38H773.6c0-93.6-76.145-169.74-169.74-169.74s-169.74,76.145-169.74,169.74H432.15c0-94.683,77.031-171.714,171.714-171.714S775.577,418.7,775.577,513.38Z" transform="translate(-157.065 -138.598)" fill="#3f3d56"/>
  <circle id="Ellipse_247" data-name="Ellipse 247" cx="161.352" cy="161.352" r="161.352" transform="translate(0 0)" fill="#6c63ff"/>
  <path id="Path_1233" data-name="Path 1233" d="M438.44,192.179a161.364,161.364,0,0,1-268.86,170.77,161.366,161.366,0,1,0,268.86-170.77Z" transform="translate(-157.065 -138.598)" opacity="0.2"/>
  <path id="Path_1234" data-name="Path 1234" d="M161.795,161.352h.443l7.979,457.459H153.373Z" fill="#3f3d56"/>
  <rect id="Rectangle_129" data-name="Rectangle 129" width="7.979" height="30.143" transform="translate(187.457 403.467) rotate(62.234)" fill="#3f3d56"/>
  <circle id="Ellipse_248" data-name="Ellipse 248" cx="130.593" cy="130.593" r="130.593" transform="translate(624.683 99.213)" fill="#6c63ff"/>
  <path id="Path_1235" data-name="Path 1235" d="M1009.485,281.178A130.6,130.6,0,0,1,791.878,419.394a130.6,130.6,0,1,0,217.607-138.216Z" transform="translate(-157.065 -138.598)" opacity="0.2"/>
  <path id="Path_1236" data-name="Path 1236" d="M755.635,229.806h.359l6.458,370.254H748.819Z" fill="#3f3d56"/>
  <rect id="Rectangle_130" data-name="Rectangle 130" width="6.458" height="24.397" transform="translate(776.405 425.769) rotate(62.234)" fill="#3f3d56"/>
  <circle id="Ellipse_249" data-name="Ellipse 249" cx="20.558" cy="20.558" r="20.558" transform="translate(349.349 301.145)" fill="#6c63ff"/>
  <path id="Path_1237" data-name="Path 1237" d="M542.265,446.57a20.56,20.56,0,0,1-34.256,21.758,20.56,20.56,0,1,0,34.257-21.758Z" transform="translate(-157.065 -138.598)" opacity="0.2"/>
  <path id="Path_1238" data-name="Path 1238" d="M369.964,321.7h.056l1.017,58.286h-2.146Z" fill="#3f3d56"/>
  <rect id="Rectangle_131" data-name="Rectangle 131" width="1.017" height="3.841" transform="translate(373.233 352.553) rotate(62.234)" fill="#3f3d56"/>
  <circle id="Ellipse_250" data-name="Ellipse 250" cx="52.631" cy="52.631" r="52.631" transform="translate(507.247 202.812)" fill="#6c63ff"/>
  <path id="Path_1239" data-name="Path 1239" d="M756.094,358.887a52.636,52.636,0,0,1-87.7,55.7,52.636,52.636,0,1,0,87.7-55.7Z" transform="translate(-157.065 -138.598)" opacity="0.2"/>
  <path id="Path_1240" data-name="Path 1240" d="M560.023,255.443h.144l2.6,149.219h-5.495Z" fill="#3f3d56"/>
  <rect id="Rectangle_132" data-name="Rectangle 132" width="2.603" height="9.832" transform="translate(568.393 334.42) rotate(62.234)" fill="#3f3d56"/>
  <path id="Path_1241" data-name="Path 1241" d="M354.588,734.636s.681-14.28,14.652-12.62" transform="translate(-157.065 -138.598)" fill="#3f3d56"/>
  <circle id="Ellipse_251" data-name="Ellipse 251" cx="6.992" cy="6.992" r="6.992" transform="translate(186.583 568.465)" fill="#6c63ff"/>
  <rect id="Rectangle_133" data-name="Rectangle 133" width="1.974" height="13.816" transform="translate(192.438 587.231)" fill="#3f3d56"/>
  <path id="Path_1242" data-name="Path 1242" d="M403.931,702.069s.681-14.28,14.652-12.62" transform="translate(-157.065 -138.598)" fill="#3f3d56"/>
  <circle id="Ellipse_252" data-name="Ellipse 252" cx="6.992" cy="6.992" r="6.992" transform="translate(235.926 535.898)" fill="#6c63ff"/>
  <rect id="Rectangle_134" data-name="Rectangle 134" width="1.974" height="13.816" transform="translate(241.781 554.665)" fill="#3f3d56"/>
  <path id="Path_1243" data-name="Path 1243" d="M552.67,591.585s.541-11.342,11.637-10.023" transform="translate(-157.065 -138.598)" fill="#3f3d56"/>
  <circle id="Ellipse_253" data-name="Ellipse 253" cx="5.554" cy="5.554" r="5.554" transform="translate(386.916 431.087)" fill="#6c63ff"/>
  <rect id="Rectangle_135" data-name="Rectangle 135" width="1.568" height="10.973" transform="translate(391.566 445.992)" fill="#3f3d56"/>
  <path id="Path_1244" data-name="Path 1244" d="M769.779,556.058s.541-11.342,11.637-10.023" transform="translate(-157.065 -138.598)" fill="#3f3d56"/>
  <circle id="Ellipse_254" data-name="Ellipse 254" cx="5.554" cy="5.554" r="5.554" transform="translate(604.026 395.56)" fill="#6c63ff"/>
  <rect id="Rectangle_136" data-name="Rectangle 136" width="1.568" height="10.973" transform="translate(608.676 410.465)" fill="#3f3d56"/>
  <path id="Path_1245" data-name="Path 1245" d="M562.539,621.19s.541-11.342,11.637-10.023" transform="translate(-157.065 -138.598)" fill="#3f3d56"/>
  <circle id="Ellipse_255" data-name="Ellipse 255" cx="5.554" cy="5.554" r="5.554" transform="translate(396.785 460.693)" fill="#6c63ff"/>
  <rect id="Rectangle_137" data-name="Rectangle 137" width="1.568" height="10.973" transform="translate(401.435 475.598)" fill="#3f3d56"/>
  <path id="Path_1246" data-name="Path 1246" d="M538.854,642.9s.541-11.342,11.637-10.023" transform="translate(-157.065 -138.598)" fill="#3f3d56"/>
  <circle id="Ellipse_256" data-name="Ellipse 256" cx="5.554" cy="5.554" r="5.554" transform="translate(373.1 482.404)" fill="#6c63ff"/>
  <rect id="Rectangle_138" data-name="Rectangle 138" width="1.568" height="10.973" transform="translate(377.75 497.309)" fill="#3f3d56"/>
  <path id="Path_1247" data-name="Path 1247" d="M803.333,574.808s.541-11.342,11.637-10.023" transform="translate(-157.065 -138.598)" fill="#3f3d56"/>
  <circle id="Ellipse_257" data-name="Ellipse 257" cx="5.554" cy="5.554" r="5.554" transform="translate(637.579 414.31)" fill="#6c63ff"/>
  <rect id="Rectangle_139" data-name="Rectangle 139" width="1.568" height="10.973" transform="translate(642.229 429.215)" fill="#3f3d56"/>
  <path id="Path_1248" data-name="Path 1248" d="M483.59,599.479s.541-11.342,11.637-10.023" transform="translate(-157.065 -138.598)" fill="#3f3d56"/>
  <circle id="Ellipse_258" data-name="Ellipse 258" cx="5.554" cy="5.554" r="5.554" transform="translate(317.836 438.982)" fill="#6c63ff"/>
  <rect id="Rectangle_140" data-name="Rectangle 140" width="1.568" height="10.973" transform="translate(322.486 453.887)" fill="#3f3d56"/>
  <path id="Path_1249" data-name="Path 1249" d="M740.174,543.228s.541-11.342,11.637-10.023" transform="translate(-157.065 -138.598)" fill="#3f3d56"/>
  <circle id="Ellipse_259" data-name="Ellipse 259" cx="5.554" cy="5.554" r="5.554" transform="translate(574.42 382.731)" fill="#6c63ff"/>
  <rect id="Rectangle_141" data-name="Rectangle 141" width="1.568" height="10.973" transform="translate(579.07 397.636)" fill="#3f3d56"/>
  <path id="Path_1250" data-name="Path 1250" d="M268.731,737.6s.681-14.28,14.652-12.62" transform="translate(-157.065 -138.598)" fill="#3f3d56"/>
  <circle id="Ellipse_260" data-name="Ellipse 260" cx="6.992" cy="6.992" r="6.992" transform="translate(100.727 571.425)" fill="#6c63ff"/>
  <rect id="Rectangle_142" data-name="Rectangle 142" width="1.974" height="13.816" transform="translate(106.581 590.192)" fill="#3f3d56"/>
  <path id="Path_1251" data-name="Path 1251" d="M948.678,733.649s.682-14.28,14.652-12.62" transform="translate(-157.065 -138.598)" fill="#3f3d56"/>
  <circle id="Ellipse_261" data-name="Ellipse 261" cx="6.992" cy="6.992" r="6.992" transform="translate(780.674 567.478)" fill="#6c63ff"/>
  <rect id="Rectangle_143" data-name="Rectangle 143" width="1.974" height="13.816" transform="translate(786.528 586.244)" fill="#3f3d56"/>
  <path id="Path_1252" data-name="Path 1252" d="M891.44,700.1s.682-14.28,14.652-12.62" transform="translate(-157.065 -138.598)" fill="#3f3d56"/>
  <circle id="Ellipse_262" data-name="Ellipse 262" cx="6.992" cy="6.992" r="6.992" transform="translate(723.436 533.924)" fill="#6c63ff"/>
  <rect id="Rectangle_144" data-name="Rectangle 144" width="1.974" height="13.816" transform="translate(729.29 552.691)" fill="#3f3d56"/>
  <path id="Path_1253" data-name="Path 1253" d="M883.546,750.425s.682-14.28,14.652-12.62" transform="translate(-157.065 -138.598)" fill="#3f3d56"/>
  <circle id="Ellipse_263" data-name="Ellipse 263" cx="6.992" cy="6.992" r="6.992" transform="translate(715.541 584.254)" fill="#6c63ff"/>
  <rect id="Rectangle_145" data-name="Rectangle 145" width="1.974" height="13.816" transform="translate(721.395 603.021)" fill="#3f3d56"/>
  <path id="Path_1254" data-name="Path 1254" d="M280.091,761.083s310.861-81.909,307.9-165.793c-5.428-23.191-42.928-29.112-42.928-29.112s-88.818-11.842-40.461-40.461,180.6-21.711,180.6-21.711-136.187,21.711-75.988,33.553c48.356,2.961,110.528,15.79,110.528,15.79s126.318,26.645,144.082,91.778,2.961,115.463,2.961,115.463Z" transform="translate(-157.065 -138.598)" fill="#e6e6e6"/>
  <path id="Path_1255" data-name="Path 1255" d="M618.673,761.4l-1.164-1.627q2.467-1.764,4.859-3.508l1.178,1.617Q621.144,759.632,618.673,761.4Z" transform="translate(-157.065 -138.598)" fill="#fff"/>
  <path id="Path_1256" data-name="Path 1256" d="M633.183,750.728l-1.207-1.594c3.231-2.447,6.414-4.909,9.46-7.317l1.24,1.568C639.619,745.8,636.425,748.273,633.183,750.728Zm18.823-14.9-1.277-1.539c3.128-2.6,6.187-5.21,9.091-7.761l1.32,1.5C658.222,730.595,655.148,733.219,652.006,735.829Zm18.032-15.869-1.369-1.459c2.985-2.8,5.863-5.6,8.555-8.332l1.424,1.4C675.939,714.32,673.041,717.142,670.038,719.96ZM686.9,702.819l-1.488-1.336c2.742-3.055,5.336-6.114,7.709-9.093l1.564,1.246C692.284,696.645,689.665,699.735,686.9,702.819Zm14.953-18.867-1.652-1.127c2.325-3.407,4.423-6.809,6.234-10.109l1.754.963C706.343,677.035,704.211,680.492,701.85,683.952Zm11.5-21.214-1.861-.73a69.364,69.364,0,0,0,3.4-11.29l1.959.4a71.234,71.234,0,0,1-3.493,11.618Zm2.67-23.7a47.111,47.111,0,0,0-1.608-11.507l1.932-.521a49.174,49.174,0,0,1,1.677,12Zm-5.983-22.3a60.321,60.321,0,0,0-6.656-9.664l1.533-1.283a62.281,62.281,0,0,1,6.877,9.986Zm-14.92-18.1a108.358,108.358,0,0,0-9.326-7.348l1.154-1.633a110.091,110.091,0,0,1,9.5,7.484ZM675.768,584.85c-3.271-1.923-6.8-3.842-10.487-5.7l.9-1.785c3.726,1.88,7.292,3.819,10.6,5.764Zm-21.3-10.814c-3.481-1.547-7.189-3.1-11.021-4.628l.74-1.857c3.855,1.533,7.588,3.1,11.094,4.657Zm-22.235-8.879c-3.563-1.292-7.373-2.618-11.321-3.941l.635-1.9c3.964,1.329,7.789,2.66,11.368,3.957ZM609.5,557.51c-3.485-1.1-7.237-2.257-11.471-3.539l.58-1.914c4.241,1.284,8,2.444,11.493,3.545Zm-22.979-6.993c-4.046-1.21-7.9-2.366-11.515-3.479l.589-1.912c3.606,1.112,7.458,2.267,11.5,3.475Zm-22.984-7.187a95.054,95.054,0,0,1-11.264-4.534l.9-1.787a92.759,92.759,0,0,0,11.019,4.431Zm-15.1-13.11-1.426-1.4c1.823-1.853,5.43-3.665,11.025-5.542l.636,1.9c-5.217,1.749-8.661,3.448-10.235,5.048Zm21.677-8.306-.483-1.941c3.459-.861,7.4-1.763,11.712-2.679l.415,1.957c-4.29.91-8.207,1.807-11.643,2.663Zm23.37-5.019-.375-1.965c3.685-.7,7.654-1.434,11.8-2.168l.35,1.969c-4.135.734-8.095,1.461-11.771,2.164Zm23.569-4.2-.33-1.973q5.653-.948,11.831-1.938l.316,1.975Q622.7,511.754,617.054,512.7Z" transform="translate(-157.065 -138.598)" fill="#fff"/>
  <path id="Path_1257" data-name="Path 1257" d="M640.931,508.865l-.307-1.977q2.917-.451,5.936-.911l.3,1.977Q643.843,508.414,640.931,508.865Z" transform="translate(-157.065 -138.598)" fill="#fff"/>
  <path id="Path_1258" data-name="Path 1258" d="M685.194,305.717l9.085-7.266c-7.058-.779-9.957,3.07-11.144,6.117-5.514-2.289-11.516.711-11.516.711l18.177,6.6a13.755,13.755,0,0,0-4.6-6.161Z" transform="translate(-157.065 -138.598)" fill="#3f3d56"/>
  <path id="Path_1259" data-name="Path 1259" d="M516.441,361.968l9.085-7.266c-7.058-.779-9.957,3.07-11.144,6.117-5.514-2.289-11.516.711-11.516.711l18.177,6.6a13.755,13.755,0,0,0-4.6-6.161Z" transform="translate(-157.065 -138.598)" fill="#3f3d56"/>
  <path id="Path_1260" data-name="Path 1260" d="M560.85,245.518l9.085-7.266c-7.058-.779-9.957,3.07-11.144,6.117-5.514-2.289-11.516.711-11.516.711l18.177,6.6a13.755,13.755,0,0,0-4.6-6.161Z" transform="translate(-157.065 -138.598)" fill="#3f3d56"/>
  <path id="Path_1261" data-name="Path 1261" d="M659.609,569.04s-7.869,0-8.743,4.809-2.186,57.267-1.311,63.824.874,5.246.874,5.246-1.743,12.461,2.189,13.006,3.931-14.318,3.931-14.318l3.06-53.333Z" transform="translate(-157.065 -138.598)" fill="#9e616a"/>
  <path id="Path_1262" data-name="Path 1262" d="M693.707,569.04s7.869,0,8.743,4.809,2.186,57.267,1.311,63.824-.874,5.246-.874,5.246,1.743,12.461-2.189,13.006-3.931-14.318-3.931-14.318l-3.06-53.333Z" transform="translate(-157.065 -138.598)" fill="#9e616a"/>
  <path id="Path_1263" data-name="Path 1263" d="M658.3,751.77h-3.5a7.869,7.869,0,0,0-7.869,7.869h21.42V749.584H658.3Z" transform="translate(-157.065 -138.598)" fill="#2f2e41"/>
  <path id="Path_1264" data-name="Path 1264" d="M691.958,751.77h3.5a7.869,7.869,0,0,1,7.869,7.869H681.9V749.584h10.055Z" transform="translate(-157.065 -138.598)" fill="#2f2e41"/>
  <circle id="Ellipse_264" data-name="Ellipse 264" cx="11.366" cy="11.366" r="11.366" transform="translate(504.73 397.655)" fill="#9e616a"/>
  <path id="Path_1265" data-name="Path 1265" d="M670.538,553.739s-1.311,14.426-3.06,15.737,18.36-.874,18.36-.874-6.994-10.492-5.683-13.989S670.538,553.739,670.538,553.739Z" transform="translate(-157.065 -138.598)" fill="#9e616a"/>
  <path id="Path_1266" data-name="Path 1266" d="M696.33,569.04s-24.043-10.055-39.781,0c0,0-3.934,10.055-.874,15.737s7.869,19.235,3.06,28.415.437,5.246.437,5.246-6.12,24.481-6.994,43.715,2.623,88.3,5.246,88.742,10.929,1.311,11.8,0,6.994-92.676,6.994-92.676,2.623,93.551,5.246,93.551,9.617,0,10.929-2.186,12.24-86.556,8.306-104.042-6.557-26.229-6.557-26.229,4.809-3.06,3.5-4.809-7.869-20.546-4.809-23.606S696.33,569.04,696.33,569.04Z" transform="translate(-157.065 -138.598)" fill="#2f2e41"/>
  <circle id="Ellipse_265" data-name="Ellipse 265" cx="18.36" cy="18.36" r="18.36" transform="translate(504.948 383.811)" fill="#2f2e41"/>
  <path id="Path_1267" data-name="Path 1267" d="M691.839,531.578a12.368,12.368,0,0,1-9.332-14.293c-.054.188-.1.378-.149.57a12.368,12.368,0,0,0,24.081,5.658c.045-.192.084-.385.12-.577A12.368,12.368,0,0,1,691.839,531.578Z" transform="translate(-157.065 -138.598)" fill="#2f2e41"/>
  <circle id="Ellipse_266" data-name="Ellipse 266" cx="8.985" cy="8.985" r="8.985" transform="translate(526.536 377.402)" fill="#2f2e41"/>
</svg>
