<svg id="undraw_reading_re_29f8" xmlns="http://www.w3.org/2000/svg" width="559.627" height="517.167" viewBox="0 0 559.627 517.167">
  <path id="Path_823" data-name="Path 823" d="M859.515,619.846l-45.428-67.478s68.8,24.018,60.99,67.478Z" transform="translate(-349.668 -205.514)" fill="#e5e5e5"/>
  <path id="Path_824" data-name="Path 824" d="M320.387,609.406l-1.725-.034a399.958,399.958,0,0,1,6.122-57.159c7.457-40.425,19.858-66.974,36.857-78.91l.99,1.411C322.922,502.6,320.407,608.341,320.387,609.406Z" transform="translate(-281.444 -194.626)" fill="#e5e5e5"/>
  <path id="Path_825" data-name="Path 825" d="M345.387,621.178l-1.725-.034c.037-1.91,1.115-46.921,18.835-59.362l.99,1.411C346.482,575.133,345.4,620.719,345.387,621.178Z" transform="translate(-284.887 -206.81)" fill="#e5e5e5"/>
  <circle id="Ellipse_164" data-name="Ellipse 164" cx="8.623" cy="8.623" r="8.623" transform="translate(82.376 263)" fill="#6c63ff"/>
  <circle id="Ellipse_165" data-name="Ellipse 165" cx="8.623" cy="8.623" r="8.623" transform="translate(78.106 337.157)" fill="#6c63ff"/>
  <path id="Path_826" data-name="Path 826" d="M339.173,478.262a38.3,38.3,0,0,1-2.6,19.609,34.906,34.906,0,0,1-5.868-37.484A38.3,38.3,0,0,1,339.173,478.262Z" transform="translate(-282.692 -192.847)" fill="#e5e5e5"/>
  <path id="Path_827" data-name="Path 827" d="M370.532,508.295a38.3,38.3,0,0,1-19.763.853,34.906,34.906,0,0,1,35.888-12.31A38.3,38.3,0,0,1,370.532,508.295Z" transform="translate(-285.865 -197.741)" fill="#e5e5e5"/>
  <path id="Path_828" data-name="Path 828" d="M371.845,585.033a26.848,26.848,0,0,1-13.852.6A24.466,24.466,0,0,1,383.148,577a26.847,26.847,0,0,1-11.3,8.03Z" transform="translate(-286.86 -208.806)" fill="#e5e5e5"/>
  <path id="Path_829" data-name="Path 829" d="M834.265,632.347h-557.9a.862.862,0,0,1,0-1.725h557.9a.862.862,0,0,1,0,1.725Z" transform="translate(-275.5 -216.29)" fill="#cbcbcb"/>
  <path id="Path_830" data-name="Path 830" d="M396.819,524.256l-7.054,18.361-74.178-18.473L326,497.045Z" transform="translate(-43.459 -68.448)" fill="#9e616a"/>
  <path id="Path_831" data-name="Path 831" d="M701.737,679.761l-22.747,59.2-.749-.288a24.687,24.687,0,0,1-14.191-31.9h0l13.893-36.159Z" transform="translate(-328.78 -221.798)" fill="#2f2e41"/>
  <path id="Path_832" data-name="Path 832" d="M549.156,412.112l-32.326,3.027-1.6,96.182A18.105,18.105,0,0,0,534.5,527.744l20.5-1.412Z" transform="translate(-308.513 -186.199)" fill="#e5e5e5"/>
  <path id="Path_833" data-name="Path 833" d="M683,406.577l-22.118-.285-1.31,114.284h0a35.6,35.6,0,0,0,36.757-36.953Z" transform="translate(-328.389 -185.398)" fill="#e5e5e5"/>
  <path id="Path_834" data-name="Path 834" d="M536.749,583.383a70.366,70.366,0,0,1-2.275,9.794c-1.116,3.138-2.839,6.041-3.86,9.212-3.253,10.107,1.257,21.376,8.459,29.178a47.612,47.612,0,0,0,23.214,13.784c6.5,1.634,13.253,1.869,19.949,2.1,18.542.629,37.56,1.191,55.129-4.768a95.787,95.787,0,0,0,16.017-7.276,11.992,11.992,0,0,0,4.156-3.272c1.34-1.908,1.511-4.382,1.5-6.713-.039-7.86-1.633-15.68-1.255-23.532.209-4.349,1.023-8.694.623-13.03a24.037,24.037,0,0,0-18.37-20.706c-4.984-1.07-10.154-.487-15.228,0a388.267,388.267,0,0,1-39.63,1.772c-13.519-.086-26.956-2.15-40.408-2.366-3.978-.064-3.9,1.163-5.164,5.013A93.8,93.8,0,0,0,536.749,583.383Z" transform="translate(-310.484 -207.604)" fill="#2f2e41"/>
  <path id="Path_835" data-name="Path 835" d="M470.624,578.31a40.006,40.006,0,0,0-11.128-1.183,27.773,27.773,0,0,0-25.784,32.74,46.646,46.646,0,0,0,4.409,12.049c2.951,5.989,6.49,11.964,11.954,15.8a46.558,46.558,0,0,0,10.549,5.022L489.4,653.579c4.233,1.595,8.466,3.189,12.741,4.668a249.216,249.216,0,0,0,66.549,13.23c6.909.411,13.923.526,20.663-1.047,1.6-.373,3.306-.93,4.232-2.286a7.247,7.247,0,0,0,.946-3.123l1.771-12.4a10.382,10.382,0,0,0-.15-5.225c-.811-2.083-2.844-3.394-4.783-4.507-18.917-10.865-41-16.859-56.926-31.77-3.748-3.51-6.885-9.075-11.439-11.459-5.164-2.7-11.247-4.247-16.585-6.739C494.746,587.478,483.272,581.218,470.624,578.31Z" transform="translate(-297.225 -208.92)" fill="#2f2e41"/>
  <path id="Path_836" data-name="Path 836" d="M507.848,597.427c10.17,3.187,53.109,25.265,60.469,32.974-.987.355-34.458-18.4-35.462-18.7-9.13-2.74-18.31-5.5-26.98-9.508-1.744-.807-11.331-4.6-10.9-6.8C495.468,592.907,506.043,596.862,507.848,597.427Z" transform="translate(-305.722 -211.326)" opacity="0.1" style="isolation: isolate"/>
  <path id="Path_837" data-name="Path 837" d="M572.251,374.415l-27.383,20.791s-28.894.9-27.918,19.374S529.491,520.5,529.491,520.5L532,550.593l47.592,13.561a155.719,155.719,0,0,0,78.888,1.691h0l-5.656-30.187s22.9-137.1,9.1-143.134-22.42-4.311-22.42-4.311l-17.293-15.09Z" transform="translate(-308.747 -180.83)" fill="#e5e5e5"/>
  <path id="Path_838" data-name="Path 838" d="M657.282,323.725c0,26.991-24.957,22.908-55.743,22.908S545.8,350.715,545.8,323.725s12.191-74.834,55.743-74.834C646.591,248.891,657.282,296.734,657.282,323.725Z" transform="translate(-314.396 -149.647)" fill="#2f2e41"/>
  <circle id="Ellipse_166" data-name="Ellipse 166" cx="37.51" cy="37.51" r="37.51" transform="translate(236.551 155.7) rotate(-45)" fill="#9e616a"/>
  <path id="Path_839" data-name="Path 839" d="M559.964,308.081H574.8l6.545-18.327,1.309,18.327h7.091l3.818-10.691.764,10.691h52.689a39.708,39.708,0,0,0-39.708-39.708h-7.636a39.708,39.708,0,0,0-39.708,39.708Z" transform="translate(-316.347 -153.33)" fill="#2f2e41"/>
  <rect id="Rectangle_79" data-name="Rectangle 79" width="40.093" height="72.817" rx="10" transform="translate(269.097 186.521)" fill="#6c63ff"/>
  <path id="Path_840" data-name="Path 840" d="M296.381,523.256l7.055,18.361,74.178-18.473-10.412-27.1Z" transform="translate(-40.814 -68.31)" fill="#9e616a"/>
  <path id="Path_841" data-name="Path 841" d="M572.947,669.62l13.893,36.159h0a24.687,24.687,0,0,1-14.191,31.9l-.749.288-22.747-59.2Z" transform="translate(-313.185 -221.66)" fill="#2f2e41"/>
  <path id="Path_842" data-name="Path 842" d="M723.983,570.1a51.789,51.789,0,0,1,18.243-1.246c4.877.537,9.9,1.894,13.463,5.27,4.334,4.109,5.727,10.463,5.843,16.434a51.344,51.344,0,0,1-11.16,32.79,29.753,29.753,0,0,1-6.38,6.142,41.992,41.992,0,0,1-8.3,4l-64.437,25.416c-16.952,6.686-33.964,13.392-51.646,17.8a4.025,4.025,0,0,1-5.375-1.875l-.042-.089a133.493,133.493,0,0,1-14.123-25.834,1.741,1.741,0,0,1,.769-2.745l45.577-26.187a46.085,46.085,0,0,0,9.277-6.392,23.032,23.032,0,0,0,4.763-6.631c.945-1.973,1.033-6.63,2.24-8.088,1.181-1.428,5.223-1.542,7.09-2.1a64.325,64.325,0,0,0,7.718-2.918c10.2-4.561,19.274-11.188,29.047-16.528a74.529,74.529,0,0,1,17.432-7.216Z" transform="translate(-320.142 -207.742)" fill="#2f2e41"/>
  <path id="Path_843" data-name="Path 843" d="M702.187,592.235c-7.83,5.881-17.969,11.287-25.73,17.323-2.649,2.06-46.8,26.883-47.426,30.18,7.24,1.22,53.361-31.045,59.96-34.265s12.448-7.76,18.245-12.266c1.477-1.149,7.737-4.6,3.5-5.884C708.344,586.6,703.951,591.06,702.187,592.235Z" transform="translate(-324.184 -210.316)" opacity="0.1" style="isolation: isolate"/>
  <circle id="Ellipse_167" data-name="Ellipse 167" cx="26.945" cy="26.945" r="26.945" transform="translate(491.798 101.077)" fill="#f1f1f1" style="isolation: isolate"/>
  <circle id="Ellipse_168" data-name="Ellipse 168" cx="18.902" cy="18.902" r="18.902" transform="translate(449.973 121.99)" fill="#f1f1f1" style="isolation: isolate"/>
  <circle id="Ellipse_169" data-name="Ellipse 169" cx="15.156" cy="15.156" r="15.156" transform="translate(107.474 117.152)" fill="#f1f1f1" style="isolation: isolate"/>
  <circle id="Ellipse_170" data-name="Ellipse 170" cx="10.632" cy="10.632" r="10.632" transform="translate(136.95 136.391)" fill="#f1f1f1" style="isolation: isolate"/>
  <circle id="Ellipse_171" data-name="Ellipse 171" cx="11.585" cy="11.585" r="11.585" transform="translate(283.02 0)" fill="#f1f1f1" style="isolation: isolate"/>
  <path id="Path_844" data-name="Path 844" d="M0,7.994,1.036,0s38.63,2.82,32.594,12.305-20.7,10.348-20.7,10.348Z" transform="matrix(0.998, 0.07, -0.07, 0.998, 231.086, 246.844)" fill="#2f2e41" opacity="0.17"/>
  <path id="Path_964" data-name="Path 964" d="M0,19.928.748,0S28.661,7.03,24.3,30.677,11.946,63.26,11.946,63.26Z" transform="matrix(-0.883, -0.469, 0.469, -0.883, 244.81, 323.595)" fill="#2f2e41" opacity="0.17"/>
  <path id="Path_965" data-name="Path 965" d="M0,22.709,5.37-9.047s21.936,17.058,17.781,44S12.32,63.317,12.32,63.317Z" transform="translate(309.19 259.338) rotate(-16)" fill="#2f2e41" opacity="0.17"/>
  <path id="Path_845" data-name="Path 845" d="M49.5-5.068c4.48.493,4.267-2.045,6.734,1.728L54.717,5.6c2.243,3.435,1.824,8.864.9,12.862a15.068,15.068,0,0,1-6.964,9.546,14.522,14.522,0,0,1-2,.981L22.912,101.619A12.063,12.063,0,1,1,1.22,91.059L29.144,21.787c-1.4-4.826,1.77-14.683,5-18.528S44.5-5.619,49.5-5.068Z" transform="matrix(0.998, 0.07, -0.07, 0.998, 220.288, 219.242)" fill="#9e616a"/>
  <path id="Path_846" data-name="Path 846" d="M18.463,0S32.068,23.245,51.737,11.624L32.675,84.572H16.614L0,81.47,4.652,51.33Z" transform="matrix(0.998, 0.07, -0.07, 0.998, 213.692, 246.383)" fill="#e5e5e5"/>
  <path id="Path_847" data-name="Path 847" d="M648.358,452.264,637.087,436.79s5.417-16.05,26.422-10.181C663.508,426.61,676.874,456.528,648.358,452.264Z" transform="translate(-325.294 -188.018)" fill="#e5e5e5"/>
  <path id="Path_848" data-name="Path 848" d="M648.358,452.264,637.087,436.79s5.417-16.05,26.422-10.181C663.508,426.61,676.874,456.528,648.358,452.264Z" transform="translate(-325.294 -188.018)" fill="#2f2e41" opacity="0.17"/>
  <path id="Path_849" data-name="Path 849" d="M646.539,394.154c6.72,3.124,10.549,12.527,8.455,19.635l28.493,69.478a12.063,12.063,0,1,1-21.692,10.56L638.051,421.2a14.517,14.517,0,0,1-2-.981,15.068,15.068,0,0,1-4.9-21.18l-2.064-2.7c2.467-3.773-.041-5.3,4.44-5.795,2.759-.313,10.5,2.422,13.009,3.611Z" transform="translate(-324.139 -183.458)" fill="#9e616a"/>
  <path id="Path_850" data-name="Path 850" d="M637.087,437s18.6,11.284,26.422-10.181l26.2,69-7.786,13.618-1.126.094A28.8,28.8,0,0,1,656.152,499.1h0A57.207,57.207,0,0,1,644.2,473.685Z" transform="translate(-325.294 -188.224)" fill="#e5e5e5"/>
</svg>
