<svg id="undraw_reading_re_29f8" xmlns="http://www.w3.org/2000/svg" width="327.619" height="302.762" viewBox="0 0 327.619 302.762">
  <path id="Path_823" data-name="Path 823" d="M840.681,591.871l-26.595-39.5s40.276,14.06,35.7,39.5Z" transform="translate(-542.205 -349.311)" fill="#3f3d56"/>
  <path id="Path_824" data-name="Path 824" d="M319.672,552.981l-1.01-.02a234.146,234.146,0,0,1,3.584-33.462c4.366-23.666,11.625-39.208,21.577-46.2l.58.826C321.156,490.452,319.684,552.358,319.672,552.981Z" transform="translate(-296.874 -310.159)" fill="#3f3d56"/>
  <path id="Path_825" data-name="Path 825" d="M344.672,596.554l-1.01-.02c.022-1.118.653-27.469,11.026-34.752l.58.826C345.313,569.6,344.677,596.285,344.672,596.554Z" transform="translate(-309.254 -353.973)" fill="#3f3d56"/>
  <circle id="Ellipse_164" data-name="Ellipse 164" cx="5.048" cy="5.048" r="5.048" transform="translate(48.225 153.967)" fill="#6c63ff"/>
  <circle id="Ellipse_165" data-name="Ellipse 165" cx="5.048" cy="5.048" r="5.048" transform="translate(45.725 197.38)" fill="#6c63ff"/>
  <path id="Path_826" data-name="Path 826" d="M334.428,470.851a22.423,22.423,0,0,1-1.524,11.48,20.435,20.435,0,0,1-3.436-21.944A22.423,22.423,0,0,1,334.428,470.851Z" transform="translate(-301.363 -303.763)" fill="#3f3d56"/>
  <path id="Path_827" data-name="Path 827" d="M362.339,503.165a22.423,22.423,0,0,1-11.57.5,20.435,20.435,0,0,1,21.01-7.207A22.423,22.423,0,0,1,362.339,503.165Z" transform="translate(-312.773 -321.36)" fill="#3f3d56"/>
  <path id="Path_828" data-name="Path 828" d="M366.1,581.4a15.717,15.717,0,0,1-8.109.35A14.323,14.323,0,0,1,372.72,576.7a15.717,15.717,0,0,1-6.617,4.7Z" transform="translate(-316.35 -361.15)" fill="#3f3d56"/>
  <path id="Path_829" data-name="Path 829" d="M602.614,631.632H276a.5.5,0,1,1,0-1.01H602.614a.5.5,0,0,1,0,1.01Z" transform="translate(-275.5 -388.062)" fill="#1f1f2f"/>
  <path id="Path_830" data-name="Path 830" d="M363.142,512.975l-4.13,10.749L315.587,512.91l6.1-15.864Z" transform="translate(-156.277 -246.134)" fill="#9f616a"/>
  <path id="Path_831" data-name="Path 831" d="M685.43,675.971,672.114,710.63l-.438-.168a14.453,14.453,0,0,1-8.308-18.673h0L671.5,670.62Z" transform="translate(-467.092 -407.869)" fill="#2f2e41"/>
  <path id="Path_832" data-name="Path 832" d="M535.09,412.112l-18.924,1.772-.939,56.307a10.6,10.6,0,0,0,11.284,9.614l12-.827Z" transform="translate(-394.211 -279.857)" fill="#6c63ff"/>
  <path id="Path_833" data-name="Path 833" d="M673.283,406.459l-12.949-.167-.767,66.9h0a20.839,20.839,0,0,0,21.518-21.633Z" transform="translate(-465.688 -276.975)" fill="#6c63ff"/>
  <path id="Path_834" data-name="Path 834" d="M533.76,576.819a41.2,41.2,0,0,1-1.332,5.734c-.653,1.837-1.662,3.536-2.26,5.393-1.9,5.917.736,12.514,4.952,17.081a27.873,27.873,0,0,0,13.59,8.07,55.439,55.439,0,0,0,11.679,1.227c10.855.368,21.989.7,32.274-2.791a56.076,56.076,0,0,0,9.377-4.26,7.021,7.021,0,0,0,2.433-1.916,6.7,6.7,0,0,0,.878-3.93c-.023-4.6-.956-9.18-.734-13.776.123-2.546.6-5.09.365-7.628A14.072,14.072,0,0,0,594.227,567.9c-2.918-.627-5.944-.285-8.915,0a227.3,227.3,0,0,1-23.2,1.037c-7.915-.05-15.78-1.259-23.656-1.385-2.329-.037-2.282.681-3.023,2.935A54.9,54.9,0,0,0,533.76,576.819Z" transform="translate(-401.299 -356.829)" fill="#2f2e41"/>
  <path id="Path_835" data-name="Path 835" d="M455.133,577.81a23.422,23.422,0,0,0-6.514-.693,16.259,16.259,0,0,0-15.095,19.167,27.307,27.307,0,0,0,2.581,7.054c1.728,3.506,3.8,7,7,9.251a27.257,27.257,0,0,0,6.176,2.94l16.845,6.346c2.478.933,4.956,1.867,7.459,2.733a145.9,145.9,0,0,0,38.96,7.745,42.188,42.188,0,0,0,12.1-.613,3.938,3.938,0,0,0,2.477-1.338,4.243,4.243,0,0,0,.554-1.828l1.036-7.256a6.079,6.079,0,0,0-.088-3.059,5.859,5.859,0,0,0-2.8-2.638c-11.074-6.36-24-9.87-33.326-18.6-2.194-2.055-4.031-5.313-6.7-6.709-3.023-1.583-6.584-2.487-9.709-3.945C469.254,583.177,462.537,579.512,455.133,577.81Z" transform="translate(-353.62 -361.56)" fill="#2f2e41"/>
  <path id="Path_836" data-name="Path 836" d="M502.507,596.247c5.954,1.866,31.091,14.791,35.4,19.3-.578.208-20.173-10.773-20.761-10.95a118.394,118.394,0,0,1-15.795-5.566c-1.021-.472-6.633-2.692-6.379-3.98C495.259,593.6,501.45,595.915,502.507,596.247Z" transform="translate(-384.177 -370.214)" opacity="0.1" style="isolation: isolate"/>
  <path id="Path_837" data-name="Path 837" d="M549.315,373.879l-16.031,12.172s-16.915.529-16.344,11.342,7.342,62.009,7.342,62.009l1.469,17.615,27.862,7.939a91.161,91.161,0,0,0,46.183.99h0l-3.311-17.672s13.407-80.26,5.33-83.794-13.125-2.524-13.125-2.524l-10.124-8.834Z" transform="translate(-395.053 -260.55)" fill="#6c63ff"/>
  <path id="Path_838" data-name="Path 838" d="M611.062,292.7c0,15.8-14.611,13.411-32.634,13.411S545.8,308.5,545.8,292.7s7.137-43.809,32.633-43.809C604.8,248.891,611.062,276.9,611.062,292.7Z" transform="translate(-410.329 -190.791)" fill="#2f2e41"/>
  <circle id="Ellipse_166" data-name="Ellipse 166" cx="21.959" cy="21.959" r="21.959" transform="translate(138.483 91.15) rotate(-45)" fill="#9f616a"/>
  <path id="Path_839" data-name="Path 839" d="M559.964,291.619h8.685l3.832-10.729.766,10.729H577.4l2.235-6.258.447,6.258h30.845a23.246,23.246,0,0,0-23.246-23.246h-4.47a23.246,23.246,0,0,0-23.246,23.246Z" transform="translate(-417.345 -201.024)" fill="#2f2e41"/>
  <rect id="Rectangle_79" data-name="Rectangle 79" width="23.472" height="42.629" rx="5" transform="translate(157.536 109.194)" fill="#262626"/>
  <path id="Path_840" data-name="Path 840" d="M296.381,511.975l4.13,10.749,43.425-10.814-6.1-15.865Z" transform="translate(-146.766 -245.639)" fill="#9f616a"/>
  <path id="Path_841" data-name="Path 841" d="M563.083,669.62l8.133,21.169h0a14.453,14.453,0,0,1-8.308,18.673l-.438.168-13.316-34.659Z" transform="translate(-411.012 -407.373)" fill="#2f2e41"/>
  <path id="Path_842" data-name="Path 842" d="M672.448,569.46a30.32,30.32,0,0,1,10.68-.73c2.855.315,5.8,1.109,7.882,3.085,2.537,2.405,3.352,6.125,3.421,9.621a30.058,30.058,0,0,1-6.533,19.2,17.416,17.416,0,0,1-3.735,3.6,24.586,24.586,0,0,1-4.86,2.342L641.58,621.449c-9.924,3.914-19.883,7.84-30.235,10.421a2.356,2.356,0,0,1-3.146-1.1l-.024-.052a78.151,78.151,0,0,1-8.268-15.124,1.019,1.019,0,0,1,.45-1.607l26.682-15.331a26.979,26.979,0,0,0,5.431-3.742,13.485,13.485,0,0,0,2.788-3.882c.553-1.155.6-3.881,1.311-4.735.692-.836,3.058-.9,4.151-1.232a37.659,37.659,0,0,0,4.519-1.708c5.969-2.67,11.283-6.55,17.005-9.676A43.634,43.634,0,0,1,672.448,569.46Z" transform="translate(-436.03 -357.324)" fill="#2f2e41"/>
  <path id="Path_843" data-name="Path 843" d="M671.859,590.166c-4.584,3.443-10.52,6.608-15.063,10.141-1.551,1.206-27.4,15.738-27.764,17.668,4.239.714,31.239-18.175,35.1-20.059a62.392,62.392,0,0,0,10.681-7.181c.865-.672,4.53-2.694,2.047-3.445C675.463,586.867,672.891,589.478,671.859,590.166Z" transform="translate(-450.567 -366.582)" opacity="0.1" style="isolation: isolate"/>
  <circle id="Ellipse_167" data-name="Ellipse 167" cx="15.774" cy="15.774" r="15.774" transform="translate(287.91 59.173)" fill="#2c2c3e" style="isolation: isolate"/>
  <circle id="Ellipse_168" data-name="Ellipse 168" cx="11.065" cy="11.065" r="11.065" transform="translate(263.425 71.416)" fill="#1f1f2f" style="isolation: isolate"/>
  <circle id="Ellipse_169" data-name="Ellipse 169" cx="8.872" cy="8.872" r="8.872" transform="translate(62.918 68.583)" fill="#2c2c3e" style="isolation: isolate"/>
  <circle id="Ellipse_170" data-name="Ellipse 170" cx="6.224" cy="6.224" r="6.224" transform="translate(80.174 79.847)" fill="#1f1f2f" style="isolation: isolate"/>
  <circle id="Ellipse_171" data-name="Ellipse 171" cx="6.782" cy="6.782" r="6.782" transform="translate(165.687 0)" fill="#2c2c3e" style="isolation: isolate"/>
  <path id="Path_844" data-name="Path 844" d="M0,4.68.606,0S23.221,1.651,19.687,7.2,7.572,13.261,7.572,13.261Z" transform="matrix(0.998, 0.07, -0.07, 0.998, 135.284, 144.509)" fill="#2f2e41" opacity="0.368"/>
  <path id="Path_964" data-name="Path 964" d="M0,11.666.438,0S16.779,4.116,14.226,17.959,6.993,37.034,6.993,37.034Z" transform="matrix(-0.883, -0.469, 0.469, -0.883, 143.318, 189.44)" fill="#2f2e41" opacity="0.17"/>
  <path id="Path_965" data-name="Path 965" d="M0,18.591,3.144,0S15.985,9.986,13.553,25.761s-6.34,16.6-6.34,16.6Z" transform="translate(179.547 146.732) rotate(-16)" fill="#2f2e41" opacity="0.17"/>
  <path id="Path_845" data-name="Path 845" d="M28.977.224c2.623.289,2.5-1.2,3.942,1.012L32.033,6.47c1.313,2.011,1.068,5.189.527,7.53a8.821,8.821,0,0,1-4.077,5.588,8.5,8.5,0,0,1-1.169.575l-13.9,42.519A7.062,7.062,0,1,1,.714,56.5L17.062,15.946C16.244,13.12,18.1,7.35,19.992,5.1S26.053-.1,28.977.224Z" transform="matrix(0.998, 0.07, -0.07, 0.998, 129.184, 125.166)" fill="#9f616a"/>
  <path id="Path_846" data-name="Path 846" d="M10.808,0s7.965,13.608,19.48,6.8L19.129,49.511h-9.4L0,47.694,2.723,30.05Z" transform="matrix(0.998, 0.07, -0.07, 0.998, 125.1, 144.238)" fill="#6c63ff"/>
  <path id="Path_847" data-name="Path 847" d="M643.685,441.093l-6.6-9.059s3.171-9.4,15.468-5.96C652.554,426.075,660.379,443.59,643.685,441.093Z" transform="translate(-454.556 -286.397)" fill="#e5e5e5"/>
  <path id="Path_848" data-name="Path 848" d="M643.685,441.093l-6.6-9.059s3.171-9.4,15.468-5.96C652.554,426.075,660.379,443.59,643.685,441.093Z" transform="translate(-454.556 -286.397)" fill="#5049c1"/>
  <path id="Path_849" data-name="Path 849" d="M639.145,392.647c3.934,1.829,6.176,7.333,4.95,11.495l16.681,40.674a7.062,7.062,0,1,1-12.7,6.182l-13.9-42.519a8.5,8.5,0,0,1-1.169-.575,8.821,8.821,0,0,1-2.869-12.4l-1.208-1.58c1.444-2.209-.024-3.1,2.6-3.392C633.144,390.35,637.676,391.95,639.145,392.647Z" transform="translate(-450.404 -269.3)" fill="#9f616a"/>
  <path id="Path_850" data-name="Path 850" d="M637.087,432.776s10.886,6.606,15.468-5.96l15.34,40.392-4.558,7.972-.659.055a16.859,16.859,0,0,1-14.429-6.1h0a33.491,33.491,0,0,1-7-14.879Z" transform="translate(-454.556 -287.138)" fill="#6c63ff"/>
</svg>
