<?xml version="1.0" encoding="utf-8"?>
<!-- Generator: Adobe Illustrator 22.0.1, SVG Export Plug-In . SVG Version: 6.00 Build 0)  -->
<svg fill="#000000" width="52" height="52" version="1.1" id="lni_lni-soup" xmlns="http://www.w3.org/2000/svg" xmlns:xlink="http://www.w3.org/1999/xlink" x="0px"
	 y="0px" viewBox="0 0 64 64" style="enable-background:new 0 0 64 64;" xml:space="preserve">
<g>
	<path d="M61.7,28.6c-0.8-0.9-1.9-1.4-3.1-1.4H5.5c-1.2,0-2.3,0.5-3.1,1.4c-0.8,0.9-1.2,2-1.1,3.2c0.9,9.5,6.3,18,14.5,22.9v0.5
		c0,3,2.4,5.4,5.4,5.4h21.6c3,0,5.4-2.4,5.4-5.4v-0.5c2.1-1.3,4.1-2.8,5.9-4.6c4.9-4.9,8-11.4,8.6-18.3
		C62.8,30.6,62.5,29.5,61.7,28.6z M4.9,31c0.1-0.1,0.3-0.2,0.5-0.2h53.1c0.2,0,0.4,0.1,0.5,0.2c0.1,0.1,0.2,0.3,0.2,0.5
		c-0.2,2.1-0.7,4.1-1.3,6H6c-0.7-1.9-1.1-3.9-1.3-6C4.7,31.2,4.9,31,4.9,31z M51.6,47.6c-1.8,1.8-3.8,3.3-6,4.5
		c-0.6,0.3-0.9,0.9-0.9,1.5v1.5c0,1.1-0.9,1.9-1.9,1.9H21.2c-1.1,0-1.9-0.9-1.9-1.9v-1.5c0-0.6-0.3-1.2-0.9-1.5
		C13.6,49.5,9.9,45.6,7.5,41h48.9C55.2,43.4,53.6,45.6,51.6,47.6z"/>
	<path d="M26.8,22c7.7,0,13.9-3.8,14.2-4.1L57.1,6.6c0.8-0.6,1-1.7,0.4-2.4c-0.6-0.8-1.7-1-2.4-0.4L43.3,12C43.2,12,43,12,42.8,12
		l-29.2-0.1c0,0,0,0,0,0c-0.5,0-0.9,0.2-1.2,0.5c-0.3,0.3-0.5,0.8-0.5,1.2C11.8,16.7,13.8,22,26.8,22z M38.4,15.4
		c-1.7,0.9-6.3,3.1-11.6,3.1c-3.6,0-9.3-0.5-11-3.2L38.4,15.4z"/>
</g>
</svg>
