<?xml version="1.0" encoding="utf-8"?>
<!-- Generator: Adobe Illustrator 22.0.1, SVG Export Plug-In . SVG Version: 6.00 Build 0)  -->
<svg fill="#000000" width="52" height="52" version="1.1" id="lni_lni-noodles" xmlns="http://www.w3.org/2000/svg" xmlns:xlink="http://www.w3.org/1999/xlink" x="0px"
	 y="0px" viewBox="0 0 64 64" style="enable-background:new 0 0 64 64;" xml:space="preserve">
<path d="M61.1,31.3C60.3,30.5,59.2,30,58,30H31V19.1l27.2-2.2c1-0.1,1.7-0.9,1.6-1.9c-0.1-1-0.9-1.7-1.9-1.6l-27,2.1V9.8l27.4-5.1
	c1-0.2,1.6-1.1,1.4-2c-0.2-0.9-1.1-1.6-2-1.4L31,6.3c-0.1-0.8-0.9-1.4-1.7-1.4c-1,0-1.8,0.8-1.8,1.8v0.3l-8.3,1.5V6.6
	c0-1-0.8-1.8-1.8-1.8s-1.8,0.8-1.8,1.8v2.5l-9,1.7c-1,0.2-1.6,1.1-1.4,2c0.2,0.8,0.9,1.4,1.7,1.4c0.1,0,0.2,0,0.3,0l8.3-1.5v4.1
	l-8.8,0.7c-1,0.1-1.7,0.9-1.6,1.9C5.4,20.3,6.2,21,7.1,21c0,0,0.1,0,0.1,0l8.5-0.7V30H6c-1.2,0-2.3,0.5-3.1,1.4
	c-0.8,0.9-1.2,2-1.1,3.2C2.7,43.8,8,52.1,16.1,56.9v0.5c0,3,2.4,5.4,5.4,5.4h21.2c3,0,5.4-2.4,5.4-5.4v-0.5c2.1-1.2,4-2.7,5.8-4.5
	c4.8-4.8,7.8-11.2,8.4-18C62.2,33.3,61.9,32.2,61.1,31.3z M19.2,12l8.3-1.5v5.4l-8.3,0.7V12z M19.2,20l8.3-0.7V30h-8.3V20z
	 M5.5,33.7c0.1-0.1,0.2-0.2,0.5-0.2h52c0.2,0,0.4,0.1,0.5,0.2c0.1,0.1,0.2,0.2,0.2,0.5c-0.2,2-0.6,4-1.3,5.9H6.6
	c-0.6-1.9-1.1-3.8-1.3-5.9C5.3,33.9,5.4,33.8,5.5,33.7z M51.2,50c-1.7,1.7-3.7,3.2-5.9,4.4c-0.6,0.3-0.9,0.9-0.9,1.5v1.5
	c0,1-0.8,1.9-1.9,1.9H21.4c-1,0-1.9-0.8-1.9-1.9v-1.5c0-0.6-0.3-1.2-0.9-1.5C14,51.8,10.4,48,8.1,43.5h47.8
	C54.7,45.9,53.1,48.1,51.2,50z"/>
</svg>
