<?xml version="1.0" encoding="utf-8"?>
<!-- Generator: Adobe Illustrator 22.0.1, SVG Export Plug-In . SVG Version: 6.00 Build 0)  -->
<svg fill="#000000" width="52" height="52" version="1.1" id="lni_lni-wine-glass" xmlns="http://www.w3.org/2000/svg" xmlns:xlink="http://www.w3.org/1999/xlink" x="0px"
	 y="0px" viewBox="0 0 64 64" style="enable-background:new 0 0 64 64;" xml:space="preserve">
<path d="M45.7,42.3c3.5-3.8,5.3-8.9,5-14.1L49.1,6.7c-0.2-3.1-2.8-5.5-5.9-5.5H20.7c-3.1,0-5.7,2.4-5.9,5.5l-1.6,21.5
	c-0.4,5.2,1.4,10.3,5,14.1c3.1,3.4,7.4,5.5,12,5.9v11.1h-7.8c-1,0-1.8,0.8-1.8,1.8s0.8,1.8,1.8,1.8h19.1c1,0,1.8-0.8,1.8-1.8
	s-0.8-1.8-1.8-1.8h-7.8V48.2C38.3,47.8,42.6,45.7,45.7,42.3z M20.7,4.7h22.5c1.2,0,2.3,1,2.4,2.2l0.7,9H17.7l0.7-9
	C18.4,5.7,19.5,4.7,20.7,4.7z M16.8,28.4l0.6-8.9h29.1l0.6,8.9c0.3,4.3-1.1,8.3-4,11.5c-2.9,3.1-6.9,4.9-11.2,4.9s-8.2-1.7-11.2-4.9
	C17.9,36.8,16.5,32.7,16.8,28.4z"/>
</svg>
