<svg xmlns="http://www.w3.org/2000/svg" width="22.476" height="20" viewBox="0 0 22.476 20">
  <g id="_013-layers" data-name="013-layers" transform="translate(0 -28.193)">
    <g id="Сгруппировать_1882" data-name="Сгруппировать 1882" transform="translate(0 28.193)">
      <path id="Контур_399" data-name="Контур 399" d="M22.476,38.194a1.24,1.24,0,0,0-.689-1.115l-1.673-.837,1.673-.837h0a1.247,1.247,0,0,0,0-2.23l-9.448-4.724a2.477,2.477,0,0,0-2.2,0L.689,33.176a1.246,1.246,0,0,0,0,2.23l1.673.837-1.674.837a1.247,1.247,0,0,0,0,2.23l1.673.837-1.673.837a1.247,1.247,0,0,0,0,2.23l9.447,4.724a2.477,2.477,0,0,0,2.2,0l9.447-4.724a1.246,1.246,0,0,0,0-2.23l-1.673-.837,1.674-.837A1.24,1.24,0,0,0,22.476,38.194ZM1.151,34.481a.213.213,0,0,1,0-.381L10.6,29.376a1.438,1.438,0,0,1,1.279,0L21.325,34.1a.213.213,0,0,1,0,.382L11.878,39.2a1.438,1.438,0,0,1-1.279,0Zm20.174,7.425a.213.213,0,0,1,0,.381l-9.447,4.724a1.438,1.438,0,0,1-1.279,0L1.151,42.288a.213.213,0,0,1,0-.381l2.367-1.183,6.619,3.309a2.477,2.477,0,0,0,2.2,0l6.619-3.309Zm0-3.522-9.447,4.724a1.438,1.438,0,0,1-1.279,0L1.151,38.384a.213.213,0,0,1,0-.381L3.518,36.82l6.619,3.309a2.477,2.477,0,0,0,2.2,0l6.619-3.309L21.324,38a.213.213,0,0,1,0,.381Z" transform="translate(0 -28.193)" fill="#376fff"/>
    </g>
  </g>
</svg>
