<svg xmlns="http://www.w3.org/2000/svg" width="1099.099" height="787.633" viewBox="0 0 1099.099 787.633">
  <g id="undraw_outdoor_adventure_re_j3b7" transform="translate(0 44.279)">
    <path id="Path_1292" data-name="Path 1292" d="M801.805,220.427a67.6,67.6,0,0,0-97.126-1.736L362.654,560.717a48.3,48.3,0,0,1-68.119.1l-50.655-50.554a67.438,67.438,0,0,0-95.391,0L50.451,608.411h1099.1V594.42Z" transform="translate(-50.451 -78.324)" fill="#f0f0f0"/>
    <path id="Path_1293" data-name="Path 1293" d="M401.249,790.659c-57.8-18.193-114.629-18.2-168.917-.005l-.635-1.9c54.7-18.327,111.944-18.329,170.153-.006Z" transform="translate(-50.451 -78.324)" fill="#e4e4e4"/>
    <path id="Path_1294" data-name="Path 1294" d="M1004.249,745.659c-57.8-18.193-114.629-18.2-168.917-.005l-.635-1.9c54.7-18.327,111.944-18.329,170.153-.006Z" transform="translate(-50.451 -78.324)" fill="#e4e4e4"/>
    <ellipse id="Ellipse_268" data-name="Ellipse 268" cx="216.764" cy="140.553" rx="216.764" ry="140.553" transform="matrix(0.36, -0.933, 0.933, 0.36, 650.073, 360.238)" fill="#6c63ff"/>
    <path id="Path_1295" data-name="Path 1295" d="M825.774,649.637a1.874,1.874,0,0,1-1.853-1.61c-.08-.559-7.878-56.8-.874-131.555,6.468-69.035,27.24-168.469,89.466-250.132a1.874,1.874,0,0,1,2.981,2.272c-61.688,80.958-82.293,179.663-88.715,248.21-6.963,74.316.774,130.122.853,130.677a1.876,1.876,0,0,1-1.858,2.138Z" transform="translate(-50.451 -78.324)" fill="#3f3d56"/>
    <path id="Path_1296" data-name="Path 1296" d="M856.88,374.321a1.874,1.874,0,0,1-1.1-3.39c.226-.164,22.99-16.566,57.021-29.027,31.46-11.518,79.3-21.959,128.548-6.285a1.874,1.874,0,1,1-1.136,3.571c-48.24-15.352-95.212-5.083-126.123,6.233C880.541,357.707,858.2,373.8,857.98,373.963a1.867,1.867,0,0,1-1.1.358Z" transform="translate(-50.451 -78.324)" fill="#3f3d56"/>
    <ellipse id="Ellipse_269" data-name="Ellipse 269" cx="140.553" cy="216.764" rx="140.553" ry="216.764" transform="matrix(0.933, -0.36, 0.36, 0.933, 31.202, 107.811)" fill="#6c63ff"/>
    <path id="Path_1297" data-name="Path 1297" d="M374.619,700.625a1.874,1.874,0,0,0,1.853-1.61c.08-.559,7.878-56.8.874-131.555-6.468-69.035-27.24-168.469-89.466-250.132A1.874,1.874,0,1,0,284.9,319.6c61.688,80.958,82.292,179.663,88.715,248.21,6.963,74.316-.774,130.122-.853,130.677a1.876,1.876,0,0,0,1.858,2.138Z" transform="translate(-50.451 -78.324)" fill="#3f3d56"/>
    <path id="Path_1298" data-name="Path 1298" d="M343.513,425.31a1.874,1.874,0,0,0,1.1-3.39c-.226-.164-22.99-16.566-57.021-29.027-31.46-11.518-79.3-21.959-128.548-6.285a1.874,1.874,0,0,0,1.137,3.571c48.24-15.352,95.212-5.083,126.123,6.233,33.546,12.283,55.885,28.378,56.106,28.539A1.867,1.867,0,0,0,343.513,425.31Z" transform="translate(-50.451 -78.324)" fill="#3f3d56"/>
    <path id="Path_1299" data-name="Path 1299" d="M277.179,780.263c-.1-.288-9.414-29.119,7.077-54.845l1.684,1.079c-15.963,24.9-6.956,52.854-6.863,53.134Z" transform="translate(-50.451 -78.324)" fill="#e4e4e4"/>
    <path id="Path_1300" data-name="Path 1300" d="M295.385,729.857a13.113,13.113,0,0,1-25.243-7.113c1.964-6.971,13.858-24.264,20.829-22.3S297.35,722.886,295.385,729.857Z" transform="translate(-50.451 -78.324)" fill="#e4e4e4"/>
    <path id="Path_1301" data-name="Path 1301" d="M293.66,762.261c-6.324,6.834-17.638,6.649-17.638,6.649s-1.06-11.266,5.264-18.1,17.638-6.649,17.638-6.649S299.984,755.427,293.66,762.261Z" transform="translate(-50.451 -78.324)" fill="#e4e4e4"/>
    <path id="Path_1302" data-name="Path 1302" d="M936.179,731.263c-.1-.288-9.414-29.119,7.077-54.845l1.684,1.079c-15.963,24.9-6.956,52.854-6.864,53.134Z" transform="translate(-50.451 -78.324)" fill="#e4e4e4"/>
    <path id="Path_1303" data-name="Path 1303" d="M955.049,680.118a13.113,13.113,0,1,1-25.662-5.412c1.494-7.086,14.164-24.722,21.251-23.228S956.543,673.032,955.049,680.118Z" transform="translate(-50.451 -78.324)" fill="#e4e4e4"/>
    <path id="Path_1304" data-name="Path 1304" d="M952.66,713.261c-6.324,6.834-17.638,6.649-17.638,6.649s-1.06-11.266,5.264-18.1,17.638-6.649,17.638-6.649S958.984,706.427,952.66,713.261Z" transform="translate(-50.451 -78.324)" fill="#e4e4e4"/>
    <path id="Path_1305" data-name="Path 1305" d="M376.549,698.949s125-266,264-225,43,254,43,254Z" transform="translate(-50.451 -78.324)" fill="#cacaca"/>
    <path id="Path_1306" data-name="Path 1306" d="M323.889,627.22l17-23,172-56L802.1,576.626l.719,11.094-91.929,95.5Z" fill="#3f3d56"/>
    <path id="Path_1307" data-name="Path 1307" d="M507.088,698.2h9.1l4.328-35.086H507.087Z" fill="#a0616a"/>
    <path id="Path_1308" data-name="Path 1308" d="M555.218,773.554h17.915a11.417,11.417,0,0,1,11.416,11.415v.372H555.219Z" transform="translate(-50.451 -78.324)" fill="#2f2e41"/>
    <path id="Path_1309" data-name="Path 1309" d="M471.876,679.566l-7.369,5.332L440.433,659.01l10.876-7.87Z" fill="#a0616a"/>
    <path id="Path_1310" data-name="Path 1310" d="M529.375,763.673l-23.763,17.193-.217-.3a11.417,11.417,0,0,1,2.556-15.941h0l14.513-10.5Z" transform="translate(-50.451 -78.324)" fill="#2f2e41"/>
    <path id="Path_1311" data-name="Path 1311" d="M532.283,621.5s-9.544-7.148-19.863,0l-7.142,59.57h21.445l3.177-19.063,7.148-28.594Z" transform="translate(-50.451 -78.324)" fill="#2f2e41"/>
    <path id="Path_1312" data-name="Path 1312" d="M553.767,713.5l-38.489-12.568L496.93,715.5l19.492,29.8-10.2,13.37-.292-.332c-1.265-1.441-30.977-35.395-30.891-45.025a72.454,72.454,0,0,1,3.281-19.246l9.652-13.7,13.7-4.028,45.351,6.365.074.011,18.323,11.153a14.394,14.394,0,0,1,6.534,10.6c.787,7.082,2.369,63.795,2.385,64.367l.01.372H554.563Z" transform="translate(-50.451 -78.324)" fill="#2f2e41"/>
    <path id="Path_1313" data-name="Path 1313" d="M529.356,699.275c-6.689-2.973-15.233-14.581-16.641-16.539-2.753,1.5-22.826,12.227-28.485,9.469-.822.454-4.537,2.671-5.207,6.016l-.168.839-.485-.705c-.089-.13-8.808-13.094,2.471-21.15,10.284-7.345,13.05-14.766,13.34-15.615L488.6,632.1l.146-.136c.458-.425,11.32-10.419,21.232-11.608l6.114-1.078.267,23.276v29.8c4.94-.621,12.756-52.687,12.756-52.687l4.084,1.5c1.055.2,12.915,2.571,16.062,7.292l.1.153-10.786,29.164-3.155,4.75v6.08l18.43,16.026-.262.274c-.628.658-14.218,14.793-22.135,14.791a5.131,5.131,0,0,1-2.1-.413Z" transform="translate(-50.451 -78.324)" fill="#2f2e41"/>
    <circle id="Ellipse_270" data-name="Ellipse 270" cx="17.769" cy="17.769" r="17.769" transform="translate(454.112 499.465)" fill="#a0616a"/>
    <path id="Path_1314" data-name="Path 1314" d="M517.857,704.567a6.957,6.957,0,0,1,8.972-5.772l10.184-12.209,8.929,4.38L531.318,708a7,7,0,0,1-13.461-3.438Z" transform="translate(-50.451 -78.324)" fill="#a0616a"/>
    <path id="Path_1315" data-name="Path 1315" d="M525.055,694.214l15.977-21.569-3.958-21.371L543.5,627.2l.162-.069c.129-.056,3.2-1.35,5.542-.38a3.746,3.746,0,0,1,2.085,2.167c1.59,3.974,5.422,44.447,5.584,46.238-.033.327-.819,8.046-2.419,11.246s-16.117,19.255-16.735,19.938l-.255.282Z" transform="translate(-50.451 -78.324)" fill="#2f2e41"/>
    <path id="Path_1316" data-name="Path 1316" d="M537.595,590.984c-5.915,7.439-16.052,6.076-24.163,3.354a25.7,25.7,0,0,1-4.573,16.781c1.047-4.219-3.365-5.059-5.94-6.628-.991-1.255-.168-3.128-.575-4.674-4.623-5.421-7.687-9.51-1.752-15.871,3.474-4.65,7.644-10.457,14.263-9.235,5.238-6.11,13.821-4.521,19.677-.247a41.837,41.837,0,0,1,7.136,6.706,28.4,28.4,0,0,1-3.706,9.31" transform="translate(-50.451 -78.324)" fill="#2f2e41"/>
    <path id="Path_1317" data-name="Path 1317" d="M602.549,716.949l154.29,23.094,95-85s-45-185-207-198-279,249-279,249l16.966.725s88.034-203.725,208.034-209.725S602.549,716.949,602.549,716.949Z" transform="translate(-50.451 -78.324)" fill="#e4e4e4"/>
    <path id="Path_1319" data-name="Path 1319" d="M730.4,653.961a6.871,6.871,0,0,1-1.636-10.408l-8.929-89.6,14.91.989,4.13,88.23a6.908,6.908,0,0,1-8.475,10.79Z" transform="translate(-50.451 -78.324)" fill="#ffb8b8"/>
    <path id="Path_1320" data-name="Path 1320" d="M740.783,550.633l-3.909,29.709.543,18.208-16.4,1.5-3.287-15.144-1.811-40.092a11.964,11.964,0,0,1,10.57-12.424h0a11.964,11.964,0,0,1,13.243,10.315Z" transform="translate(-50.451 -78.324)" fill="#2f2e41"/>
    <path id="Path_1321" data-name="Path 1321" d="M627.534,733.711h-9.947l-4.732-38.368h14.681Z" fill="#ffb7b7"/>
    <path id="Path_1322" data-name="Path 1322" d="M680.521,821.676H648.448v-.406a12.484,12.484,0,0,1,12.483-12.484h19.591Z" transform="translate(-50.451 -78.324)" fill="#2f2e41"/>
    <path id="Path_1323" data-name="Path 1323" d="M709.669,733.711h-9.947l-4.732-38.368h14.681Z" fill="#ffb7b7"/>
    <path id="Path_1324" data-name="Path 1324" d="M762.657,821.676H730.583v-.406a12.484,12.484,0,0,1,12.483-12.484h19.591Z" transform="translate(-50.451 -78.324)" fill="#2f2e41"/>
    <circle id="Ellipse_271" data-name="Ellipse 271" cx="21.566" cy="21.566" r="21.566" transform="translate(649.422 396.813)" fill="#ffb8b8"/>
    <path id="Path_1325" data-name="Path 1325" d="M718.653,527.024l14.967,1.71h0a39.828,39.828,0,0,1,5.093,35.963l-11.293,32.669S743.1,628.794,743.1,657.973s29.855,133.332,29.855,133.332l-42.024,4.384L712.59,684.736,687.321,795.242l-28.846-4.7,15.888-144.885,10.5-47.688.447-23.256s-4.464-17.45,6.708-28.623l13.641-19.007Z" transform="translate(-50.451 -78.324)" fill="#2f2e41"/>
    <path id="Path_1326" data-name="Path 1326" d="M696.3,489H727.99V475.187c-6.956-2.763-13.762-5.114-17.877,0A13.814,13.814,0,0,0,696.3,489Z" transform="translate(-50.451 -78.324)" fill="#2f2e41"/>
    <path id="Path_1327" data-name="Path 1327" d="M729.745,472.749c18.945,0,24.248,23.747,24.248,37.145,0,7.471-3.379,10.144-8.689,11.048l-1.875-10-4.392,10.431c-1.491.007-3.058-.021-4.683-.052l-1.489-3.066-3.321,3.011c-13.3.02-24.048,1.958-24.048-11.372C705.5,496.5,710.147,472.749,729.745,472.749Z" transform="translate(-50.451 -78.324)" fill="#2f2e41"/>
    <path id="Path_1328" data-name="Path 1328" d="M651.277,525.592l-.8-34.786-2.125-15.444-5.253,15.3Z" opacity="0.2"/>
    <path id="Path_1329" data-name="Path 1329" d="M762.846,628.032l-34.3-2.931-1.444-97.41,16.721,1.074a6.243,6.243,0,0,1,5.091,3.3l21.941,41.626-1.282,48.325a6.206,6.206,0,0,1-6.187,6.041Q763.12,628.055,762.846,628.032Z" transform="translate(-50.451 -78.324)" fill="#6c63ff"/>
    <path id="Path_1330" data-name="Path 1330" d="M685.771,562.988c0-21.567,13.129-39.114,29.267-39.114S744.3,541.421,744.3,562.988,731.175,602.1,715.038,602.1,685.771,584.556,685.771,562.988Zm3.829,0c0,19.456,11.411,35.284,25.438,35.284s25.438-15.828,25.438-35.284S729.064,527.7,715.038,527.7,689.6,543.533,689.6,562.988Z" transform="translate(-50.451 -78.324)" fill="#6c63ff"/>
    <path id="Path_1331" data-name="Path 1331" d="M711.359,544.591l2.255-49.179-23.1-45.161-.975.5,22.971,44.9-2.242,48.89Z" fill="#3f3d56"/>
    <path id="Path_1332" data-name="Path 1332" d="M705.587,657.581a7.528,7.528,0,0,1-1.171-11.484l-4.442-98.56,16.253,1.969L715.5,646.28a7.569,7.569,0,0,1-9.913,11.3Z" transform="translate(-50.451 -78.324)" fill="#ffb8b8"/>
    <path id="Path_1333" data-name="Path 1333" d="M723.091,545.152l-6.043,32.271-.489,19.953-18.03.668-2.7-16.764.4-43.971a13.109,13.109,0,0,1,12.3-12.964h0a13.109,13.109,0,0,1,13.875,12.073Z" transform="translate(-50.451 -78.324)" fill="#2f2e41"/>
    <path id="Path_1334" data-name="Path 1334" d="M461.352,692.055a3.968,3.968,0,0,1-3.955-3.862l-.82-30.9L470.6,630.685a3.991,3.991,0,0,1,3.255-2.109l10.69-.686-.923,62.277L461.7,692.04Q461.525,692.055,461.352,692.055Z" transform="translate(-50.451 -78.324)" fill="#6c63ff"/>
    <path id="Path_1335" data-name="Path 1335" d="M492.265,675.463c-10.317,0-18.711-11.218-18.711-25.007s8.394-25.007,18.711-25.007,18.711,11.218,18.711,25.007S502.582,675.463,492.265,675.463Zm0-47.565C483.3,627.9,476,638.017,476,650.456s7.3,22.558,16.263,22.558,16.263-10.12,16.263-22.558S501.232,627.9,492.265,627.9Z" transform="translate(-50.451 -78.324)" fill="#6c63ff"/>
    <path id="Path_1336" data-name="Path 1336" d="M411.912,610.445,410.47,579l14.77-28.873.623.319-14.686,28.707,1.433,31.257Z" fill="#3f3d56"/>
    <path id="Path_1337" data-name="Path 1337" d="M536.581,712.867a1.609,1.609,0,0,1-.356.092l-14.97,2.09a1.611,1.611,0,0,1-1.734-1.022L506.634,680.5a1.618,1.618,0,0,1,1.158-2.16h0l14.078-3.142a1.286,1.286,0,0,0,.313-.114l13.693-7.159a1.6,1.6,0,0,1,.333-.13l15.069-4.017a1.615,1.615,0,0,1,1.927.983l11.236,29.236a1.61,1.61,0,0,1-.213,1.547l-3.886,5.218a1.616,1.616,0,0,1-.717.544l-8.492,3.263a1.265,1.265,0,0,0-.176.084l-14.151,8.11A1.628,1.628,0,0,1,536.581,712.867Z" transform="translate(-50.451 -78.324)" fill="#fff"/>
    <path id="Path_1338" data-name="Path 1338" d="M543.546,668.244l-1.914.51-5.071,1.352-.009,0-6.943,3.63-2.576,1.347h0l-3.87,2.023-.106.024-4.02.9-1.943.434-7.924,1.768L521.61,712.6l8.166-1.139,2-.28,4.267-.6.049-.006,13.713-7.859,8.343-3.206,3.809-5.115-10.828-28.177Z" transform="translate(-50.451 -78.324)" fill="#e4e4e4"/>
    <rect id="Rectangle_147" data-name="Rectangle 147" width="44.194" height="1.969" transform="translate(461.212 608.393) rotate(-21.022)" fill="#fff"/>
    <rect id="Rectangle_148" data-name="Rectangle 148" width="44.194" height="1.969" transform="translate(463.566 614.521) rotate(-21.022)" fill="#fff"/>
    <rect id="Rectangle_149" data-name="Rectangle 149" width="44.194" height="1.969" transform="translate(468.323 626.898) rotate(-21.022)" fill="#fff"/>
    <path id="Path_1339" data-name="Path 1339" d="M493.1,589.921l12.351,32.136-1.838.706-12.426-32.332Z" fill="#fff"/>
    <path id="Path_1340" data-name="Path 1340" d="M479.16,595.416l-2.537,7.056-.879,2.447-2.051,5.712-.44,1.22-.44,1.227-.579,1.611-4.157,11.57L467,623.447l3.39-9.436.767-2.136.112-.311.907-2.526,1.144-3.185.88-2.448,2.385-6.641h0Z" fill="#fff"/>
    <path id="Path_1341" data-name="Path 1341" d="M468.586,599.707l12.74,33.152-2,.28-12.681-33Z" fill="#fff"/>
    <path id="Path_1342" data-name="Path 1342" d="M524.006,709.761a6.957,6.957,0,0,0-8.972-5.772L504.85,691.78l-8.929,4.38L510.546,713.2a7,7,0,0,0,13.461-3.438Z" transform="translate(-50.451 -78.324)" fill="#a0616a"/>
    <path id="Path_1343" data-name="Path 1343" d="M504.266,707.574c-.911-.683-22.335-16.786-24.729-21.573s-1.8-18.993-1.772-19.639c.037-.223,3.767-22.412,6.922-30.3,3.274-8.184,11.507-5,11.59-4.967l.249.1-3.585,41.829L512.5,698.966l-7.968,8.806Z" transform="translate(-50.451 -78.324)" fill="#2f2e41"/>
  </g>
</svg>
