<svg xmlns="http://www.w3.org/2000/svg" width="813.339" height="772.845" viewBox="0 0 813.339 772.845">
  <g id="undraw_hiking_re_k0bc" transform="translate(0.029)">
    <path id="Path_1058" data-name="Path 1058" d="M915.6,754.032s.622-13.027,13.366-11.513" transform="translate(-193.345 -54.142)" fill="#3f3d56"/>
    <circle id="Ellipse_207" data-name="Ellipse 207" cx="6.379" cy="6.379" r="6.379" transform="translate(712.279 674.737)" fill="#6c63ff"/>
    <rect id="Rectangle_97" data-name="Rectangle 97" width="1.801" height="12.604" transform="translate(717.62 691.857)" fill="#3f3d56"/>
    <path id="Path_1059" data-name="Path 1059" d="M482.565,371.062q0,4.785-.31,9.49a143.754,143.754,0,0,1-13.47,52.19c-.06.14-.13.27-.19.4-.36.76-.73,1.52-1.11,2.27a142.036,142.036,0,0,1-7.65,13.5,144.462,144.462,0,0,1-118.56,66.72l1.43,82.24,18.65-9.82,3.33,6.33-21.84,11.5,2.67,152.74.03,2.04-14.42,3.21.03-2.05,4.54-246.18a144.175,144.175,0,0,1-102-44.38c-.91-.94-1.81-1.91-2.69-2.87-.04-.04-.07-.08-.1-.11a144.768,144.768,0,0,1-26.34-40.76c.14.16.29.31.43.47a144.642,144.642,0,0,1,68.58-186.38c.5-.25,1.01-.49,1.51-.74a144.752,144.752,0,0,1,187.53,56.93c.88,1.48,1.73,2.99,2.55,4.51A143.852,143.852,0,0,1,482.565,371.062Z" transform="translate(-193.345 -54.142)" fill="#1f1f2f"/>
    <circle id="Ellipse_208" data-name="Ellipse 208" cx="189.539" cy="189.539" r="189.539" transform="translate(80.214 0)" fill="#6c63ff"/>
    <path id="Path_1060" data-name="Path 1060" d="M323.149,117.084C282,213.344,326.672,324.739,422.933,365.891a189.554,189.554,0,0,0,216.045-48.2c-41.147,96.263-152.54,140.944-248.8,99.8s-140.944-152.54-99.8-248.8a189.556,189.556,0,0,1,32.772-51.6Z" transform="translate(-193.345 -54.142)" opacity="0.2" style="isolation: isolate"/>
    <path id="Path_1061" data-name="Path 1061" d="M280.01,717.56l-19.36-5.43.04-2.08,5.8-315.28.29-15.72.01-.46,1.01-55.08,1.47-79.84v-.01l1-54.12h.53l1.02,58.63,1.33,76.31.95,54.15v.4l.04,2.23v.01l1.84,105.55.19,10.49,3.8,218.15Z" fill="#3f3d56"/>
    <rect id="Rectangle_98" data-name="Rectangle 98" width="35.408" height="9.373" transform="translate(269.089 490.447) rotate(-27.766)" fill="#3f3d56"/>
    <path id="Path_1062" data-name="Path 1062" d="M837.565,736.482V678.308S860.236,719.551,837.565,736.482Z" transform="translate(-193.345 -54.142)" fill="#2f2e41"/>
    <path id="Path_1063" data-name="Path 1063" d="M838.965,736.472,796.111,697.13S841.825,708.321,838.965,736.472Z" transform="translate(-193.345 -54.142)" fill="#2f2e41"/>
    <path id="Path_1064" data-name="Path 1064" d="M394.565,750.482V692.308S417.236,733.551,394.565,750.482Z" transform="translate(-193.345 -54.142)" fill="#1f1f2f"/>
    <path id="Path_1065" data-name="Path 1065" d="M395.965,750.472,353.111,711.13S398.825,722.321,395.965,750.472Z" transform="translate(-193.345 -54.142)" fill="#3f3d56"/>
    <path id="Path_1066" data-name="Path 1066" d="M548.565,792.482v-72.34S576.757,771.428,548.565,792.482Z" transform="translate(-193.345 -54.142)" fill="#1f1f2f"/>
    <path id="Path_1067" data-name="Path 1067" d="M550.306,792.469l-53.29-48.921S553.862,757.463,550.306,792.469Z" transform="translate(-193.345 -54.142)" fill="#3f3d56"/>
    <path id="Path_1068" data-name="Path 1068" d="M813.31,729.49l-.55,1.93-167.83-47.8L518.5,711.49,356.81,739.11l-.22-.06-76.58-21.49-19.36-5.43-59.13-16.6L152.2,706.52l-14.42,3.21-31.35,6.99-.43-1.95,31.81-7.09,14.36-3.2,49.41-11.01.24.06,58.87,16.52,19.28,5.41,76.94,21.6,161.2-27.53,126.88-27.97.25.06Z" fill="#1f1f2f" opacity="0.012"/>
    <path id="Path_1069" data-name="Path 1069" d="M706.4,175.579l12.795-10.233c-9.94-1.1-14.024,4.324-15.7,8.615-7.765-3.224-16.219,1-16.219,1l25.6,9.294a19.372,19.372,0,0,0-6.481-8.677Z" transform="translate(-193.345 -54.142)" fill="#3f3d56"/>
    <path id="Path_1070" data-name="Path 1070" d="M236.4,171.579l12.795-10.233c-9.94-1.1-14.024,4.324-15.7,8.615-7.765-3.224-16.219,1-16.219,1l25.6,9.294a19.372,19.372,0,0,0-6.481-8.677Z" transform="translate(-193.345 -54.142)" fill="#3f3d56"/>
    <path id="Path_1071" data-name="Path 1071" d="M678.4,366.579l12.795-10.233c-9.94-1.1-14.024,4.324-15.7,8.615-7.765-3.224-16.219,1-16.219,1l25.6,9.294a19.372,19.372,0,0,0-6.481-8.677Z" transform="translate(-193.345 -54.142)" fill="#3f3d56"/>
    <path id="Path_1072" data-name="Path 1072" d="M398.156,752.578l9.779,3.633,18.667-35.99-14.433-5.362Z" fill="#ffb7b7"/>
    <path id="Path_1073" data-name="Path 1073" d="M590.193,802.6l19.258,7.155h0a13.093,13.093,0,0,1,7.713,16.833l-.148.4-31.532-11.715Z" transform="translate(-193.345 -54.142)" fill="#2f2e41"/>
    <path id="Path_1074" data-name="Path 1074" d="M494.392,762.733h10.432l4.963-40.238h-15.4Z" fill="#ffb7b7"/>
    <path id="Path_1075" data-name="Path 1075" d="M685.927,813.469h20.546a13.093,13.093,0,0,1,13.093,13.092v.426H685.927Z" transform="translate(-193.345 -54.142)" fill="#2f2e41"/>
    <path id="Path_1076" data-name="Path 1076" d="M639.975,537.805l3.4-6.807,28.931,14.466-.851,5.956,5.531,7.233s9.36,5.106,7.658,22.124l-1.7,16.167-2.127,20.848,14.891,51.481,7.658,68.074,5.531,54.884-26.8-1.276-24.677-89.347-43.4,96.154L584.24,790.1l40.844-95.3,5.106-39.993s-3.4-21.273,12.764-35.739L640.4,611.41v-9.437l-8.509-45.022Z" transform="translate(-193.345 -54.142)" fill="#2f2e41"/>
    <rect id="Rectangle_102" data-name="Rectangle 102" width="1" height="68.961" transform="translate(444.872 581.231) rotate(-15.751)" opacity="0.2"/>
    <rect id="Rectangle_103" data-name="Rectangle 103" width="41.695" height="4.255" transform="translate(489.176 567.905) rotate(180)" fill="#3f3d56"/>
    <ellipse id="Ellipse_209" data-name="Ellipse 209" cx="1.702" cy="4.255" rx="1.702" ry="4.255" transform="translate(487.474 561.948)" fill="#3f3d56"/>
    <circle id="Ellipse_210" data-name="Ellipse 210" cx="22.682" cy="22.682" r="22.682" transform="translate(439.589 461.782) rotate(-61.337)" fill="#ffb7b7"/>
    <circle id="Ellipse_211" data-name="Ellipse 211" cx="20.066" cy="20.066" r="20.066" transform="translate(415.599 404.528)" fill="#2f2e41"/>
    <path id="Path_1077" data-name="Path 1077" d="M603.546,476.586a20.067,20.067,0,1,0,39.143,8.229,20.067,20.067,0,0,1-39.143-8.229Z" transform="translate(-193.345 -54.142)" fill="#2f2e41"/>
    <path id="Path_1078" data-name="Path 1078" d="M682.818,500.6a23.724,23.724,0,1,1-14.157-19.1c3.963-3.2,8.875-2.205,12.87,1.167,4.517,3.814,5.857,6.433,9.36,12.7C687.446,495.857,686.263,500.117,682.818,500.6Z" transform="translate(-193.345 -54.142)" fill="#2f2e41"/>
    <path id="Path_1079" data-name="Path 1079" d="M599.444,568.812c.254,6.722.757,19.953.757,20.628,0,.712,10.031,21.48,14.364,30.419v0c.308.63.585,1.2.83,1.7a4.028,4.028,0,0,0,3.7,2.275l18.937-.34A4.036,4.036,0,0,0,642,619.569l2.112-83.315a2.06,2.06,0,0,0-2.058-2.112H617.634a5.491,5.491,0,0,0-4.941,3.1l-11.721,24.25a15.5,15.5,0,0,0-1.528,7.32Z" transform="translate(-193.345 -54.142)" fill="#6c63ff"/>
    <path id="Path_1080" data-name="Path 1080" d="M642.331,613.852a54.233,54.233,0,0,0,12.939-10.936,60.009,60.009,0,0,0,14.955-34.888c.963-11.072-1.234-19.3-6.53-24.463-6.732-6.559-15.894-5.606-16.281-5.562l-.41.046L640.8,543.3l1.757,2.076,5.555-4.7c1.7-.085,8.641-.1,13.712,4.856,4.667,4.565,6.584,12.054,5.7,22.258a57.309,57.309,0,0,1-14.208,33.237,52.654,52.654,0,0,1-12.29,10.44Z" transform="translate(-193.345 -54.142)" fill="#6c63ff"/>
    <rect id="Rectangle_104" data-name="Rectangle 104" width="0.906" height="33.78" transform="matrix(0.201, -0.98, 0.98, 0.201, 413.559, 528.944)" fill="#3f3d56"/>
    <rect id="Rectangle_105" data-name="Rectangle 105" width="52.695" height="0.907" transform="matrix(0.041, -0.999, 0.999, 0.041, 433.404, 532.628)" fill="#3f3d56"/>
    <path id="Path_1081" data-name="Path 1081" d="M599.444,568.812c.254,6.722.757,19.953.757,20.628,0,.712,10.031,21.48,14.364,30.419l-8.077-46.9a10.338,10.338,0,0,0-6.713-7.973,15.215,15.215,0,0,0-.331,3.826Z" transform="translate(-193.345 -54.142)" fill="#3f3d56"/>
    <path id="Path_1082" data-name="Path 1082" d="M649.07,667.1a7.979,7.979,0,0,1,2.6-11.956l-1.642-18.16,10.792-3.689,1.958,25.677a8.022,8.022,0,0,1-13.7,8.128Z" transform="translate(-193.345 -54.142)" fill="#ffb7b7"/>
    <path id="Path_1083" data-name="Path 1083" d="M642.006,557.5a12.45,12.45,0,0,1,8.422-12.742,11.309,11.309,0,0,1,7.113.006,12.448,12.448,0,0,1,8.433,11.849l.809,92.222-19.123.693Z" transform="translate(-193.345 -54.142)" fill="#3f3d56"/>
  </g>
</svg>
