<svg xmlns="http://www.w3.org/2000/svg" width="555.394" height="468.466" viewBox="0 0 555.394 468.466">
  <g id="Group_8" data-name="Group 8" transform="translate(-355.203 -3920.535)">
    <g id="undraw_choose_re_7d5a" transform="translate(356.289 3884.067)">
      <path id="Rectangle_1_-_Outline" data-name="Rectangle 1 - Outline" d="M741.16,284.7,462.571,249.181a18.087,18.087,0,0,0-2.263-.147,17.255,17.255,0,0,0-2.231.141,17.066,17.066,0,0,0-2.19.429,17.494,17.494,0,0,0-2.14.722,18.225,18.225,0,0,0-1.992.963,18.958,18.958,0,0,0-1.889,1.2,20.231,20.231,0,0,0-1.777,1.451,22.092,22.092,0,0,0-1.659,1.685,23.756,23.756,0,0,0-1.512,1.9q-.714,1-1.34,2.086t-1.162,2.261q-.536,1.174-.977,2.427-.457,1.3-.8,2.648t-.575,2.753q-.226,1.4-.347,2.843t-.12,2.924q0,1.478.12,2.947t.347,2.913q.234,1.451.578,2.872t.8,2.811q.442,1.342.977,2.623t1.162,2.494q.626,1.212,1.34,2.355t1.512,2.208q.8,1.061,1.659,2.023t1.777,1.806q.917.849,1.889,1.585a23.621,23.621,0,0,0,1.992,1.358,21.767,21.767,0,0,0,2.14,1.147,20.072,20.072,0,0,0,2.19.868,18.974,18.974,0,0,0,2.231.589,18.473,18.473,0,0,0,2.263.307l278.588,20.378a7.058,7.058,0,0,0,2.407-.241,7.546,7.546,0,0,0,1.162-.429,8.594,8.594,0,0,0,1.128-.632,10.033,10.033,0,0,0,1.043-.795,11.672,11.672,0,0,0,.982-.963,13.87,13.87,0,0,0,.918-1.127q.444-.6.853-1.288t.774-1.426q.365-.743.682-1.543t.59-1.654q.271-.855.494-1.76.235-.937.4-1.907t.29-1.969q.117-1,.175-2.025t.058-2.074q0-1.047-.058-2.085t-.175-2.06q-.117-1.022-.29-2.027t-.4-1.989q-.223-.951-.494-1.859t-.59-1.765q-.321-.869-.682-1.685t-.774-1.582q-.41-.767-.853-1.459t-.918-1.312q-.475-.62-.982-1.16a13.5,13.5,0,0,0-1.042-1,11.316,11.316,0,0,0-1.128-.858,9.512,9.512,0,0,0-1.162-.662,8.279,8.279,0,0,0-1.192-.462,7.6,7.6,0,0,0-1.218-.259" transform="translate(-320.413 -158.75)" fill="#6c63ff"/>
      <path id="Rectangle_3_-_Outline" data-name="Rectangle 3 - Outline" d="M741.16,364.8l-278.588-6.672a17.909,17.909,0,0,0-4.494.459,18.345,18.345,0,0,0-2.19.656,19.412,19.412,0,0,0-2.14.939,20.737,20.737,0,0,0-1.992,1.165,21.912,21.912,0,0,0-1.889,1.4,23.584,23.584,0,0,0-1.777,1.635q-.861.876-1.659,1.863t-1.512,2.062q-.714,1.073-1.34,2.225t-1.162,2.381q-.536,1.229-.977,2.528-.457,1.345-.8,2.733t-.575,2.812q-.226,1.424-.347,2.881t-.12,2.936q0,1.479.12,2.935t.347,2.878q.234,1.416.578,2.8t.8,2.728q.442,1.3.977,2.528t1.162,2.374q.626,1.148,1.34,2.216t1.512,2.046q.8.982,1.659,1.853a23.352,23.352,0,0,0,1.777,1.624,21.714,21.714,0,0,0,1.889,1.39,20.555,20.555,0,0,0,1.992,1.152,19.275,19.275,0,0,0,2.14.926,18.246,18.246,0,0,0,2.19.642,17.816,17.816,0,0,0,2.231.361,18,18,0,0,0,2.263.073l278.586-8.476a7.249,7.249,0,0,0,1.218-.141,7.575,7.575,0,0,0,1.192-.345,8.44,8.44,0,0,0,1.162-.549,9.868,9.868,0,0,0,1.128-.749,11.7,11.7,0,0,0,1.042-.9,13.616,13.616,0,0,0,.982-1.064q.474-.568.918-1.222t.853-1.376q.409-.727.774-1.507t.682-1.613q.319-.846.59-1.723t.494-1.806q.235-.951.4-1.939t.29-2q.117-1.015.175-2.046t.058-2.08q0-1.039-.058-2.075t-.175-2.046q-.117-1.014-.29-2t-.4-1.946q-.224-.929-.495-1.81t-.589-1.712q-.317-.831-.681-1.609t-.774-1.5q-.41-.723-.853-1.372t-.918-1.217a13.5,13.5,0,0,0-.982-1.058,11.565,11.565,0,0,0-1.042-.9,9.781,9.781,0,0,0-1.128-.742,8.375,8.375,0,0,0-1.163-.539,7.534,7.534,0,0,0-1.192-.338,7.23,7.23,0,0,0-1.218-.132" transform="translate(-320.413 -158.75)" fill="#e5e5e5"/>
      <path id="Rectangle_4_-_Outline" data-name="Rectangle 4 - Outline" d="M741.16,439.9,462.571,460.278a18.477,18.477,0,0,0-2.263.307,18.98,18.98,0,0,0-2.231.589,20.079,20.079,0,0,0-2.19.868,21.772,21.772,0,0,0-2.14,1.147,23.63,23.63,0,0,0-1.992,1.358q-.973.743-1.889,1.585t-1.777,1.806q-.861.959-1.659,2.023t-1.512,2.21q-.714,1.142-1.34,2.355t-1.162,2.494q-.536,1.281-.977,2.623-.457,1.387-.8,2.811t-.575,2.869q-.226,1.447-.347,2.914t-.12,2.947q0,1.479.12,2.924t.347,2.844q.234,1.4.578,2.754t.8,2.648q.442,1.254.977,2.427t1.162,2.261q.626,1.087,1.34,2.086a23.752,23.752,0,0,0,1.512,1.9,22.079,22.079,0,0,0,1.659,1.685,20.234,20.234,0,0,0,1.777,1.451,18.96,18.96,0,0,0,1.889,1.2,18.214,18.214,0,0,0,1.992.963,17.491,17.491,0,0,0,2.14.722,17.067,17.067,0,0,0,2.19.429,17.261,17.261,0,0,0,2.231.141,18.089,18.089,0,0,0,2.263-.147L741.16,481.969a7.6,7.6,0,0,0,1.218-.259,8.272,8.272,0,0,0,1.192-.462,9.489,9.489,0,0,0,1.162-.662,11.317,11.317,0,0,0,1.128-.858,13.506,13.506,0,0,0,1.042-1q.5-.542.982-1.16t.918-1.312q.444-.693.853-1.459t.774-1.582q.365-.821.682-1.685t.59-1.776q.271-.908.494-1.859.235-.985.4-1.99t.29-2.027q.117-1.022.175-2.06t.058-2.086q0-1.042-.059-2.068t-.175-2.025q-.116-1-.289-1.973t-.4-1.907q-.223-.906-.494-1.76t-.589-1.654q-.321-.8-.683-1.543t-.778-1.423q-.411-.686-.853-1.288a13.864,13.864,0,0,0-.918-1.127A11.686,11.686,0,0,0,746.9,442a10.041,10.041,0,0,0-1.042-.794,8.594,8.594,0,0,0-1.128-.632,7.553,7.553,0,0,0-1.162-.429,7.055,7.055,0,0,0-2.407-.241" transform="translate(-320.413 -158.75)" fill="#e5e5e5"/>
      <path id="Ellipse_3_-_Outline" data-name="Ellipse 3 - Outline" d="M351.315,355.26a24.912,24.912,0,0,0-2.769.361,25.347,25.347,0,0,0-2.729.669,26.34,26.34,0,0,0-2.68.98,27.952,27.952,0,0,0-2.621,1.288q-1.248.7-2.44,1.526t-2.315,1.772q-1.122.945-2.178,2.015t-2.034,2.257q-.979,1.187-1.855,2.459t-1.644,2.622q-.761,1.352-1.423,2.777t-1.2,2.917q-.565,1.547-.988,3.126t-.707,3.185q-.284,1.606-.426,3.233t-.142,3.268q0,1.641.142,3.239t.426,3.148q.283,1.549.707,3.043t.985,2.926q.546,1.383,1.2,2.676a28.583,28.583,0,0,0,1.425,2.489,27.3,27.3,0,0,0,1.644,2.287,26.512,26.512,0,0,0,1.856,2.091,25.411,25.411,0,0,0,2.034,1.849,24.087,24.087,0,0,0,2.179,1.58,23.192,23.192,0,0,0,4.755,2.34,22.744,22.744,0,0,0,5.3,1.2,23.284,23.284,0,0,0,2.729.12,24.5,24.5,0,0,0,2.769-.2,25.365,25.365,0,0,0,2.754-.507,25.855,25.855,0,0,0,2.69-.808,26.951,26.951,0,0,0,2.618-1.1,28.609,28.609,0,0,0,2.538-1.394q1.2-.749,2.338-1.606t2.2-1.827q1.066-.97,2.06-2.046t1.909-2.258q.922-1.181,1.736-2.433t1.524-2.57q.71-1.318,1.314-2.7t1.1-2.817q.515-1.488.9-3t.645-3.048q.258-1.536.388-3.088t.13-3.116q0-1.565-.13-3.091t-.388-3.009q-.258-1.481-.645-2.918t-.9-2.82q-.5-1.339-1.1-2.6t-1.32-2.434a27.3,27.3,0,0,0-3.254-4.349,25.792,25.792,0,0,0-1.9-1.877,24.388,24.388,0,0,0-2.06-1.633,23.573,23.573,0,0,0-2.2-1.385,23.3,23.3,0,0,0-2.342-1.132,22.722,22.722,0,0,0-5.154-1.463,23.07,23.07,0,0,0-2.69-.268,24.15,24.15,0,0,0-2.754.046" transform="translate(-320.413 -158.75)" fill="#e5e5e5"/>
      <path id="Ellipse_3_-_Outline-2" data-name="Ellipse 3 - Outline" d="M351.315,468.413a24.912,24.912,0,0,0-2.769.361,25.347,25.347,0,0,0-2.729.669,26.354,26.354,0,0,0-2.68.98,27.956,27.956,0,0,0-2.621,1.288q-1.248.7-2.44,1.526t-2.315,1.772q-1.122.945-2.178,2.015t-2.034,2.257q-.979,1.187-1.855,2.459t-1.644,2.622q-.761,1.352-1.423,2.777t-1.2,2.917q-.565,1.547-.988,3.126t-.707,3.185q-.284,1.606-.426,3.233t-.142,3.268q0,1.641.142,3.239t.426,3.148q.283,1.549.707,3.043t.985,2.926q.546,1.383,1.2,2.676a28.584,28.584,0,0,0,1.425,2.489,27.3,27.3,0,0,0,1.644,2.287,26.51,26.51,0,0,0,1.856,2.091,25.411,25.411,0,0,0,2.034,1.849,24.071,24.071,0,0,0,2.179,1.581,23.189,23.189,0,0,0,4.755,2.34,22.743,22.743,0,0,0,5.3,1.2,23.3,23.3,0,0,0,2.729.12,24.5,24.5,0,0,0,2.769-.2,25.378,25.378,0,0,0,2.754-.507,25.848,25.848,0,0,0,2.69-.808,26.925,26.925,0,0,0,2.618-1.1,28.609,28.609,0,0,0,2.538-1.394q1.2-.749,2.338-1.606t2.2-1.827q1.066-.97,2.06-2.046t1.909-2.258q.922-1.181,1.736-2.433t1.524-2.57q.71-1.318,1.314-2.7t1.1-2.817q.515-1.488.9-3t.645-3.048q.258-1.536.388-3.088t.13-3.117q0-1.565-.13-3.091t-.388-3.009q-.258-1.481-.645-2.918t-.9-2.82q-.5-1.339-1.1-2.6t-1.32-2.434a27.3,27.3,0,0,0-3.254-4.349,25.791,25.791,0,0,0-1.9-1.877,24.389,24.389,0,0,0-2.06-1.633,23.566,23.566,0,0,0-2.2-1.385,23.29,23.29,0,0,0-2.342-1.132,22.719,22.719,0,0,0-5.154-1.463,23.069,23.069,0,0,0-2.69-.268,24.144,24.144,0,0,0-2.754.046" transform="translate(-320.413 -158.75)" fill="#e5e5e5"/>
      <path id="Ellipse_2_-_Outline" data-name="Ellipse 2 - Outline" d="M351.32,232.68a24.34,24.34,0,0,0-2.769.09,23.983,23.983,0,0,0-2.729.4,24.242,24.242,0,0,0-2.68.722,25.113,25.113,0,0,0-2.621,1.034,26.094,26.094,0,0,0-2.44,1.284,26.793,26.793,0,0,0-2.315,1.548,27.979,27.979,0,0,0-2.179,1.806q-1.061.974-2.038,2.064t-1.855,2.28q-.876,1.188-1.644,2.463-.764,1.292-1.426,2.647t-1.2,2.8q-.561,1.489-.985,3.027t-.707,3.117q-.284,1.583-.426,3.192t-.142,3.25q0,1.638.142,3.25t.426,3.189q.283,1.577.707,3.112t.985,3.021q.546,1.436,1.2,2.793t1.43,2.623q.768,1.271,1.644,2.452t1.855,2.268q.98,1.083,2.034,2.046a27.707,27.707,0,0,0,2.168,1.8,26.544,26.544,0,0,0,2.315,1.532,25.886,25.886,0,0,0,2.44,1.269,24.944,24.944,0,0,0,2.621,1.017,23.982,23.982,0,0,0,5.408,1.083,24.492,24.492,0,0,0,5.522-.167,24.16,24.16,0,0,0,2.69-.546,24.5,24.5,0,0,0,2.618-.85,25.45,25.45,0,0,0,2.538-1.147,26.493,26.493,0,0,0,2.342-1.373,27.235,27.235,0,0,0,2.2-1.614q1.067-.867,2.06-1.847t1.909-2.073q.922-1.093,1.736-2.265t1.524-2.422q.713-1.249,1.314-2.57t1.1-2.7q.515-1.437.9-2.913t.645-2.985q.258-1.516.388-3.055t.13-3.1q0-1.564-.13-3.1t-.388-3.047q-.258-1.508-.645-2.983t-.9-2.908q-.5-1.386-1.1-2.7t-1.32-2.565q-.71-1.237-1.524-2.408t-1.73-2.253q-.91-1.082-1.9-2.057t-2.06-1.833a26.965,26.965,0,0,0-2.2-1.6,26.274,26.274,0,0,0-2.342-1.359,25.278,25.278,0,0,0-2.538-1.132,24.363,24.363,0,0,0-2.618-.833,24.065,24.065,0,0,0-2.69-.53,24.374,24.374,0,0,0-2.754-.222m0-3.012a26.747,26.747,0,0,1,11.6,3,30.442,30.442,0,0,1,9.3,7.515,35.431,35.431,0,0,1,6.187,10.864,39.624,39.624,0,0,1,0,26.337,35.727,35.727,0,0,1-6.187,10.9,30.728,30.728,0,0,1-9.3,7.57,26.872,26.872,0,0,1-11.6,3.078,26.518,26.518,0,0,1-11.835-2.359,29.925,29.925,0,0,1-9.845-7.26,35.052,35.052,0,0,1-6.731-11.115,39.585,39.585,0,0,1,0-27.622,35.35,35.35,0,0,1,6.731-11.159,30.2,30.2,0,0,1,9.845-7.324,26.617,26.617,0,0,1,11.842-2.435Z" transform="translate(-320.413 -158.75)" fill="#6c63ff" stroke="#6c63ff" stroke-width="2"/>
      <path id="Path_1" data-name="Path 1" d="M351.317,272.824l-9.482-19.754,2.251-1.466,7.81,16.228,32.793-38.544,1.985,2.115Z" transform="translate(-320.413 -158.75)" fill="#6c63ff" stroke="#6c63ff" stroke-width="4"/>
    </g>
    <path id="Path_904" data-name="Path 904" d="M668.364,394.037l-46.289-33.066a9,9,0,0,0-7.609-9.951c-4.808-.717-11.489-4.784-12.354,0s4.4,16.688,9.155,17.7c5.786,4.858,48.048,46.888,54.1,44.671,6.142-2.25,32.993-6.323,32.993-6.323l.748-25.5Z" transform="translate(13.838 3658.11)" fill="#9e616a"/>
    <path id="Path_908" data-name="Path 908" d="M706.848,411.651c7.239-7.115,14.515-14.272,20.475-22.488s10.594-17.621,11.887-27.688a20.509,20.509,0,0,0-.641-9.62c-1.111-3.049-3.569-5.755-6.739-6.451-5.072-1.114-9.683,2.934-13.3,6.658L686.514,385l20.393,26.844Z" transform="translate(13.838 3658.11)" fill="#e5e5e5"/>
    <path id="Path_899" data-name="Path 899" d="M760.066,312.227c-1.935-14.19-4.361-29.424-14.369-39.668a33.655,33.655,0,0,0-48.626.5c-7.285,7.772-10.5,18.685-10.8,29.333s2.077,21.179,4.708,31.5a97.091,97.091,0,0,0,40.521-7.976,65.281,65.281,0,0,1,9.716-3.814c3.376-.859,5.782,1.3,8.923,2.811l1.724-3.3c1.411,2.626,5.781,1.848,7.366-.677S760.469,315.181,760.066,312.227Z" transform="translate(13.838 3658.11)" fill="#2f2e41"/>
    <path id="Path_900" data-name="Path 900" d="M612.434,535.007l-10.226,6.763-30.951-36.225,15.092-9.981Z" transform="translate(289 3824)" fill="#9e616a"/>
    <path id="Path_901" data-name="Path 901" d="M896.76,709.084,863.787,730.89l-.276-.417a15.387,15.387,0,0,1,4.346-21.321h0L888,695.833Z" transform="translate(13.838 3658.11)" fill="#2f2e41"/>
    <path id="Path_902" data-name="Path 902" d="M480.429,553.116h-12.26l-5.832-47.288h18.094Z" transform="translate(289 3824)" fill="#9e616a"/>
    <path id="Path_903" data-name="Path 903" d="M758.718,730.89H719.187v-.5A15.387,15.387,0,0,1,734.572,715h24.146Z" transform="translate(13.838 3658.11)" fill="#2f2e41"/>
    <path id="Path_905" data-name="Path 905" d="M704.733,454.2l.437,58.178s10.017,86.2,13.712,100.763,18.691,81.946,18.691,81.946l24.379-3.933-15.7-88.1L751,530.037l27.364,73.178,69.485,72.633,17.61-14.209-60.481-88.881L786.5,499.946s2.3-37.66-18.4-52.163Z" transform="translate(13.838 3658.11)" fill="#2f2e41"/>
    <circle id="Ellipse_175" data-name="Ellipse 175" cx="26.721" cy="26.721" r="26.721" transform="translate(705.854 3930.935)" fill="#9e616a"/>
    <rect id="Rectangle_81" data-name="Rectangle 81" width="24.292" height="31.579" transform="translate(729.596 4143.866) rotate(-65.867)" fill="#2f2e41"/>
    <path id="Path_907" data-name="Path 907" d="M761.534,350.959c-3.149-6.267-4.679-14.009-11.392-16.041-4.533-1.372-22.868.684-27,3-6.872,3.852-.645,11.071-4.7,17.826L705.22,377.775c-3.03,5.049-6.092,10.169-7.73,15.824s-1.717,12,1.074,17.188c2.5,4.64,7.023,7.932,9.535,12.564,2.612,4.818-2.077,26.331-4.509,31.243l1.167.539a263.086,263.086,0,0,0,48.448-1.63c3.987-.5,8.127-1.164,11.413-3.479,4.84-3.409,6.753-9.6,7.949-15.393a129.677,129.677,0,0,0-11.034-83.673Z" transform="translate(13.838 3658.11)" fill="#2f2e41"/>
    <path id="Path_909" data-name="Path 909" d="M785.753,417.131c-2.25-6.141-6.323-32.993-6.323-32.993l-25.5-.748L766.4,414.134,732.385,461.75s.063.1.177.291a9,9,0,1,0,7.545,9.559.621.621,0,0,0,.78-.134C744.672,466.717,788,423.273,785.753,417.131Z" transform="translate(13.838 3658.11)" fill="#9e616a"/>
    <path id="Path_910" data-name="Path 910" d="M788.345,400.173c-2.34-9.877-4.7-19.807-8.643-29.159s-9.593-18.185-17.537-24.5a20.508,20.508,0,0,0-8.563-4.431c-3.184-.628-6.772.075-9.007,2.427-3.578,3.763-2.5,9.8-1.189,14.828l11.609,44.441,33.523-3.553Z" transform="translate(13.838 3658.11)" fill="#e5e5e5"/>
    <path id="Path_911" data-name="Path 911" d="M752.141,301.624c-.835-6.464-1.708-12.982-3.671-19.069s-5.126-11.787-9.664-15.235c-7.185-5.459-16.488-4.406-24.544-1.266-6.23,2.428-12.312,6.12-16.7,12.053s-6.861,14.4-5.227,22.16l25.78-7.174-.941.783c5.576,3.142,9.812,9.644,11.077,17a28.717,28.717,0,0,1-4.537,21.038l17.582-7.347c3.617-1.512,7.489-3.253,9.634-7.13C753.413,312.946,752.835,306.988,752.141,301.624Z" transform="translate(13.838 3658.11)" fill="#2f2e41"/>
  </g>
</svg>
