<svg xmlns="http://www.w3.org/2000/svg" width="17.783" height="16.825" viewBox="0 0 17.783 16.825">
  <g id="Share" transform="translate(-5.533 -5.883)">
    <path id="Path_660" data-name="Path 660" d="M196.731.671a.589.589,0,0,0-1,.417V4.229a8.041,8.041,0,0,0-5.014,1.663,8.923,8.923,0,0,0-3.1,5.187,9.137,9.137,0,0,0-.105,2.989h0v.026l.125.719a.589.589,0,0,0,1.085.2l.375-.625a8.268,8.268,0,0,1,4.265-3.772,6.186,6.186,0,0,1,2.362-.346v3.253a.589.589,0,0,0,1.006.415l6.22-6.251a.589.589,0,0,0,0-.832Zm0,0" transform="translate(-180.902 6.4)" fill="none" stroke="#000" stroke-width="2"/>
  </g>
</svg>
