<?xml version="1.0" encoding="utf-8"?>
<!-- Generator: Adobe Illustrator 22.0.1, SVG Export Plug-In . SVG Version: 6.00 Build 0)  -->
<svg fill="#000000" width="52" height="52" version="1.1" id="lni_lni-taco" xmlns="http://www.w3.org/2000/svg" xmlns:xlink="http://www.w3.org/1999/xlink" x="0px"
	 y="0px" viewBox="0 0 64 64" style="enable-background:new 0 0 64 64;" xml:space="preserve">
<g>
	<path d="M62.6,32.5c-0.5-1.9-2.1-3.2-3.5-4.3c-0.9-0.7-1.7-1.3-2-2c-0.4-0.7-0.5-1.7-0.7-2.8c-0.3-1.7-0.6-3.7-2-5.1
		c-1.4-1.4-3.4-1.7-5.1-2c-1.1-0.2-2.2-0.3-2.8-0.7c-0.6-0.4-1.3-1.2-2-2c-1.1-1.4-2.4-3-4.3-3.5c-1.9-0.5-3.7,0.2-5.3,0.8
		c-1.1,0.4-2.1,0.8-2.9,0.8c-0.8,0-1.8-0.4-2.9-0.8c-1.6-0.6-3.5-1.3-5.3-0.8c-1.9,0.5-3.2,2.1-4.3,3.5c-0.7,0.9-1.3,1.7-2,2
		c-0.7,0.4-1.7,0.5-2.8,0.7c-1.7,0.3-3.7,0.6-5.1,2c-1.4,1.4-1.7,3.4-2,5.1c-0.2,1.1-0.3,2.2-0.7,2.8c-0.4,0.6-1.2,1.3-2.1,2
		c-1.4,1.1-3,2.4-3.5,4.3c-0.5,1.9,0.6,4.1,1.8,6.3c0.2,0.4,0.4,0.8,0.6,1.3c-0.3,1.5-0.5,3-0.5,4.6v6.7c0,1.5,1.2,2.8,2.8,2.8h51.9
		c1.5,0,2.8-1.2,2.8-2.8v-6.7c0-1.6-0.2-3.1-0.5-4.6c0.2-0.4,0.4-0.8,0.6-1.2C62,36.6,63.1,34.5,62.6,32.5z M57.2,50.6H6.8v-5.9
		c0-10.6,8.6-19.3,19.3-19.3h11.9c10.6,0,19.3,8.6,19.3,19.3V50.6z M37.9,21.9H26.1c-9.2,0-17.2,5.5-20.8,13.4
		c-0.4-0.8-0.6-1.6-0.5-1.9C5,32.6,6,31.8,7,31c1.1-0.9,2.2-1.7,2.9-3c0.7-1.2,0.9-2.7,1.2-4c0.2-1.3,0.4-2.6,1-3.2
		c0.6-0.6,1.9-0.8,3.2-1c1.4-0.2,2.8-0.4,4-1.1c1.2-0.7,2.1-1.8,3-2.9c0.8-1,1.6-2.1,2.5-2.3c0.8-0.2,2,0.3,3.2,0.7
		c1.3,0.5,2.7,1,4.1,1c1.5,0,2.8-0.5,4.1-1c1.2-0.5,2.4-0.9,3.1-0.7c0.8,0.2,1.7,1.3,2.5,2.3c0.9,1.1,1.8,2.2,3,2.9
		c1.2,0.7,2.7,0.9,4,1.2c1.3,0.2,2.6,0.4,3.2,1c0.6,0.6,0.8,1.9,1,3.2c0.2,1.4,0.4,2.8,1.1,4c0.7,1.2,1.8,2.1,2.9,3
		c1,0.8,2.1,1.6,2.3,2.5c0.1,0.3-0.2,1.1-0.5,1.9C55.1,27.4,47.2,21.9,37.9,21.9z"/>
	<path d="M21.3,39.1c-1.4-0.3-2.7,0.7-3,2c-0.3,1.4,0.7,2.7,2,3c1.4,0.3,2.7-0.7,3-2C23.6,40.7,22.7,39.3,21.3,39.1z"/>
	<path d="M27.3,30.1c-1.4-0.3-2.7,0.7-3,2c-0.3,1.4,0.7,2.7,2,3c1.4,0.3,2.7-0.7,3-2C29.6,31.7,28.7,30.4,27.3,30.1z"/>
	<path d="M39.8,36.5c-1.4-0.3-2.7,0.7-3,2c-0.3,1.4,0.7,2.7,2,3c1.4,0.3,2.7-0.7,3-2C42.1,38.1,41.2,36.8,39.8,36.5z"/>
	<path d="M49.3,42.4c-1.4-0.3-2.7,0.7-3,2c-0.3,1.4,0.7,2.7,2,3c1.4,0.3,2.7-0.7,3-2C51.6,44,50.7,42.7,49.3,42.4z"/>
</g>
</svg>
