<?xml version="1.0" encoding="utf-8"?>
<!-- Generator: Adobe Illustrator 22.0.1, SVG Export Plug-In . SVG Version: 6.00 Build 0)  -->
<svg fill="#000000" width="52" height="52" version="1.1" id="lni_lni-cocktail-alt-1" xmlns="http://www.w3.org/2000/svg" xmlns:xlink="http://www.w3.org/1999/xlink"
	 x="0px" y="0px" viewBox="0 0 64 64" style="enable-background:new 0 0 64 64;" xml:space="preserve">
<path d="M54.1,5.9c0.6-0.7,0.7-1.7,0.3-2.5C54,2.5,53.2,2,52.3,2H11.7C10.8,2,10,2.5,9.6,3.4C9.2,4.2,9.3,5.2,9.9,5.9l21.2,26.6V60
	h-7.9c-0.6,0-1,0.4-1,1s0.4,1,1,1H41c0.6,0,1-0.4,1-1s-0.4-1-1-1h-7.9V32.2L54.1,5.9z M20.9,16.5l2.5-2.2c1.4-1.2,3.4-1.2,4.7,0
	c2.1,1.9,5.2,1.9,7.4,0c1.4-1.2,3.3-1.2,4.7,0l2.7,2.4L32,30.4L20.9,16.5z M11.4,4.2c0-0.1,0.1-0.2,0.4-0.2h40.5
	c0.2,0,0.3,0.1,0.4,0.2c0,0.1,0.1,0.3,0,0.4l-8.4,10.5l-2.7-2.3c-2.1-1.9-5.2-1.9-7.4,0c-1.4,1.2-3.4,1.2-4.7,0
	c-2.1-1.9-5.2-1.9-7.4,0L19.7,15L11.4,4.6C11.3,4.5,11.3,4.3,11.4,4.2z"/>
</svg>
