<?xml version="1.0" encoding="utf-8"?>
<!-- Generator: Adobe Illustrator 22.0.1, SVG Export Plug-In . SVG Version: 6.00 Build 0)  -->
<svg fill="#000000" width="52" height="52" version="1.1" id="lni_lni-cupcake-alt" xmlns="http://www.w3.org/2000/svg" xmlns:xlink="http://www.w3.org/1999/xlink"
	 x="0px" y="0px" viewBox="0 0 64 64" style="enable-background:new 0 0 64 64;" xml:space="preserve">
<path d="M58.1,33.2c-0.8-1.2-2.2-1.9-3.7-1.9h-3.6c0-0.1,0-0.2,0-0.2c0-6.1-3-11.5-7.5-14.9c1.9-1.1,3.2-3.1,3.2-5.4
	c1.8-0.6,5.9-2.5,8-7c0.4-0.9,0-1.9-0.8-2.3c-0.9-0.4-1.9,0-2.3,0.8c-1.5,3.1-4.3,4.5-5.8,5.1c-1.1-1.8-3.1-3-5.4-3
	c-3.5,0-6.3,2.8-6.3,6.3c0,0.6,0.1,1.3,0.3,1.8c-0.7-0.1-1.4-0.1-2.1-0.1c-10.4,0-18.8,8.4-18.8,18.7c0,0.1,0,0.2,0,0.2H9.6
	c-1.5,0-2.8,0.7-3.7,1.9c-0.8,1.2-1,2.7-0.6,4.1l8.1,22.5c0.6,1.8,2.3,3,4.2,3h28.7c1.9,0,3.6-1.2,4.2-3l8.1-22.5
	C59.1,35.9,58.9,34.4,58.1,33.2z M40.2,7.8c1.6,0,2.8,1.3,2.8,2.8c0,1.6-1.3,2.8-2.8,2.8s-2.8-1.3-2.8-2.8
	C37.3,9.1,38.6,7.8,40.2,7.8z M34.3,59.3V34.8H44l-3.8,24.4H34.3z M24.8,59.3L21,34.8h9.7v24.4H24.8z M16.7,31.1
	c0-8.4,6.9-15.2,15.3-15.2s15.3,6.8,15.3,15.2c0,0.1,0,0.2,0,0.2H16.7C16.7,31.2,16.7,31.1,16.7,31.1z M16.7,58.6L8.7,36.1
	c-0.1-0.4,0-0.7,0.1-0.9s0.4-0.4,0.8-0.4h7.8l3.8,24.4h-3.6C17.3,59.3,16.9,59,16.7,58.6z M55.3,36.1l-8.1,22.5
	c-0.1,0.4-0.5,0.7-0.9,0.7h-2.6l3.8-24.4h6.8c0.4,0,0.7,0.3,0.8,0.4S55.5,35.7,55.3,36.1z"/>
</svg>
