<?xml version="1.0" encoding="utf-8"?>
<!-- Generator: Adobe Illustrator 22.0.1, SVG Export Plug-In . SVG Version: 6.00 Build 0)  -->
<svg fill="#000000" width="52" height="52" version="1.1" id="lni_lni-tree-money" xmlns="http://www.w3.org/2000/svg" xmlns:xlink="http://www.w3.org/1999/xlink" x="0px"
	 y="0px" viewBox="0 0 64 64" style="enable-background:new 0 0 64 64;" xml:space="preserve">
<path d="M55.1,24.2c-0.1-0.7-0.7-1.3-1.5-1.4c-3.9-0.5-8.3,0.8-11.6,3.5c-3.1,2.5-4.8,5.8-4.6,8.9l-3.8,3.2V21.9
	c2.4-0.6,4.1-2.7,4.1-5.2c0-2.9-2.4-5.3-5.3-5.3h-3.1c-1,0-1.8-0.8-1.8-1.8c0-1,0.8-1.8,1.8-1.8H36c1,0,1.8-0.8,1.8-1.8
	S37,4.3,36,4.3h-2.4V3c0-1-0.8-1.8-1.7-1.8S30.2,2,30.2,3v1.3h-0.8c-2.9,0-5.3,2.4-5.3,5.3s2.4,5.3,5.3,5.3h3.1c1,0,1.8,0.8,1.8,1.8
	c0,1-0.8,1.8-1.8,1.8h-6.7c-1,0-1.8,0.8-1.8,1.8s0.8,1.8,1.8,1.8h4.4v16.2l-3.6-3.1c0.2-3.1-1.5-6.4-4.6-8.9
	c-3.3-2.6-7.7-4-11.6-3.5c-0.7,0.1-1.3,0.7-1.5,1.4c-0.7,3.4,1,7.2,4.5,9.9h0c2.8,2.3,6.5,3.6,10,3.6c0.3,0,0.5,0,0.8-0.1l6.4,5.5
	c0,0,0,0.1,0.1,0.1c0.1,0.1,0.2,0.2,0.3,0.3h-4.4c-1.8,0-3.5,0.8-4.6,2.2c-1.2,1.4-1.6,3.2-1.3,5l1.3,7.1c0.5,2.9,3,5,6,5h9.1
	c2.9,0,5.4-2.1,6-5l1.3-7.1c0.3-1.8-0.2-3.6-1.3-5c-1.2-1.4-2.8-2.2-4.6-2.2h-5.1c0.1-0.1,0.2-0.2,0.3-0.3c0,0,0-0.1,0.1-0.1
	l6.4-5.5c0.3,0,0.5,0.1,0.8,0.1c3.4,0,7.1-1.3,10-3.6C54.1,31.4,55.8,27.6,55.1,24.2z M15.5,31.4c-1.9-1.5-3.1-3.4-3.3-5.2
	c2.6,0.1,5.4,1.1,7.5,2.8c1.9,1.5,3.1,3.5,3.3,5.2C20.5,34.2,17.7,33.2,15.5,31.4L15.5,31.4z M40.1,47.9c0.5,0.6,0.7,1.3,0.6,2.1
	l-1.3,7.1c-0.2,1.2-1.3,2.1-2.5,2.1h-9.1c-1.2,0-2.3-0.9-2.5-2.1L23.9,50c-0.1-0.7,0.1-1.5,0.6-2.1s1.2-0.9,2-0.9h11.7
	C38.9,47,39.7,47.3,40.1,47.9z M48.5,31.4c-2.2,1.7-4.9,2.8-7.5,2.8c0.2-1.8,1.4-3.7,3.3-5.2c2.2-1.7,4.9-2.7,7.5-2.8
	C51.6,28,50.4,29.9,48.5,31.4z"/>
</svg>
