<?xml version="1.0" encoding="utf-8"?>
<!-- Generator: Adobe Illustrator 22.0.1, SVG Export Plug-In . SVG Version: 6.00 Build 0)  -->
<svg fill="#000000" width="52" height="52" version="1.1" id="lni_lni-view" xmlns="http://www.w3.org/2000/svg" xmlns:xlink="http://www.w3.org/1999/xlink" x="0px"
	 y="0px" viewBox="0 0 64 64" style="enable-background:new 0 0 64 64;" xml:space="preserve">
<g>
	<path d="M28.4,20.1c-9.3,0-15.6,6.9-15.9,7.2c-0.5,0.5-0.6,1.3-0.3,2c0.2,0.3,4.1,7.5,16.2,7.5c11.4,0,15.9-7.1,16.1-7.4
		c0.4-0.6,0.3-1.4-0.1-2C44.2,27,38.6,20.1,28.4,20.1z M28.4,33.3c-7.3,0-10.9-3-12.3-4.6c1.9-1.7,6.4-5.1,12.3-5.1
		c6.4,0,10.6,3.2,12.3,4.9C39.2,30.2,35.4,33.3,28.4,33.3z"/>
	<circle cx="28.4" cy="28.4" r="2.2"/>
	<path d="M62.2,59.8L48.8,46.3c9.4-10.7,9-27-1.2-37.1C37-1.4,19.8-1.4,9.2,9.2C-1.4,19.8-1.4,37,9.2,47.6
		c5.3,5.3,12.3,7.9,19.2,7.9c6.4,0,12.8-2.3,17.9-6.8l13.4,13.4c0.3,0.3,0.8,0.5,1.2,0.5s0.9-0.2,1.2-0.5
		C62.9,61.6,62.9,60.4,62.2,59.8z M11.7,45.2c-9.2-9.2-9.2-24.2,0-33.5c4.6-4.6,10.7-6.9,16.7-6.9c6.1,0,12.1,2.3,16.7,6.9
		c9.2,9.2,9.2,24.2,0,33.5C35.9,54.4,20.9,54.4,11.7,45.2z"/>
</g>
</svg>
