<svg xmlns="http://www.w3.org/2000/svg" width="599.696" height="651.72" viewBox="0 0 599.696 651.72">
  <g id="undraw_things_to_say_ewwb" transform="translate(-58.304 -107.193)">
    <circle id="Ellipse_212" data-name="Ellipse 212" cx="13" cy="13" r="13" transform="translate(88 393.193)" fill="#e5e5e5"/>
    <circle id="Ellipse_213" data-name="Ellipse 213" cx="13" cy="13" r="13" transform="translate(145 500.193)" fill="#6c63ff"/>
    <circle id="Ellipse_214" data-name="Ellipse 214" cx="13" cy="13" r="13" transform="translate(101 473.193)" fill="#6c63ff"/>
    <path id="Path_1085" data-name="Path 1085" d="M667.777,800.745l-.747-.03c1.742-43.312,10.813-71.14,18.115-86.858,7.929-17.067,15.57-23.976,15.646-24.044l.5.559c-.075.067-7.627,6.908-15.493,23.859C678.533,729.883,669.512,757.6,667.777,800.745Z" transform="translate(-147.858 -70.537)" fill="#f2f2f2"/>
    <path id="Path_1086" data-name="Path 1086" d="M747.862,800.835l-.718-.209c8.641-29.66,28.99-48.387,29.2-48.573l.5.553a115.174,115.174,0,0,0-28.98,48.228Z" transform="translate(-147.858 -70.537)" fill="#cfcce0"/>
    <path id="Path_1087" data-name="Path 1087" d="M595.727,800.782l-.741-.1a81.417,81.417,0,0,0-7.323-47.588,65.527,65.527,0,0,0-11.557-16.865l.517-.539a66.342,66.342,0,0,1,11.71,17.073,82.163,82.163,0,0,1,7.393,48.022Z" transform="translate(-147.858 -70.537)" fill="#e5e5e5"/>
    <path id="Path_1089" data-name="Path 1089" d="M446.375,588.11a26.737,26.737,0,0,1,.04,7.335c-.066.552-.151,1.094-.249,1.63v0a43.446,43.446,0,0,1-6.812,16.068c-.218.314-.343.477-.343.477l-.467-.357a44.873,44.873,0,0,1-9.514-10.443c-.228-.359-.456-.722-.673-1.1a28.627,28.627,0,0,1-3.836-10.3l-.008-.053c-.058-.389-.108-.778-.145-1.166a29.416,29.416,0,0,1,.867-10.157c.1-.413.213-.818.331-1.22a44.885,44.885,0,0,1,5.967-12.5c.218-.314.343-.477.343-.477s.167.12.467.356a44.881,44.881,0,0,1,9.294,10.108c.225.343.447.691.665,1.047a30.591,30.591,0,0,1,3.434,7.751c.133.477.252.964.354,1.453C446.2,587.08,446.3,587.592,446.375,588.11Z" transform="translate(-147.858 -70.537)" fill="#cfcce0"/>
    <path id="Path_1090" data-name="Path 1090" d="M567.639,638.709a26.738,26.738,0,0,1,3.883,6.223c.233.5.446,1.011.644,1.519l0,0a43.446,43.446,0,0,1,2.633,17.253c-.021.382-.041.586-.041.586l-.585-.058a44.873,44.873,0,0,1-13.579-3.9c-.382-.186-.767-.376-1.148-.58A28.626,28.626,0,0,1,550.779,653l-.034-.041c-.253-.3-.5-.606-.735-.916a29.414,29.414,0,0,1-4.592-9.1c-.128-.406-.248-.808-.359-1.213a44.885,44.885,0,0,1-1.477-13.768c.021-.382.041-.586.041-.586s.205.015.585.058a44.876,44.876,0,0,1,13.216,3.728c.371.174.743.354,1.116.542a30.592,30.592,0,0,1,6.991,4.8c.364.336.72.688,1.064,1.052Q567.134,638.107,567.639,638.709Z" transform="translate(-147.858 -70.537)" fill="#cfcce0"/>
    <path id="Path_1091" data-name="Path 1091" d="M585.724,405.958,580.705,489.6s-16.729,46.84,5.019,46.84,8.364-50.186,8.364-50.186l20.074-81.971Z" transform="translate(-147.858 -70.537)" fill="#ffb9b9"/>
    <path id="Path_1092" data-name="Path 1092" d="M747.992,395.92l5.019,83.644s16.729,46.84-5.019,46.84-8.364-50.186-8.364-50.186l-20.074-81.971Z" transform="translate(-147.858 -70.537)" fill="#ffb9b9"/>
    <path id="Path_1093" data-name="Path 1093" d="M647.62,750.569l3.346,41.822s-13.383,33.457,8.364,36.8q.326.05.646.1a17.255,17.255,0,0,0,19.338-20.126l-3.255-18.445s1.673-33.457-8.364-40.149S647.62,750.569,647.62,750.569Z" transform="translate(-147.858 -70.537)" fill="#2f2e41"/>
    <path id="Path_1094" data-name="Path 1094" d="M679.4,713.766s-3.346,10.037-1.673,20.074,3.346,38.476,3.346,38.476,0,30.112,11.71,30.112c4.182,0,7.724-3.627,10.55-8.291a42.451,42.451,0,0,0,4.306-33.149l-6.491-23.8v-18.4Z" transform="translate(-147.858 -70.537)" fill="#2f2e41"/>
    <path id="Path_1095" data-name="Path 1095" d="M617.508,407.631s-36.8,48.513-16.729,120.447,21.747,92.008,21.747,92.008l11.71,137.175s20.074,6.691,36.8-3.346l-5.019-132.157v-80.3l10.037,88.662v88.662s23.42,23.42,40.149,1.673l3.346-98.7S729.59,484.583,722.9,471.2s-21.747-60.223-21.747-60.223Z" transform="translate(-147.858 -70.537)" fill="#2f2e41"/>
    <path id="Path_1096" data-name="Path 1096" d="M650.823,181.915s-17.013-6.076-27.95,18.228-27.95,51.038-27.95,51.038l9.722,2.43s2.43-17.013,8.506-19.443l-2.43,21.874s72.912,25.519,105.722-2.43l-1.215-8.506s4.861,1.215,4.861,8.506l3.646-3.646s-3.646-7.291-14.582-17.013c-7.178-6.381-9.645-18.52-10.493-26.11a31.6,31.6,0,0,0-7.274-17.206C684.118,181.213,670.874,172.261,650.823,181.915Z" transform="translate(-147.858 -70.537)" fill="#2f2e41"/>
    <circle id="Ellipse_215" data-name="Ellipse 215" cx="31.785" cy="31.785" r="31.785" transform="translate(479.688 127.984)" fill="#ffb9b9"/>
    <path id="Path_1097" data-name="Path 1097" d="M650.966,250.381,640.928,290.53l30.112,86.989,23.42-92.008s-21.747-15.056-16.729-35.13Z" transform="translate(-147.858 -70.537)" fill="#ffb9b9"/>
    <path id="Path_1098" data-name="Path 1098" d="M732.936,479.564s-48.513,18.4-58.55-10.037-8.364-50.186-8.364-50.186-15.056,58.55-40.149,58.55-38.476-8.364-38.476-8.364,18.4-58.55,35.13-68.588c0,0,.084-.2.234-.569.937-2.342,4.249-11.626,1.924-19.79a16.984,16.984,0,0,0-2.158-4.734c-6.691-10.037-13.383-13.383-11.71-38.476l-13.383-46.84,46.155-10.639,24.106,75.881,21.948-74.292,39.948,5.7s3.346,60.223-13.383,81.971a36.112,36.112,0,0,0-5.889,11.426c-2.911,9.234-2.225,18.954-.652,26.716h.017a73.876,73.876,0,0,0,4.851,15.39Z" transform="translate(-147.858 -70.537)" fill="#cfcce0"/>
    <path id="Path_1099" data-name="Path 1099" d="M719.553,288.857l10.037-1.673s4.182-.836,11.71,5.019c9.613,7.477,10.037,108.737,10.037,108.737l-31.785,1.673Z" transform="translate(-147.858 -70.537)" fill="#cfcce0"/>
    <path id="Path_1100" data-name="Path 1100" d="M605.8,293.875l-8.364-3.346s-3.346-1.673-5.019,8.364-10.037,113.755-10.037,113.755l35.13-1.673V335.7Z" transform="translate(-147.858 -70.537)" fill="#cfcce0"/>
    <path id="Path_1101" data-name="Path 1101" d="M622.566,234.934s9.722-13.367,18.228-15.8,9.722-14.582,9.722-14.582,21.874,24.3,35.241,25.519,1.215-29.165,1.215-29.165l-24.3-6.076-23.089,2.43-18.228,12.152Z" transform="translate(-147.858 -70.537)" fill="#2f2e41"/>
    <circle id="Ellipse_216" data-name="Ellipse 216" cx="10.037" cy="10.037" r="10.037" transform="translate(510.636 309.491)" fill="#2f2e41"/>
    <path id="Path_1104" data-name="Path 1104" d="M266,741.252c-.229-.375-5.641-9.41-7.517-28.172-1.721-17.213-.614-46.227,14.433-86.7,28.506-76.671-6.569-138.533-6.928-139.149l1.73-1c.091.156,9.142,15.929,14.488,41.044a179.062,179.062,0,0,1-7.416,99.807c-28.457,76.54-7.3,112.773-7.084,113.131Z" transform="translate(-147.858 -70.537)" fill="#e5e5e5"/>
    <circle id="Ellipse_220" data-name="Ellipse 220" cx="13" cy="13" r="13" transform="translate(135 434.193)" fill="#cfcce0"/>
    <circle id="Ellipse_221" data-name="Ellipse 221" cx="13" cy="13" r="13" transform="translate(632 599.193)" fill="#6c63ff"/>
    <circle id="Ellipse_223" data-name="Ellipse 223" cx="13" cy="13" r="13" transform="translate(97 535.193)" fill="#cfcce0"/>
    <path id="Path_1110" data-name="Path 1110" d="M273.858,741.731s-13-32,26-56Z" transform="translate(-147.858 -70.537)" fill="#cfcce0"/>
    <path id="Path_1111" data-name="Path 1111" d="M257.87,741.15s-5.916-34.029-51.708-33.738Z" transform="translate(-147.858 -70.537)" fill="#cfcce0"/>
    <g id="undraw_duplicate_re_d39g" transform="translate(8.31 80.025)">
      <path id="Path_1112" data-name="Path 1112" d="M187.512,586.351h13.473l6.41-51.967H187.51Z" fill="#a0616a"/>
      <path id="Path_1113" data-name="Path 1113" d="M351.385,731.207h26.534a16.91,16.91,0,0,1,16.909,16.908v.55l-43.442,0Z" transform="translate(-167.31 -149.254)" fill="#2f2e41"/>
      <path id="Path_1114" data-name="Path 1114" d="M276.512,586.351h13.473l6.41-51.967H276.51Z" fill="#a0616a"/>
      <path id="Path_1115" data-name="Path 1115" d="M440.385,731.207h26.534a16.91,16.91,0,0,1,16.909,16.908v.55l-43.442,0Z" transform="translate(-167.31 -149.254)" fill="#2f2e41"/>
      <path id="Path_1116" data-name="Path 1116" d="M176.231,575.082h34.9l22.307-195.323,41.014,195.323H298V342.166L186.038,308.658Z" fill="#2f2e41"/>
      <circle id="Ellipse_224" data-name="Ellipse 224" cx="30.436" cy="30.436" r="30.436" transform="translate(205.304 75.929)" fill="#a0616a"/>
      <path id="Path_1117" data-name="Path 1117" d="M355.8,462.816c32.658,25.54,68.706,38.414,109.512,33.507-17.234-60.511-22.346-120.564-5.721-179.8L425.266,301l-38.583-2.452L358.64,306.8a18.751,18.751,0,0,0-13.451,18.357C346.18,375.667,342.821,422.94,355.8,462.816Z" transform="translate(-167.31 -149.254)" fill="#1f1f2f"/>
      <path id="Path_1118" data-name="Path 1118" d="M373.92,240.314c2.928-5.525,6.649-16.535,12.558-18.577a46.984,46.984,0,0,1,10.115-2.155l10.045,3.864-5.467-4.252q1.6-.1,3.191-.156l6.778,2.607-3.468-2.7c6.319-.065,12.841.592,17.737,4.439,4.174,3.279,8.31,15.7,8.978,20.967a40.1,40.1,0,0,1-.737,15.109l-1.716,1.632a21.057,21.057,0,0,1-1.347-4.287,20.3,20.3,0,0,0-9.718-13.183l-.093-.053c-2.879-1.62-6.372-1.546-9.673-1.427l-15.679.564c-3.772.136-7.834.374-10.775,2.741-1.986,1.6-3.177,3.957-4.308,6.241-1.461,2.949-4.317,14.074-4.317,14.074s-1.616-2.1-2.39-.537a54.041,54.041,0,0,1-2.249-12.544A24.576,24.576,0,0,1,373.92,240.314Z" transform="translate(-167.31 -149.254)" fill="#2f2e41"/>
      <path id="Path_1126" data-name="Path 1126" d="M374.943,482.768a10.432,10.432,0,0,0-12.312-10.213l-18.266-32.262-7.536,15.447,17.456,29.713a10.489,10.489,0,0,0,20.658-2.685Z" transform="translate(-167.31 -149.254)" fill="#a0616a"/>
      <path id="Path_1127" data-name="Path 1127" d="M456.614,518.633a10.432,10.432,0,0,1,5.954-14.848l.675-37.067,15.887,10.9-3.077,33.529a10.489,10.489,0,0,1-19.439,7.489Z" transform="translate(-167.31 -149.254)" fill="#a0616a"/>
      <path id="Path_1128" data-name="Path 1128" d="M345.993,478.344l13.076-12.259-6.711-66.2,7.764-93.575h0c-16.865,5.3-34.974,19.539-37.957,36.965L311.5,405.608Z" transform="translate(-167.31 -149.254)" fill="#1f1f2f"/>
      <path id="Path_1129" data-name="Path 1129" d="M186.275,215.083l-10.625,42.5,16.109,60.3-10.388-57.035Z" opacity="0.2" style="isolation: isolate"/>
      <path id="Path_1130" data-name="Path 1130" d="M458.774,501.227l21.249,2.452-4.975-157.785a36.727,36.727,0,0,0-22.583-32.744l-7.584-3.16,2.043,73.961Z" transform="translate(-167.31 -149.254)" fill="#1f1f2f"/>
      <path id="Path_1131" data-name="Path 1131" d="M283.509,237.114l8.2,91.062-13.887-90.427Z" opacity="0.2" style="isolation: isolate"/>
    </g>
  </g>
</svg>
