<svg xmlns="http://www.w3.org/2000/svg" width="357.233" height="570.125" viewBox="0 0 357.233 570.125">
  <g id="undraw_successful_purchase_re_mpig" transform="translate(-278.723)">
    <rect id="Rectangle_146" data-name="Rectangle 146" width="76" height="45" transform="translate(437.445 40.125)" fill="#2f2e41"/>
    <path id="Path_1270" data-name="Path 1270" d="M636.152,212.319H596.968V198.655a19.592,19.592,0,1,1,39.184,0Zm-38.317-.868h37.449v-12.8a18.725,18.725,0,1,0-37.449,0Z" transform="translate(-274 -164.937)" fill="#3f3d56"/>
    <path id="Path_1271" data-name="Path 1271" d="M381.527,45.5v-5.34l-99.65,2.67-3.154,135.26,14.748,18.218Z" fill="#3f3d56"/>
    <path id="Path_1272" data-name="Path 1272" d="M399.167,43.622,291.158,46.08l2.313,150.23L397.7,185.075Z" fill="#6c63ff"/>
    <path id="Path_1273" data-name="Path 1273" d="M491,530.355h-12.26L472.9,483.067H491Z" fill="#ffb6b6"/>
    <path id="Path_1274" data-name="Path 1274" d="M768.123,707.176H728.593v-.5a15.387,15.387,0,0,1,15.385-15.386h24.146Z" transform="translate(-274 -164.937)" fill="#2f2e41"/>
    <path id="Path_1275" data-name="Path 1275" d="M446,530.355h-12.26L427.9,483.067H446Z" fill="#ffb6b6"/>
    <path id="Path_1276" data-name="Path 1276" d="M723.123,707.176H683.593v-.5a15.387,15.387,0,0,1,15.385-15.386h24.146Z" transform="translate(-274 -164.937)" fill="#2f2e41"/>
    <path id="Path_1277" data-name="Path 1277" d="M683.992,399.2s-17.912,38.575-1.73,116.22,16.316,162.888,16.316,162.888l24.744.4,13.9-183.52L744.5,676.118h24.378l21.484-178.069s14.138-79.513-17.39-93.75Z" transform="translate(-274 -164.937)" fill="#2f2e41"/>
    <path id="Path_1278" data-name="Path 1278" d="M769.733,263.063l-54.178-4.994h0c-16.99,12.384-26.525,34.625-24.568,57.574,2.654,31.115,1.756,73.934-19.542,92.536,0,0,58.049,45.816,109.615,2.35,0,0-17.633-47.238-5.526-66.1S792.007,272.563,769.733,263.063Z" transform="translate(-274 -164.937)" fill="#e4e4e4"/>
    <path id="Path_1279" data-name="Path 1279" d="M608.527,186.179a10.743,10.743,0,0,0,11.44,11.852L691.5,264.789l12.821-19.53-74.346-59.48a10.8,10.8,0,0,0-21.448.4Z" transform="translate(-274 -164.937)" fill="#ffb6b6"/>
    <path id="Path_1280" data-name="Path 1280" d="M678.142,254.476l16.97-17.432a4.817,4.817,0,0,1,7.281.438L717.1,256.765a13.377,13.377,0,1,1-18.719,19.116l-19.611-14.138a4.817,4.817,0,0,1-.633-7.266Z" transform="translate(-274 -164.937)" fill="#e4e4e4"/>
    <path id="Path_1281" data-name="Path 1281" d="M874.284,348.749a10.743,10.743,0,0,0-12.081-11.2l-75.132-62.68-11.716,20.212,77.536,55.257a10.8,10.8,0,0,0,21.392-1.59Z" transform="translate(-274 -164.937)" fill="#ffb6b6"/>
    <path id="Path_1282" data-name="Path 1282" d="M800.982,284.425l-15.975,18.348a4.817,4.817,0,0,1-7.294-.033L761.953,284.3a13.377,13.377,0,0,1,17.628-20.126l20.366,13.027a4.817,4.817,0,0,1,1.036,7.22Z" transform="translate(-274 -164.937)" fill="#e4e4e4"/>
    <path id="Path_1283" data-name="Path 1283" d="M881.918,375.253H852.237V364.9a14.84,14.84,0,1,1,29.681,0Zm-29.024-.657h28.367V364.9a14.183,14.183,0,1,0-28.367,0Z" transform="translate(-274 -164.937)" fill="#3f3d56"/>
    <path id="Path_1284" data-name="Path 1284" d="M622.594,208.892v-4.045l-75.482,2.023-2.389,102.455,11.171,13.8Z" fill="#3f3d56"/>
    <path id="Path_1285" data-name="Path 1285" d="M635.956,207.468l-81.814,1.862,1.752,113.795,78.955-8.51Z" fill="#6c63ff"/>
    <circle id="Ellipse_267" data-name="Ellipse 267" cx="32" cy="32" r="32" transform="translate(440.445 20.125)" fill="#ffb6b6"/>
    <path id="Path_1286" data-name="Path 1286" d="M731.712,202.8c11.07,10.848,30.334,11.888,42.507,2.294a71.784,71.784,0,0,1-15.288,67.676c6.772,2.447,14.567.837,20.62-3.063s10.535-9.854,13.918-16.21c8.374-15.735,10.47-34.947,4.546-51.758s-20.117-30.75-37.36-35.264-37.014,1.062-48.534,14.663c-12.047,14.222-14,35.061-8.719,52.936s16.857,33.226,29.579,46.847a195.466,195.466,0,0,1-12.055-48.9c-.647-5.737-1.025-11.651.6-17.193s5.61-10.7,11.17-12.26" transform="translate(-274 -164.937)" fill="#2f2e41"/>
    <path id="Path_1289" data-name="Path 1289" d="M865.918,622.253H836.237V611.9a14.84,14.84,0,1,1,29.681,0Zm-29.024-.657h28.367V611.9a14.183,14.183,0,0,0-28.367,0Z" transform="translate(-274 -164.937)" fill="#cacaca"/>
    <path id="Path_1290" data-name="Path 1290" d="M606.594,455.892v-4.045l-75.482,2.023-2.389,102.455,11.171,13.8Z" fill="#cacaca"/>
    <path id="Path_1291" data-name="Path 1291" d="M619.956,454.468l-81.814,1.862,1.752,113.8,78.955-8.51Z" fill="#e4e4e4"/>
  </g>
</svg>
