<?xml version="1.0" encoding="utf-8"?>
<!-- Generator: Adobe Illustrator 22.0.1, SVG Export Plug-In . SVG Version: 6.00 Build 0)  -->
<svg fill="#000000" width="52" height="52" version="1.1" id="lni_lni-wine-glass-1" xmlns="http://www.w3.org/2000/svg" xmlns:xlink="http://www.w3.org/1999/xlink"
	 x="0px" y="0px" viewBox="0 0 64 64" style="enable-background:new 0 0 64 64;" xml:space="preserve">
<path d="M45.7,42.3c3.5-3.8,5.3-8.9,5-14.1L49.1,6.7c-0.2-3.1-2.8-5.5-5.9-5.5H20.7c-3.1,0-5.7,2.4-5.9,5.5l-0.9,12.6c0,0,0,0,0,0
	l-0.6,8.9c-0.4,5.2,1.4,10.3,5,14.1c3.1,3.4,7.4,5.5,12,5.9v11.1h-7.8c-1,0-1.8,0.8-1.8,1.8s0.8,1.8,1.8,1.8h19.1
	c1,0,1.8-0.8,1.8-1.8s-0.8-1.8-1.8-1.8h-7.8V48.2C38.3,47.8,42.6,45.7,45.7,42.3z M20.7,4.8h22.5c1.2,0,2.3,1,2.4,2.2l0.6,8.1
	l-4.6,2.2c-2.8,1.4-6.2,1.1-8.8-0.5c-3.2-2.1-7.2-2.6-10.8-1.3l-4.4,1.5l0.7-10C18.4,5.7,19.5,4.8,20.7,4.8z M16.8,28.4l0.6-7.7
	l5.8-2c2.6-0.9,5.5-0.5,7.8,1c2,1.3,4.4,2,6.8,2c1.9,0,3.7-0.4,5.4-1.2l3.4-1.6l0.7,9.6c0.3,4.3-1.1,8.3-4,11.5s-6.9,4.9-11.2,4.9
	s-8.2-1.7-11.2-4.9C17.9,36.8,16.5,32.7,16.8,28.4z"/>
</svg>
